<?xml version="1.0" encoding="UTF-8"?>
<svg id="Layer_1" data-name="Layer 1" xmlns="http://www.w3.org/2000/svg" viewBox="0 0 128 128">
  <defs>
    <style>
      .cls-1 {
        stroke: #000;
        stroke-miterlimit: 10;
        stroke-width: 2px;
      }
    </style>
  </defs>
  <path class="cls-1" d="M90.95,68.33c-2.46,0-4.88.21-7.31.58-2.45.36-5.1.45-7.51.99-1.88.42-3.44,1.13-3.55,3.16-.16,2.72.09,5.98.44,8.68.64,4.96,1.39,9.87,1.73,14.87.15,2.27.78,4.59.74,6.77-.05,2.84-.16,5.75,0,8.62.13,2.31.07,4.61.17,6.92.06,1.48,1.23,5.04-.97,5.25-.8.07-2.41-.55-3.22-.68-1.37-.22-2.72-.42-4.1-.58-2.99-.35-5.93-.35-8.93-.56-2.19-.15-4.36-.37-6.57-.36-2.19.01-4.79.7-4.97-2.02-.32-5.03.35-10.14.15-15.19-.11-2.48.27-5,.37-7.48.11-2.61-.1-5.31-.18-7.92-.09-2.52-.56-4.81-.38-7.37.1-1.36.21-2.72.26-4.08.03-.82.48-3.2.02-3.9-.8-1.23-5.62-.94-7.05-1.07-2.4-.2-4.77-.56-7.17-.66-1.04-.05-2.62.22-2.54-1.22.03-.64.77-1.12.84-1.9.21-2.46-.6-5.44-.76-7.93-.14-2.13-.29-4.24-.45-6.36-.13-1.67-1.36-5.45.89-6.17.97-.31,2.46.15,3.49.15,1.45,0,2.91,0,4.36.06,1.09.04,2.17.11,3.25.18.76.05,3.93.86,4.58.48.93-.53.3-3.86.37-5.04.15-2.56.91-4.91,1.2-7.39.09-.73-.05-1.42.16-2.22.34-1.26.58-2.53,1.03-3.75.65-1.77,1.32-3.46,2.16-5.16,1.07-2.16,2.13-4.34,3.43-6.37,1.2-1.85,2.81-3.34,4.49-4.9,1.48-1.38,2.27-2.64,3.86-3.64,2.07-1.29,3.72-2.78,6.02-3.77,5.06-2.18,10.87-2.81,16.33-2.98,2.15-.06,14.37.62,13.5,3.85-.42.73-.52,2.57-.32,3.37-.17,2.21,0,4.52.01,6.75,0,1.81.53,3.95.35,5.7-.2,1.95-2.71,1.51-4.38,1.73-1.73.22-3.67.5-5.35.99-2.98.87-6.73,1.01-8.64,3.88-2.01,3.03-3.57,7.55-3.9,11.13-.07.83-.13,1.68-.17,2.52-.06,1.12.21,1.84.31,2.85.12,1.32-.88,5.34.05,6.19.41.37,3.87-.47,4.68-.41,1.95.14,3.84.64,5.8.79,1.08.09,2.14.26,3.22.35.66.05,2.17-.25,2.78.15,1.4.91.61,4.17.7,5.67.11,1.98.45,3.98.48,5.96.05,2.92-1.19,2.66-3.74,2.5v.03l-.05-.03ZM74.85,46.92c.1-6.63-.01-13.21,4.72-18.47,2.62-2.92,6.21-3.8,10-4.2,1.48-.16,2.96-.3,4.45-.44.9-.09,2.6.13,3.08-.55.51-.72-.02-4.24-.06-5.21-.07-1.76-.46-3.52-.37-5.27.05-1.19.86-3.8.17-4.77-.47-.66-3.3-.9-4.13-.99-6.52-.75-14.47.31-20.67,2.43-6.37,2.18-11.44,7.06-15.05,12.64-1.82,2.81-3.68,5.93-4.39,9.25-.58,2.68-1.06,5.36-1.57,8.06-.56,2.91-.94,6-.86,8.96.02.88.58,3.25.07,4.07-.45.75-3.22.42-4.1.43-2.49.04-5.19.05-7.67-.28-1.24-.17-2.48-.33-3.73-.42-1.91-.13-1.94-.07-1.71,1.85.34,2.99.72,5.98.89,8.98.09,1.52-.53,6.46.63,7.29.79.56,3.48.16,4.38.16,1.37.01,2.71,0,4.07.13,1.59.14,3.18.44,4.76.57,1.76.14,2.29-.13,2.58,1.82,1.01,6.69.34,14.1.25,20.87-.1,7.17.11,14.3.21,21.48.02,1.25-.32,3.51.66,4.18.71.48,3.54.11,4.49.13,2.84.06,5.67-.22,8.53,0,1.7.14,3.4.31,5.1.44.89.06,3.52.84,4.23.29,1.2-.93-.42-6.94-.47-8.47-.22-6-1.03-11.79-1.59-17.77-.58-6.14-.7-12.11-.81-18.27-.05-3.02-.65-6.63,2.73-7.78,1.97-.67,4.53-1.13,6.59-1.53,2.98-.58,6.15-1.07,9.2-1.07.52,0,2.98.42,3.42.03.52-.46.17-2.74.13-3.37-.11-1.42-.26-2.83-.34-4.26-.06-1.24.25-1.14-.89-1.51-2.5-.82-5.93-.19-8.5-.1-1.83.07-7.27,1.44-8.25-1.13-.32-.83.03-2.57,0-3.55-.06-1.54-.16-3.08-.15-4.63v-.03Z"/>
</svg>