<?xml version="1.0" encoding="UTF-8"?>
<svg id="Layer_1" data-name="Layer 1" xmlns="http://www.w3.org/2000/svg" viewBox="0 0 128 128">
  <defs>
    <style>
      .cls-1 {
        stroke: #000;
        stroke-miterlimit: 10;
        stroke-width: 2px;
      }
    </style>
  </defs>
  <path class="cls-1" d="M121.14,65.95c.02,1.01.03,2.02.06,3.03.02,1.74.02,3.49.1,5.23.07,1.59.03,3.19.04,4.78.01,1.71,0,3.43.06,5.14.02.98.12,1.95.22,2.93.12,1.19.22,2.38.25,3.56.01,1.01.07,2.02.11,3.03,0,.24.02.49.02.73,0,.12,0,.26-.04.37-.27.6-.29,1.25-.35,1.89-.06.61-.04,1.22-.06,1.83-.01.64-.03,1.29-.04,1.93,0,.24-.06.48-.13.71-.19.52-.38,1.03-.44,1.59,0,.09-.06.18-.08.27-.32.93-.46,1.9-.63,2.87-.1.6-.25,1.2-.38,1.8-.07.3-.13.6-.2.89-.11.44-.25.88-.5,1.28-.22.37-.41.76-.58,1.14-.24.53-.5,1.04-.86,1.51-.47.61-.92,1.22-1.4,1.83-.36.47-.8.86-1.28,1.2-.37.27-.73.57-1.11.82-.46.31-.93.61-1.44.81-1.01.39-1.98.83-3.01,1.18-1.03.34-2.07.62-3.14.79-.97.14-1.94.38-2.92.44-.74.04-1.47.19-2.2.27-.37.04-.74.06-1.11.06-.77.02-1.55.04-2.32.03-1.3-.02-2.59.06-3.89.1-2.65.1-5.31.14-7.96.09-.71-.02-1.42-.02-2.13-.03-.95,0-1.92-.01-2.87-.16-.27-.03-.56-.03-.83-.04-.4-.02-.81-.02-1.2-.06-.67-.08-1.36-.09-2.03-.12-1.39-.06-2.78-.1-4.16-.23-1.08-.1-2.15-.1-3.23-.19s-2.16-.1-3.24-.12c-.16,0-.31-.01-.46-.03-.99-.09-1.97-.17-2.96-.18h-.09c-1.38-.2-2.77-.12-4.16-.16-.93-.02-1.85-.02-2.78-.13-.18-.02-.37-.01-.56-.02-.83-.04-1.67-.1-2.5-.14-.37-.02-.74-.04-1.11-.06-.21-.01-.44,0-.65-.03-1.01-.14-2.03-.12-3.05-.2-1.23-.1-2.46-.09-3.7-.19-.9-.07-1.78-.16-2.68-.24-.25-.02-.49-.04-.74-.06-1.08-.04-2.15-.16-3.21-.31-1.19-.18-2.39-.28-3.58-.41-.21-.02-.44-.03-.64-.09-.48-.11-.97-.13-1.47-.17-.34-.02-.65-.03-.96.19-.3.21-.68.22-1.06.08-.38-.13-.76-.23-1.15-.32-.46-.09-.88-.23-1.32-.4-.93-.34-1.86-.63-2.84-.79-.74-.11-1.43-.36-2.09-.71-.57-.31-1.16-.56-1.75-.84-.53-.26-1.04-.52-1.55-.82-.84-.51-1.71-.97-2.54-1.5-1.01-.64-2-1.32-2.77-2.28-.57-.72-1.13-1.44-1.62-2.23-.97-1.57-1.83-3.2-2.53-4.89-.41-.99-.69-2.02-.99-3.05-.17-.59-.31-1.18-.38-1.79-.03-.24-.1-.48-.18-.71-.31-.97-.54-1.94-.69-2.94-.17-1.05-.3-2.12-.25-3.2.02-.49-.01-.98-.11-1.45-.18-.9-.24-1.82-.17-2.74.02-.24.01-.49-.02-.73-.04-.31-.02-.62.15-.89.1-.17.12-.33.13-.52,0-.4-.06-.8-.21-1.17-.15-.34-.19-.7-.21-1.07-.03-.61-.09-1.22-.17-1.83-.12-.91-.17-1.82-.12-2.74.02-.33,0-.68-.06-1.01-.11-.61-.08-1.22-.09-1.83,0-.21.02-.43.01-.64-.07-1.04,0-2.08-.02-3.12,0-.37-.01-.73-.02-1.1,0-.16-.03-.31-.02-.46.1-1.41-.09-2.81-.04-4.22.01-.47-.1-.91-.2-1.35-.08-.33-.11-.67-.02-1,.12-.46.08-.9,0-1.37-.1-.57-.18-1.14-.25-1.72-.06-.49-.04-.98.03-1.47.1-.67.13-1.33.16-2.01.03-.89.08-1.78.28-2.64.04-.18.04-.37.04-.54,0-.49,0-.98-.04-1.47-.04-.52-.04-1.02.02-1.54.07-.51.02-1.04-.03-1.55-.08-.82-.12-1.64-.06-2.48.04-.49-.07-.98-.04-1.47.02-.46.11-.92.08-1.37-.06-.82-.12-1.64-.1-2.47,0-.24-.02-.49-.04-.73-.02-.28,0-.56-.07-.82-.1-.42-.09-.84-.08-1.28,0-.3.01-.61-.03-.91-.07-.4-.08-.79-.06-1.19.08-1.34.12-2.69.12-4.03v-.28c.13-1.07.25-2.13.43-3.18.08-.48.21-.96.27-1.44.08-.67.2-1.32.41-1.97.12-.38.19-.77.22-1.17.02-.18.02-.38.08-.54.25-.76.52-1.5.77-2.25.46-.72.9-1.47,1.42-2.14.06-.08.11-.16.19-.2.43-.26.74-.66,1.12-.96.38-.3.76-.62,1.23-.81.2-.08.38-.21.56-.31.59-.33,1.22-.59,1.88-.73.45-.1.88-.23,1.32-.41.43-.17.86-.3,1.33-.38,1.03-.17,2.06-.36,3.09-.54.57-.11,1.14-.23,1.71-.39.66-.18,1.34-.19,2-.3.85-.14,1.71-.2,2.58-.21.37,0,.74-.09,1.11-.11.8-.06,1.6-.08,2.4-.13.71-.04,1.41-.03,2.12,0,.92.04,1.85-.02,2.78-.06,1.27-.04,2.53-.11,3.79.03.21.02.44.02.65,0,1.94-.11,3.89-.13,5.82-.14.81,0,1.6-.07,2.41-.1.9-.03,1.79-.02,2.68.04.65.04,1.29.08,1.94.09.81.02,1.6,0,2.41.02.46,0,.92.02,1.38.11.27.06.55.06.83.04,2.16-.06,4.32.02,6.47.01,2.32-.01,4.63-.04,6.94-.02,1.69.01,3.39.04,5.08.14,1.02.06,2.04.04,3.06.07.95.01,1.92.02,2.87.04.12,0,.25,0,.37.01,1.72.13,3.45.11,5.19.12.56,0,1.12-.02,1.67.03.92.09,1.85.08,2.77.18s1.84.18,2.73.43c.47.13.96.22,1.44.28,1.04.13,2.06.39,3.07.64,1.16.3,2.34.54,3.49.86,1.31.36,2.64.59,3.92,1.05.15.06.29.1.45.13,1.57.36,2.91,1.14,4.2,2.07.65.47,1.27.98,1.79,1.59.16.19.34.36.52.52.85.81,1.57,1.72,2.3,2.63.49.62.92,1.3,1.3,2,.17.32.35.64.54.96.38.6.63,1.27.85,1.93.28.81.52,1.63.69,2.48.31,1.47.66,2.92.95,4.4.25,1.23.44,2.47.64,3.71.21,1.3.4,2.6.6,3.9.04.3.09.6.11.91.07.67.12,1.34.17,2.01.02.3.01.61.02.91.02.8.04,1.59.06,2.39.01.56.02,1.1.02,1.65v1.55c0,1.29-.07,2.57-.13,3.85-.06,1.07-.04,2.14-.07,3.21s0,2.14.06,3.21c.03.54.01,1.1.02,1.65,0,.43.01.86.02,1.29h.04ZM34.76,15.65h0c-.74,0-1.49.03-2.21-.02-1.05-.08-2.09-.06-3.13.01-.4.02-.79.07-1.2.1-.74.08-1.46.17-2.2.23-.34.03-.67.07-.99.17-.5.15-1.01.25-1.53.3-.4.03-.79.1-1.18.2-.3.08-.6.12-.91.13-.98.01-1.97.04-2.93.32-.03,0-.06,0-.09.01-.65.08-1.27.22-1.89.44-.76.26-1.52.49-2.29.69-.48.12-.94.3-1.35.57-.34.22-.66.46-.99.67-.77.5-1.3,1.22-1.63,2.07-.09.22-.16.47-.27.69-.23.51-.31,1.06-.38,1.61-.04.4-.09.79-.15,1.18-.13.97-.3,1.94-.41,2.93-.07.58-.16,1.16-.27,1.73-.06.34-.12.67-.17.99-.15.92-.18,1.83-.27,2.76-.09.89-.04,1.79,0,2.67.02.42.06.86.46,1.3v4.06c-.4,1.44-.93,4.34-.93,4.34v.65s.36,2.77.38,4.16c0,.44-.03.86-.08,1.29-.04.46-.09.92-.09,1.39,0,1.26-.06,2.53-.02,3.79.01.46-.04.92-.08,1.39-.07.95-.16,1.9-.22,2.85-.03.4-.01.79.04,1.2.04.27.06.55.06.83,0,.68-.02,1.35,0,2.03.02.8.04,1.6.11,2.4.13,1.44.3,2.87-.1,4.32v.28c.26.65.23,1.3.24,1.93,0,.68-.02,1.36.07,2.02.13.95.18,1.9.13,2.85-.02.47,0,.92.07,1.37.11.83.21,1.64.21,2.48,0,.4.02.8.09,1.2.16,1.01.34,2,.51,3.01.04.28.1.55.02.83s-.04.55.01.83c.07.3.16.59.25.89.16.56.32,1.12.49,1.68.18.57.22,1.15.2,1.73-.02.35.01.67.08,1.01.1.51.21,1.03.25,1.54.03.47.11.92.2,1.36.11.55.21,1.08.38,1.62.17.56.12,1.16.37,1.71.07.77.46,1.4.91,1.99.38.49.72.99.97,1.55.25.53.53,1.04.87,1.52.23.32.46.66.69.97.23.32.48.64.8.88.27.2.47.48.7.73.17.18.32.38.49.56.73.77,1.64,1.29,2.55,1.82.32.19.64.38.93.6.29.22.59.44.89.66.68.49,1.43.85,2.22,1.1.74.22,1.46.48,2.16.79.99.45,2.07.56,3.13.76.86.01,1.71.25,2.57.22.09,0,.19.01.28.03.97.18,1.94.27,2.93.36.95.09,1.9.16,2.86.15,1.12-.02,2.21.17,3.31.25.53.04,1.04.1,1.56.11.49.02.98.04,1.48.08.42.02.86.04,1.3.06.89.03,1.78.06,2.67.19.67.1,1.35.12,2.02.15,1.82.07,3.62.21,5.4.61.54.12,1.1.19,1.64.21,1.23.03,2.46.17,3.69.25,1.44.09,2.88.27,4.32.36,1.35.09,2.7.15,4.06.16,1.14,0,2.28.06,3.42.08.31,0,.61.03.93,0,1.11-.11,2.21-.11,3.32-.13.31,0,.61,0,.93-.04.79-.09,1.6-.09,2.4-.4h1.11c.22.3.42.25.59.09.15-.13.51.84.51.84h.65s2.28-.95,3.42-.93h3.33c.16-.01.31-.01.46.01.95.11,1.9.13,2.86.16.4,0,.79.06,1.2.08.3.02.61.04.92.06.28.02.56.01.83.06.46.08.92.08,1.39.06.58-.02,1.16-.09,1.75-.1,1.45-.02,2.88-.16,4.31-.41.6-.11,1.22-.19,1.81-.32,1.02-.23,2.01-.56,3-.91.98-.36,1.93-.78,2.88-1.23.78-.36,1.52-.8,2.22-1.3.15-.11.31-.21.42-.36.34-.44.64-.89,1.06-1.26.04-.03.07-.1.1-.16.2-.45.37-.91.72-1.29.1-.11.13-.27.18-.42.11-.36.26-.68.5-.98.23-.29.36-.64.39-1.02.08-.89.26-1.77.46-2.64.13-.57.29-1.13.3-1.72,0-.19.06-.37.17-.53.15-.21.19-.46.19-.7,0-.74,0-1.48-.01-2.21,0-.25,0-.49.11-.72.38-.74.45-1.54.45-2.34,0-1.63.09-3.26.2-4.88.08-1.23.19-2.45.07-3.69-.02-.21,0-.44,0-.65.01-.37.04-.74.06-1.11.02-1.26.04-2.53.07-3.79,0-.49,0-.98-.11-1.48-.07-.34-.07-.67.02-1.01.11-.39.09-.79.03-1.2-.13-.97-.34-1.94-.35-2.93,0-.06-.02-.12-.03-.18-.1-.7-.2-1.4-.3-2.1-.06-.37-.12-.73-.13-1.1-.03-.7-.06-1.42-.07-2.12-.01-.74-.02-1.48-.13-2.21-.08-.48-.07-.98-.08-1.48-.02-.61.14-1.84.14-1.84v-1.56s-.19-.68-.23-1.02c-.08-.68-.08-1.35.02-2.02.08-.49.11-.98.11-1.48,0-1.11.09-2.21.22-3.31.13-1.11.12-2.21.07-3.32-.06-1.2-.13-2.39-.12-3.6,0-.49-.03-.98-.11-1.48-.08-.46-.11-.92-.15-1.37-.09-1.11-.08-2.21-.26-3.31-.03-.18-.03-.37-.03-.55,0-1.33-.15-2.64-.39-3.95-.09-.48-.19-.97-.19-1.46,0-.18-.06-.37-.09-.55-.21-1.12-.42-2.24-.61-3.35-.1-.61-.26-1.21-.45-1.79-.15-.44-.29-.88-.45-1.31-.27-.72-.51-1.45-.89-2.12-.69-1.23-1.31-2.51-2.06-3.72-.35-.56-.73-1.06-1.26-1.45-.37-.27-.74-.56-1.08-.86-.67-.58-1.33-1.18-2.09-1.67-.23-.15-.44-.35-.67-.49-.76-.51-1.58-.84-2.51-.81h-.28c-.51.11-.98-.02-1.41-.29-.21-.13-.44-.2-.69-.23-.88-.11-1.78-.19-2.67-.2-.25,0-.49,0-.74-.04-1.18-.18-2.38-.35-3.55-.55-1.34-.22-2.68-.35-4.05-.34-.46,0-.92-.06-1.39-.08-.37-.02-.74-.07-1.11-.03-.68.04-1.35.04-2.02,0-.86-.06-1.72-.06-2.58-.04-1.45.02-2.89.02-4.34-.04-1.26-.06-2.51-.16-3.78-.16-1.67-.01-3.32-.06-4.98-.11-1.39-.04-2.77-.06-4.15-.22-.25-.03-.74-.45-.74-.45h-1.67s-2.09.45-3.14.37c-.67-.06-1.35-.08-2.03-.11-.44-.02-.86-.03-1.3-.03-1.11,0-2.21,0-3.32-.12-.25-.02-.49-.04-.74-.03-.98.03-2.95.86-2.95.86h-.56s-1.91-.84-2.86-.82c-.34,0-.68.04-1.02.01-1.39-.11-2.77-.07-4.16-.08-.68,0-1.35-.01-2.03-.02-.21,0-.44,0-.65-.04-.49-.11-.97-.11-1.48.02h-3.14v-.12Z"/>
  <path class="cls-1" d="M68.22,90.26c-.9.03-1.8-.03-2.69-.1-.72-.06-1.44-.17-2.15-.35-1.57-.4-3.13-.86-4.6-1.53-.24-.11-.49-.2-.75-.27-1.18-.32-2.34-.76-3.42-1.34-.63-.34-1.27-.63-1.9-.94-.44-.22-.87-.45-1.3-.7-1.04-.63-1.9-1.46-2.68-2.38-.57-.68-1.12-1.38-1.68-2.08-.49-.62-.93-1.29-1.26-2.01-.19-.42-.42-.85-.62-1.27-.48-1.01-.82-2.06-1.03-3.14-.04-.25-.12-.48-.18-.72-.23-.96-.31-1.93-.28-2.93.03-.83-.02-1.67-.07-2.49-.09-1.41-.2-2.83-.3-4.24-.09-1.21.04-2.39.21-3.59.09-.65.28-1.25.47-1.88.07-.2.13-.41.19-.61.48-1.77,1.25-3.41,2.1-5.02.15-.27.32-.53.5-.77.19-.28.41-.54.59-.83.51-.78,1.15-1.49,1.79-2.17.32-.34.65-.65,1.01-.94.76-.6,1.55-1.17,2.35-1.71.93-.61,1.96-1.04,3-1.41.73-.26,1.46-.51,2.19-.75.05-.02.1-.03.16-.04.75-.16,1.51-.3,2.26-.46,1.15-.23,2.32-.25,3.49-.3.18,0,.37,0,.55.03.92.11,1.84.16,2.75.3h.09c1.72.45,3.49.76,5.1,1.56.66.34,1.32.66,1.98.98.28.13.55.28.83.4.78.34,1.48.79,2.16,1.28.53.38,1.03.81,1.47,1.29.85.91,1.67,1.84,2.35,2.89.78,1.17,1.63,2.31,2.44,3.48.27.38.53.76.76,1.15.16.26.3.54.4.83.34.99.78,1.94,1.04,2.96.2.77.4,1.54.6,2.31.11.42.15.85-.08,1.25-.06.1-.07.23-.06.36.02.42.04.86.1,1.29.18,1.41.35,2.81.44,4.22.04.79,0,1.6-.01,2.4-.01.58-.06,1.17-.09,1.75-.07,1.02-.2,2.01-.55,2.98-.38,1.04-.7,2.1-1.06,3.14-.37,1.07-.88,2.08-1.45,3.06-.17.3-.5.76-.74,1.01-.6.64-1.26,1.24-1.89,1.86-.82.82-1.78,1.42-2.85,1.84-.54.21-1.07.46-1.64.61-.23.07-.46.18-.67.3-.91.5-1.89.75-2.87.96-.84.18-1.68.29-2.54.32-.65.02-1.31.06-1.96.09l-.02.02ZM45.24,63.76c-.02,1.34-.03,2.29.1,3.25.08.54.16,1.08.24,1.6.18,1.2.6,3.13.94,4.29.48,1.65,1.05,3.27,1.78,4.83.57,1.21,1.29,2.31,2.3,3.21.69.61,1.37,1.23,2.11,1.79,1.5,1.14,3.1,2.11,4.85,2.83,1.03.41,2.05.85,3.07,1.24,1.35.51,2.74.93,4.15,1.24.99.22,2,.36,3.02.29,1.16-.07,2.34-.12,3.51-.19.18,0,.37-.03.55-.08,1.14-.28,2.27-.56,3.4-.86.21-.06.42-.14.61-.24.54-.29,1.07-.59,1.6-.89.54-.3,1.05-.64,1.46-1.12.08-.09.18-.17.27-.25.79-.68,1.52-1.44,2.25-2.19.23-.25.45-.5.65-.78.96-1.27,1.58-2.7,1.98-4.24.17-.66.32-1.32.47-1.98.14-.63.26-1.66.26-2.31,0-.39.02-.78,0-1.18-.01-.46-.02-.93-.09-1.37-.16-.94-.36-1.88-.56-2.81-.2-.99-.45-1.98-.61-2.98-.11-.64-.25-1.26-.44-1.89-.29-.98-.63-1.95-.93-2.93-.17-.55-.39-1.09-.71-1.58s-.59-1.01-.83-1.54c-.16-.34-.36-.64-.61-.92-.35-.37-.69-.76-1.01-1.15-.24-.3-.53-.56-.85-.79-.27-.2-.48-.47-.57-.8-.09-.34-.29-.61-.49-.88-.31-.4-.62-.81-.95-1.2-.42-.51-.91-.96-1.48-1.3s-1.07-.72-1.61-1.08c-.46-.31-.92-.62-1.43-.89-.46-.24-.97-.4-1.48-.49-.24-.04-.47-.1-.7-.16-.77-.22-1.55-.38-2.34-.54-1.12-.22-2.25-.34-3.4-.29h-.18c-1.15-.02-2.27.16-3.38.45-.25.07-.51.15-.77.21-.5.12-1.32.33-1.8.5-.54.19-1.08.38-1.66.57-.64.21-1.26.48-1.85.79-.62.33-1.26.67-1.87,1.02-.8.47-1.53,1.03-2.13,1.75-.37.45-.72.92-1.11,1.36-.4.46-.72,1.01-1.07,1.5-.88,1.21-1.46,2.57-1.88,3.99-.25.85-.37,1.75-.6,2.61l-.05.27c-.07.89-.13,1.78-.17,2.28h.03Z"/>
  <path class="cls-1" d="M93.09,26.92c.86,0,1.61.35,2.48.67.29.11.58.23.85.39.4.22.8.44,1.17.7.5.35.98.74,1.46,1.12.15.11.28.25.39.39.69.79,1.29,1.64,1.81,2.55.58.99.65,2.05.37,3.12-.16.6-.27,1.2-.22,1.81,0,.12,0,.25-.01.37-.03.98-.48,1.79-1.25,2.37-.67.5-1.35,1.02-2.08,1.44-.47.27-1.01.41-1.54.38-.5-.02-.97-.15-1.44-.28-.46-.14-.92-.34-1.33-.55-.45-.23-.85-.53-1.2-.89-.52-.53-1.05-1.03-1.46-1.66-.16-.22-.35-.42-.54-.64-1.35-1.51-2.09-3.31-2.39-5.3-.03-.21-.04-.43-.02-.64.06-.79.13-1.59.32-2.37.09-.39.27-.75.48-1.1.1-.16.22-.3.36-.41.8-.68,1.73-1.17,2.77-1.39.32-.07.67-.07,1.01-.09h.01ZM97.15,30.21c0-.19-.09-.31-.22-.39-.87-.46-1.79-.66-2.76-.41-.39.1-.76.23-1.14.38-.54.2-.98.53-1.31.98-.34.48-.65.97-.96,1.46-.19.3-.27.65-.23.99.06.48.14.95.39,1.39.12.21.23.44.35.66.23.51.59.93,1.01,1.31.18.17.36.23.58.11.31-.18.59-.09.85.12.09.08.19.16.27.25.25.26.55.38.87.48.66.19,1.34.19,2.01.27.27.03.55-.04.82-.11.15-.03.29-.12.39-.22.15-.16.27-.34.38-.51.27-.45.53-.91.78-1.36.09-.15.16-.32.25-.48.1-.18.16-.39.16-.59.01-1-.4-1.82-1.05-2.54-.26-.28-.59-.45-.98-.41h-.37c-.26-.03-.56-.28-.59-.51-.04-.29,0-.56.29-.72.08-.04.16-.09.22-.13Z"/>
</svg>