<?xml version="1.0" encoding="UTF-8"?>
<svg id="Layer_1" data-name="Layer 1" xmlns="http://www.w3.org/2000/svg" viewBox="0 0 128 128">
  <defs>
    <style>
      .cls-1 {
        stroke: #000;
        stroke-miterlimit: 10;
        stroke-width: 2px;
      }
    </style>
  </defs>
  <path class="cls-1" d="M10.4,106.38c-.17-.45-.3-.89-.49-1.31-.52-1.14-.83-2.37-1.29-3.54-.31-.81-.51-1.64-.63-2.5-.12-.89-.32-1.76-.49-2.65-.06-.31-.11-.64-.13-.96-.08-.85-.13-1.72-.23-2.57-.17-1.61-.28-3.22-.26-4.84,0-1.79.08-3.59.36-5.37.04-.25.08-.49.1-.75.04-1.25.12-2.51.02-3.77,0-.07-.02-.14-.01-.22.16-.88.18-1.78.45-2.65.12-.4.31-.72.7-.9.1-.05.18-.11.29-.17.67-1.46,1.47-2.86,2.27-4.26.38-.69.75-1.38,1.07-2.11.42-.93.94-1.77,1.71-2.44.52-.45.91-1.01,1.3-1.58.78-1.15,1.66-2.25,2.57-3.31.67-.79,1.3-1.62,2.03-2.37.55-.57,1.12-1.12,1.74-1.6,1.14-.87,2.29-1.73,3.48-2.53,1.08-.72,2.24-1.28,3.4-1.83.81-.37,1.65-.7,2.48-1.05,1.38-.6,2.82-1.06,4.29-1.36.64-.12,1.25-.3,1.88-.45.94-.22,1.89-.43,2.84-.6.46-.08.9-.22,1.34-.37.26-.1.54-.19.83-.23,1.35-.18,2.71-.35,4.05-.52.18-.02.36-.04.53-.07.67-.17,1.36-.14,2.03-.05,1.07.14,2.14.19,3.21,0,.2-.04.43-.02.64-.05.29-.04.59-.04.84-.13.42-.17.77-.06,1.12.16.25.16.45.36.53.65.07.24.14.47.3.69.26.4.23.82,0,1.22-.01.04-.04.06-.06.08-.16.17-.2.36-.17.59.2,1.38.32,2.78.37,4.17.02.71.13,1.43.18,2.14.08,1.32.22,2.65.32,3.97.04.51.08,1,.08,1.5,0,1.61.02,3.22-.11,4.84-.04.47-.02.94-.05,1.4-.01.32-.05.65-.11.96-.1.51-.45.79-.93.95-.13.05-.3.02-.41.1-.35.25-.73.26-1.13.28h-.43c-1.05-.05-2.08.1-3.09.32-.36.08-.71.12-1.06.13-.94.01-1.85.19-2.77.37-.49.1-.99.19-1.48.25-.78.1-1.55.2-2.3.52-.53.22-1.09.35-1.64.52-1.23.35-2.26,1.05-3.28,1.79-.2.14-.38.32-.55.52-.31.35-.64.69-1,.99-.16.13-.28.32-.41.49-.35.46-.7.91-1.05,1.36-.08.11-.2.2-.28.34-.23.41-.42.83-.67,1.22-.25.38-.59.72-.78,1.15-.19.42-.47.81-.66,1.23-.36.73-.73,1.48-.72,2.33,0,.07-.02.14-.04.22-.34,1.3-.23,2.63-.26,3.96,0,.22.02.43,0,.65-.11.97.04,1.92.17,2.89.04.25.07.49.08.75.02.58.07,1.14.3,1.68.08.19.1.42.1.63,0,.36.08.71.19,1.05.06.17.12.34.22.48.22.32.42.67.69.96.65.72,1.23,1.49,1.78,2.29.34.48.75.87,1.15,1.26.36.36.85.53,1.23.87.36.31.79.47,1.24.63.2.07.38.19.58.28,1.79.85,3.68,1.42,5.62,1.78,1.35.25,2.71.32,4.07.11.71-.11,1.43-.1,2.13-.28.35-.1.7-.16,1.03-.29.28-.11.54-.16.83-.06.28.08.55.07.83-.04.3-.11.63-.14.95-.19.76-.11,1.44-.37,2.09-.79,1.07-.67,2.02-1.47,2.84-2.44.64-.77,1.34-1.5,2.01-2.24.31-.34.67-.65,1-.97.54-.53,1.09-1.03,1.61-1.59.32-.34.59-.72.88-1.08.2-.26.32-.55.29-.9-.02-.23.08-.43.25-.57.4-.32.65-.76.91-1.19.07-.12.17-.25.18-.38.02-.6.41-1.05.63-1.58.4-.91.73-1.86.81-2.89.05-.78.12-1.58.2-2.36.06-.53.17-1.06.28-1.59.11-.49.24-.97.36-1.46.1-.37.26-.66.66-.77.28-.07.38-.26.42-.55.14-1.22.37-2.41.4-3.63,0-.25.02-.51.08-.75.08-.31.11-.64.11-.96,0-1.61.02-3.22.02-4.85,0-1,.01-2.01-.16-3.01-.07-.38-.02-.79-.05-1.18-.07-1.22-.16-2.43-.24-3.65-.01-.25-.04-.52-.13-.73-.29-.6-.34-1.25-.45-1.88-.18-1.06-.25-2.13-.22-3.21.02-.75,0-1.5-.02-2.26-.05-1.14-.08-2.3-.01-3.44.05-.83.01-1.64-.19-2.45-.25-1.01-.3-2.06-.41-3.09-.06-.6-.12-1.22-.13-1.83-.02-.61,0-1.22.01-1.83,0-.47,0-.93-.08-1.4-.13-.73-.16-1.5-.29-2.24-.22-1.17-.25-2.35-.26-3.54,0-.51-.07-1-.12-1.5-.06-.65-.1-1.29-.07-1.94.02-.61.08-1.22.34-1.78.16-.34.2-.69.17-1.05-.05-.57-.05-1.14-.17-1.71-.11-.51-.22-.97-.71-1.25-.2-.11-.24-.36-.2-.58.05-.38.16-.77.11-1.17-.14-1.17-.14-2.36-.45-3.51-.1-.36-.24-.67-.49-.94-.19-.19-.26-.43-.24-.69.06-.72-.05-1.43-.17-2.14-.1-.57-.13-1.14-.22-1.71-.14-.96-.32-1.91-.46-2.86-.1-.71-.16-1.43-.23-2.14-.06-.57-.12-1.14-.18-1.71-.07-.67-.11-1.36.01-2.03.04-.22.04-.42-.02-.64-.12-.46.02-.84.38-1.15.32-.29.65-.57.96-.85.34-.3.73-.43,1.17-.49.89-.12,1.77-.25,2.66-.37.25-.04.51-.04.75-.05,1.07-.02,2.15-.05,3.22-.08.11,0,.22,0,.32-.01,1.83-.17,3.66-.1,5.49-.11,1.61-.01,3.22.19,4.84.18,1.83-.01,3.66.14,5.47.3.78.07,1.56.19,2.36.19.12,0,.25.12.35.22.14.17.23.36.23.59,0,.32.02.65.02.96,0,.54.06,1.07.16,1.6.08.42.11.85.16,1.28.04.25.02.52.13.73.22.43.26.89.35,1.35.13.67.3,1.34.57,1.96.14.36.4.69.54,1.05.13.32.19.69.29,1.03.08.32.3.57.53.79.18.18.28.4.37.64.48,1.31.97,2.62,1.48,3.92.14.36.35.71.55,1.05.28.47.64.87,1.12,1.14.78.46,1.41,1.11,2.06,1.73.55.53,1.17.94,1.83,1.31.34.19.69.4,1,.63,1.02.72,2.08,1.41,3.19,2,.83.45,1.68.79,2.61.96.24.05.48.14.72.19,1.44.26,2.89.53,4.38.34.7-.1,1.44.38,1.72,1.03.07.17.16.31.23.48.07.2.17.4.19.61.11.78.18,1.56.29,2.35.24,1.78.13,3.59.14,5.38,0,.67-.1,1.36-.13,2.03-.12,2.3-.22,4.58-.02,6.88.06.67-.26,1.11-.76,1.43-.29.19-.63.35-1,.35-.22,0-.43.04-.64.08-1.09.23-2.2.24-3.32.16-.82-.06-1.65-.05-2.48-.05-.61,0-1.2-.05-1.79-.25-.75-.26-1.55-.32-2.33-.35-.58-.01-1.15.02-1.62-.4-.89-.26-1.77-.59-2.69-.72-1-.13-1.97-.38-2.95-.63-.17-.05-.35-.1-.51-.18-1.5-.85-3.14-1.41-4.74-2.02-.51-.19-1-.41-1.48-.65-.87-.43-1.73-.85-2.6-1.29-.45-.23-.88-.48-1.32-.72-.13-.07-.3.04-.31.18,0,.29-.04.58-.01.85.06.89.1,1.79.2,2.68.11.85.17,1.71.24,2.56.18,1.96.26,3.93.32,5.91.05,1.32.07,2.65.1,3.98,0,.58-.02,1.14-.01,1.72.02,1.94,0,3.87-.02,5.81-.02,1.72-.1,3.44-.2,5.16-.13,1.94-.22,3.86-.35,5.8-.08,1.22-.17,2.43-.41,3.63-.06.28-.1.57-.12.85-.11,1.58-.34,3.14-.61,4.69-.29,1.59-.59,3.18-.71,4.79-.02.36-.12.71-.18,1.06-.18,1.17-.36,2.33-.48,3.51-.16,1.47-.49,2.9-.97,4.28-.34.99-.64,1.97-.97,2.96-.12.34-.26.66-.41,1-.38.89-.76,1.78-1.15,2.66-.73,1.59-1.48,3.19-2.26,4.76-.61,1.23-1.4,2.36-2.25,3.4-.18.22-.38.42-.6.61-1.05.94-2.12,1.83-3.3,2.57-.28.17-.57.32-.84.48-.89.53-1.79,1.06-2.68,1.59-.12.07-.24.16-.35.25-.87.76-1.83,1.37-2.83,1.95-.16.08-.3.2-.45.3-.55.4-1.09.81-1.77,1-.17.05-.34.13-.48.24-.77.54-1.64.88-2.48,1.29-.19.1-.38.19-.58.29-.46.23-.9.24-1.3-.11-.2-.18-.43-.23-.7-.19-.47.05-.91.17-1.35.35s-.87.35-1.28.57c-.4.2-.75.2-1.11-.04-.04-.02-.06-.04-.1-.06-.19-.13-.4-.14-.61-.11-.57.08-1.14.16-1.7.25-.71.12-1.42.19-2.14.19-1.36,0-2.73,0-4.09-.1-1.07-.07-2.15-.11-3.21-.31-.6-.11-1.2-.17-1.82-.23-.96-.1-1.9-.36-2.84-.58-.55-.13-1.11-.26-1.68-.35-.71-.11-1.41-.26-2.09-.45-1.49-.4-3.01-.67-4.5-1.02-1.58-.36-3.12-.82-4.66-1.32-.95-.31-1.86-.73-2.73-1.25-.89-.53-1.8-1.03-2.74-1.47-.69-.32-1.3-.76-1.92-1.19-.12-.08-.24-.17-.34-.28-.69-.84-1.56-1.47-2.35-2.2-1.18-1.11-2.3-2.27-3.14-3.67-.51-.83-.88-1.72-1.24-2.62-.08-.2-.12-.42-.22-.6-.24-.43-.13-.83.06-1.24.08-.19.22-.36.34-.55l.06.04ZM113.76,39h.06c-.05-1.9-.08-3.8-.14-5.7-.02-.69-.11-1.36-.17-2.03-.02-.29-.18-.42-.49-.46-1.03-.1-2.07-.19-3.1-.29-.82-.08-1.62-.23-2.41-.55-.43-.18-.88-.31-1.32-.46-1.34-.43-2.66-.87-3.99-1.26-1.14-.34-2.18-.91-3.21-1.48-.25-.13-.47-.32-.7-.51-.79-.64-1.38-1.46-1.88-2.33-.41-.72-.79-1.44-1.06-2.23-.1-.28-.24-.52-.43-.73-.42-.48-.84-.97-1.26-1.47-.13-.17-.31-.32-.36-.52-.19-.71-.63-1.29-.95-1.92-.29-.54-.57-1.08-.59-1.71,0-.11-.06-.2-.08-.31-.16-.63-.34-1.25-.48-1.88-.11-.49-.2-.97-.22-1.49,0-.54-.08-1.07-.19-1.6-.13-.7-.29-1.41-.36-2.12-.06-.57-.23-1.12-.36-1.68-.05-.2-.19-.3-.37-.32-.25-.04-.49-.08-.75-.08-.51,0-1-.05-1.49-.14-.2-.05-.42-.07-.64-.07-1,0-2.01,0-3.01.02s-2.01.12-3.01.14c-.87.02-1.72.16-2.56.28-1.03.14-2.07.23-3.09.37-.82.11-1.65.16-2.45.29-1.24.19-2.48.37-3.74.38-.11,0-.22,0-.32.02-.36.04-.53.22-.52.55,0,.14,0,.29.02.43.13.82.26,1.62.4,2.44.06.38.13.78.18,1.17.19,1.6.26,3.21.45,4.82.2,1.92.43,3.85.69,5.76.19.55.11,1.14.25,1.7.17.66.32,1.32.45,2,.13.66.29,1.34.31,2.01.05,1.12.25,2.2.41,3.31.24,1.78.54,3.55.51,5.35,0,.14,0,.29.02.43.13.89.14,1.79.17,2.68,0,.32,0,.65.06.96.07.32.1.63,0,.95-.05.13-.06.28-.06.42,0,1.11-.04,2.23.08,3.33.11,1.03.23,2.07.37,3.09.14.93.19,1.85.2,2.79,0,.94,0,1.86.07,2.79.07,1,.12,2.01.12,3.01,0,.87,0,1.72.06,2.59.12,1.54.19,3.08.19,4.62,0,1.32.02,2.66.08,3.98.02.58,0,1.14-.08,1.72-.17,1.46-.31,2.92-.48,4.38-.12,1.11-.26,2.21-.4,3.31-.07.53-.18,1.06-.24,1.6-.06.61-.2,1.2-.36,1.79-.12.45-.24.9-.37,1.35-.2.69-.34,1.38-.37,2.11-.04.82-.19,1.64-.53,2.41-.28.66-.49,1.35-.77,2-.46,1.09-.84,2.21-1.41,3.25-.75,1.35-1.41,2.73-2.06,4.14-.64,1.4-1.37,2.75-2.24,4.03-.45.66-.94,1.26-1.48,1.84-.4.42-.87.76-1.36,1.05-.63.36-1.28.65-1.91.97-1.12.57-2.23,1.15-3.38,1.65-.6.25-1.18.52-1.82.65-.25.05-.48.13-.65.34s-.38.31-.65.32c-.18,0-.36.05-.53.06-.83.05-1.62.22-2.39.55-.42.18-.89.26-1.36.31-1.36.17-2.72.1-4.09.13-.18,0-.36-.02-.53-.06-1.61-.35-3.22-.7-4.69-1.52-.25-.14-.52-.25-.78-.35-.24-.1-.45-.23-.65-.37-.91-.64-1.82-1.26-2.86-1.68-.6-.24-1.14-.58-1.53-1.14-.16-.23-.4-.41-.63-.59-.34-.26-.69-.53-1.05-.76-.38-.24-.67-.54-.82-.96-.22-.58-.54-1.09-.91-1.58-.23-.3-.36-.61-.41-.97-.04-.29-.07-.57-.19-.83-.35-.78-.54-1.62-.77-2.45-.04-.13-.08-.28-.07-.42.02-1.07-.16-2.14-.06-3.22.02-.29.02-.58-.01-.85-.13-.89-.12-1.78-.16-2.67-.04-.76-.02-1.5.1-2.25.06-.35.05-.71.08-1.07.07-.6.14-1.2.24-1.8.04-.2.14-.41.24-.59.17-.31.37-.61.54-.93,1.06-2.13,2.38-4.09,3.8-5.98.28-.37.6-.7,1.03-.93.29-.14.54-.35.79-.54,1.14-.89,2.45-1.47,3.8-1.97.37-.13.75-.26,1.11-.4,1.14-.42,2.3-.78,3.52-.91.57-.06,1.13-.16,1.67-.36.77-.3,1.56-.53,2.41-.51.34,0,.64-.1.87-.36.16-.17.36-.23.58-.24.85-.06,1.72-.06,2.57-.23.17-.04.36,0,.54,0,.07,0,.13-.02.2-.05.1-.02.13-.07.1-.16-.11-.26-.26-.52-.3-.78-.05-.31,0-.64.01-.96v-.11c.08-1.11.18-2.21.12-3.33-.05-.89-.11-1.79-.17-2.68-.02-.4-.04-.79-.07-1.18-.17-1.74-.37-3.49-.53-5.25-.11-1.18-.42-2.32-.67-3.48-.02-.1-.12-.19-.24-.18-.29.01-.57.04-.85.07-.4.05-.78.11-1.18.14-.54.04-1.07.11-1.6.2-.67.12-1.32.31-2.02.3-.14,0-.28.05-.42.07-.71.12-1.42.24-2.12.35-.53.08-1.07.13-1.6.24-1.37.25-2.75.51-4.11.82-1.36.31-2.69.76-3.93,1.42-.57.3-1.13.61-1.71.91-1.66.84-3.33,1.68-4.97,2.57-1.52.82-3.02,1.65-4.43,2.63-.85.6-1.64,1.29-2.37,2.02-.43.43-.83.89-1.24,1.35-.36.4-.67.82-.9,1.32-.23.52-.53,1.02-.81,1.52-.11.18-.24.36-.37.53-.43.57-.89,1.12-1.31,1.71-.59.82-1.14,1.65-1.56,2.56-.11.23-.23.45-.34.67-.52.99-.94,2.01-1.22,3.09-.17.66-.36,1.31-.6,1.95-.18.48-.32.94-.3,1.46.01.32,0,.65,0,.96.02,1.72.05,3.44.06,5.16,0,.36,0,.72-.05,1.07-.12.64-.12,1.29-.16,1.92-.02.47,0,.94-.07,1.4-.11.76-.06,1.5.1,2.25.11.49.14.99.13,1.49-.04,1.9.16,3.8.28,5.69,0,.14.02.29.06.42.17.63.28,1.25.49,1.86.18.51.3,1.03.37,1.56.13,1,.37,1.97.7,2.92.1.28.14.55.22.83.29,1.15.71,2.25,1.29,3.3.67,1.23,1.41,2.41,2.17,3.59.59.91,1.29,1.72,2.12,2.42.17.14.34.28.48.42,1.06,1.03,2.18,1.99,3.52,2.62.16.07.3.19.46.28.84.48,1.72.9,2.66,1.17,1.62.46,3.25.91,4.86,1.37.13.04.28.06.42.08.95.2,1.89.41,2.84.61.91.19,1.82.38,2.73.58.77.17,1.54.35,2.31.48,1.13.19,2.25.45,3.39.55.71.07,1.43.11,2.14.2,1.22.16,2.43.18,3.65.22.89.04,1.79.06,2.68-.05.78-.1,1.56-.19,2.35-.32.88-.14,1.76-.34,2.65-.49.93-.17,1.79-.48,2.65-.85.36-.16.72-.32,1.08-.48,1.25-.53,2.5-1.07,3.68-1.76.59-.35,1.18-.7,1.8-.96.9-.38,1.71-.9,2.53-1.42.18-.11.36-.23.55-.34.94-.53,1.79-1.19,2.6-1.9.7-.61,1.4-1.23,2.08-1.86.66-.61,1.29-1.25,1.73-2.03.3-.53.63-1.05.93-1.58.53-.89,1.02-1.8,1.46-2.75.2-.46.45-.9.65-1.36.51-1.11,1.03-2.2,1.41-3.37.24-.75.45-1.52.85-2.2.11-.18.14-.4.22-.6.29-.89.57-1.78.85-2.66.11-.34.2-.69.35-1.01.37-.85.7-1.72.78-2.67.04-.42.17-.84.26-1.26.04-.14.08-.28.1-.42.05-.76.26-1.48.37-2.23.1-.75.31-1.47.31-2.24,0-.18.06-.35.08-.53.05-.32.12-.64.12-.96,0-1.05.24-2.06.28-3.1.04-.93.23-1.85.34-2.77.12-1,.26-1.99.29-3,.02-.78.11-1.58.23-2.36.17-1.13.28-2.27.36-3.42.13-1.97.3-3.93.51-5.89.07-.67.13-1.36.13-2.03,0-1.5-.01-3.01-.02-4.52,0-1.54-.05-3.08-.13-4.62-.06-1.14-.11-2.3-.24-3.43-.05-.36-.06-.71-.08-1.07-.12-2.05-.24-4.08-.36-6.12-.01-.29-.07-.57-.12-.85-.04-.22-.1-.42-.1-.64,0-.51-.12-1-.29-1.47-.26-.73-.22-1.48-.19-2.23.01-.38.2-.67.47-.93.13-.12.28-.23.42-.34.34-.24.64-.25,1-.02.14.1.31.2.41.34.32.45.75.77,1.19,1.08.47.34.93.67,1.4,1.01.46.35.91.69,1.35,1.07.61.55,1.26,1.07,1.96,1.5.58.36,1.17.71,1.73,1.08,1.37.88,2.86,1.49,4.42,1.94.72.2,1.44.41,2.18.6,2.6.71,5.21,1.32,7.87,1.77.82.13,1.64.23,2.45.28.32.01.65.04.96.07.9.08,1.79-.05,2.66-.3.2-.06.31-.2.29-.4-.07-.49-.14-1-.24-1.49-.05-.25-.05-.49-.04-.75.02-.51.04-1,.04-1.5-.02-1.36-.05-2.72-.08-4.09v-.1Z"/>
</svg>