<?xml version="1.0" encoding="UTF-8"?>
<svg id="Layer_1" data-name="Layer 1" xmlns="http://www.w3.org/2000/svg" viewBox="0 0 128 128">
  <defs>
    <style>
      .cls-1 {
        stroke: #000;
        stroke-miterlimit: 10;
        stroke-width: 2px;
      }
    </style>
  </defs>
  <path class="cls-1" d="M9.89,19.01c.18.06.36.15.47.32.23.31.46.63.68.94.02.03.05.08.06.14.05.32.25.57.42.84.39.59.8,1.15,1.18,1.73.22.34.47.67.77.96.21.21.38.44.57.65.23.25.45.52.69.73,1.11,1,2.25,1.99,3.42,2.91.34.28.69.53,1.06.77.26.17.52.36.76.55.77.63,1.54,1.25,2.3,1.89.54.45,1.04.93,1.57,1.4.6.53,1.25,1,1.89,1.46.22.15.46.28.69.4.14.08.28.07.42.06.23-.02.42.05.6.21.33.29.72.49,1.1.69,1.09.59,2.23,1.06,3.42,1.38.47.13.92.31,1.4.36.17.01.32.11.45.23.36.3.81.41,1.18.7.03.03.08.06.13.06.42.06.76.31,1.1.53.52.33,1.09.52,1.66.7.25.08.5.18.76.24.47.11.94.23,1.41.31.28.05.52.1.73.28.16.13.34.17.53.23.54.15,1.08.29,1.61.42.07.02.14.06.21.06.36,0,.64.15.93.36.17.13.39.18.6.25.32.11.64.21.96.31.09.03.18.08.28.09.8.09,1.55.37,2.33.54.61.14,1.23.24,1.85.37.45.09.9.21,1.34.32.16.03.32.1.49.13.33.06.65.15.98.25.6.18,1.23.26,1.86.29.24,0,.47.03.71.1.41.14.85.2,1.29.2.33,0,.68,0,1.01.08.24.06.48.02.72-.02.07-.01.16-.05.18-.09.17-.29.39-.21.62-.08.15.08.31.15.46.23.2.1.37.07.56,0,.25-.11.46-.29.59-.53.25-.53.48-1.06.7-1.6.2-.47.34-.95.4-1.47.01-.11.05-.24.1-.34.25-.45.36-.95.45-1.45.09-.49.18-1,.18-1.51,0-.14.02-.3.08-.42.23-.44.36-.91.5-1.35.18-.55.37-1.1.5-1.66.1-.45.25-.88.48-1.29.47-.81.86-1.68,1.26-2.52.44-.94.88-1.88,1.26-2.86.05-.1.11-.22.2-.3.56-.55.99-1.18,1.27-1.92.02-.05.03-.09.07-.13.49-.68.88-1.45,1.48-2.05.32-.32.6-.7.87-1.07.17-.23.34-.47.56-.67.84-.73,1.58-1.56,2.34-2.38.34-.38.75-.69,1.16-.99.62-.42,1.23-.86,1.79-1.37.41-.37.87-.7,1.35-.96.98-.53,1.95-1.07,3.01-1.43.41-.15.83-.28,1.25-.36.93-.18,1.85-.36,2.78-.52.24-.05.48-.03.72-.07.99-.13,1.97-.15,2.97-.13.61.02,1.2-.09,1.8-.21.68-.14,1.34-.13,2.02,0,.95.17,1.88.41,2.8.71.69.22,1.38.46,2.07.69.46.15.92.3,1.39.42.63.17,1.23.42,1.82.7.67.3,1.31.63,1.97.92.83.36,1.57.85,2.32,1.34.4.26.79.55,1.2.8.22.14.38.3.4.56,0,.05.02.1.05.14.05.05.1.1.17.13.24.06.48.05.72,0,.45-.09.9-.2,1.32-.38.09-.03.18-.07.26-.11.5-.33,1.07-.57,1.55-.93.11-.09.23-.17.34-.26.22-.2.44-.38.7-.5.13-.06.25-.15.36-.24.3-.25.63-.45.95-.65.41-.26.81-.52,1.26-.7.24-.1.48-.23.71-.36.47-.24.99-.39,1.48-.56.5-.18,1.03-.26,1.56-.32.26-.03.53-.08.78-.14.57-.13,1.15-.14,1.73-.13.41.01.83.01,1.22-.14.15-.06.29-.02.42.03.25.1.48.22.62.47.09.16.11.32.06.48-.03.11-.08.23-.16.32-.16.18-.26.39-.36.61-.4.96-.67,1.97-.86,3-.11.6-.33,1.16-.6,1.7-.08.15-.16.3-.23.46-.32.85-.86,1.56-1.48,2.21-.17.17-.33.34-.49.53-.3.32-.61.62-.98.87-.16.11-.31.23-.44.38-.45.55-.98,1.01-1.51,1.46-.38.31-.69.68-1.03,1.02-.01.01,0,.06,0,.07.03.02.08.07.11.06.21-.05.42-.1.63-.17.53-.17,1.04-.38,1.58-.49.14-.03.28-.08.41-.15.44-.21.86-.44,1.31-.62.42-.17.83-.39,1.22-.63.45-.28.92-.53,1.38-.79.46-.26.91-.55,1.37-.81.13-.07.25-.14.39-.2.37-.18.75-.36,1.11-.53.13-.07.24-.15.37-.23.11-.08.23-.17.36-.25.42-.26.93-.13,1.19.3.03.06.07.13.1.2.09.17.08.36-.02.48-.34.37-.4.88-.68,1.27-.02.03-.05.09-.06.14-.24.9-.63,1.72-.91,2.62.05.07.08.16.14.24.16.22.16.46.09.69-.1.3-.2.6-.39.85-.06.07-.11.16-.15.24-.13.32-.33.59-.56.83-.13.14-.21.32-.3.49-.16.32-.31.65-.57.92-.03.03-.06.08-.08.11-.25.48-.63.85-1.01,1.23-.15.15-.3.32-.42.49-.25.38-.56.72-.86,1.08-.16.18-.3.38-.46.56-.17.21-.33.41-.54.59-.52.45-.95.95-1.37,1.5-.17.23-.38.44-.56.67-.33.42-.54.91-.77,1.39-.21.45-.24.93-.34,1.4-.11.56-.22,1.14-.34,1.7-.06.29-.16.55-.32.8-.15.25-.26.52-.41.77-.08.14-.1.26-.1.41.03,1.48-.08,2.95-.06,4.43,0,.07.01.15,0,.22-.09.65-.07,1.31-.08,1.95,0,.13-.01.24-.03.36-.1.69-.15,1.4-.22,2.09-.08.7-.14,1.4-.21,2.09-.02.26-.06.53-.09.79-.02.22-.06.44-.06.65,0,.85-.07,1.7,0,2.54,0,.15-.01.29-.07.42-.18.46-.24.93-.23,1.42,0,.24-.03.48-.06.72-.02.17-.08.33-.2.46-.17.18-.24.41-.31.65-.49,1.64-1.07,3.26-1.65,4.88-.11.32-.21.64-.32.96-.38,1.12-.84,2.21-1.33,3.29-.64,1.41-1.32,2.8-2.09,4.14-.67,1.18-1.41,2.31-2.13,3.45-.24.39-.53.76-.79,1.12-.41.56-.83,1.14-1.18,1.74-.17.29-.4.54-.62.8-.49.6-1,1.18-1.5,1.77-.08.09-.14.2-.21.3-.05.08-.09.17-.15.25-.39.49-.78.99-1.16,1.48-.09.11-.17.23-.25.34-.22.29-.44.57-.67.86-.53.67-1.06,1.32-1.57,2-.33.45-.63.92-.96,1.37-.2.28-.4.55-.64.78-.46.44-.83.95-1.2,1.45-.32.42-.67.84-1.04,1.2-.68.65-1.31,1.37-2.03,1.97-.45.38-.88.76-1.3,1.17-.11.11-.24.23-.36.37-.21.24-.44.46-.69.64-.63.45-1.19.99-1.78,1.48-.17.14-.33.28-.52.4-.29.21-.6.16-.9.01-.08-.03-.11-.15-.17-.22-.11-.16-.22-.2-.36-.09-.39.29-.78.56-1.18.85-.23.17-.47.34-.7.52-1.55,1.16-3.22,2.13-4.92,3.05-.22.11-.44.22-.63.34-.72.48-1.49.9-2.25,1.33-.46.26-.91.55-1.35.84-.52.32-1.04.62-1.62.81-.57.21-1.1.5-1.62.83-.21.13-.41.25-.62.39-.44.28-.88.48-1.38.64-.39.13-.78.26-1.16.41-.4.16-.8.34-1.18.56-.21.11-.41.11-.62-.02-.1-.07-.23-.13-.29-.22-.16-.29-.38-.25-.62-.17-.78.24-1.56.5-2.35.73-.72.22-1.41.5-2.15.68-.26.06-.52.1-.78.16-.52.11-1.03.24-1.55.39-.72.21-1.45.4-2.19.47-.33.03-.67.13-.98.25-.45.18-.93.26-1.41.31-.46.03-.91.14-1.35.23-.99.23-1.99.41-3,.56-.09.01-.2.03-.29.03-1.02.05-2.02.18-3.03.29-.15.01-.29.01-.44.02-.7.01-1.4.07-2.1.13-.84.08-1.69.11-2.54.18-.77.06-1.55.11-2.32.18-.39.03-.77.05-1.16,0-.77-.07-1.55-.13-2.32-.17-.53-.03-1.07-.03-1.6-.03-1.26,0-1.71.04-3.03.04-.91,0-1.82,0-2.73-.02-.25,0-.5-.04-.75-.06-.14,0-.28-.03-.42-.04-.86-.06-1.71-.14-2.55-.31-.57-.12-1.16-.22-1.73-.34-.4-.08-.78-.2-1.17-.31-1.61-.4-3.21-.83-4.78-1.34-.51-.16-1.66-.49-2.18-.61-.41-.1-.83-.25-1.23-.42-1.03-.42-2.05-.86-3.04-1.34-.8-.38-1.62-.67-2.43-1.02-.21-.09-.55-.27-.75-.38-.41-.23-.85-.42-1.32-.54-.14-.04-.3-.1-.42-.18-.32-.25-.71-.38-1.08-.54-.22-.08-.42-.18-.62-.26-.42-.18-.85-.32-1.32-.32-.02,0,.63,0,.61,0-.24-.03-.4-.17-.4-.43,0-.18-.07-.32-.16-.46-.17-.25-.16-.53.02-.74.09-.11.2-.22.31-.31.05-.05.13-.06.2-.07h.11c.49.07.96-.06,1.41-.18.4-.11.79-.21,1.19-.29.33-.07.67-.09.96-.29.03-.02.09-.05.14-.06.82-.16,1.61-.48,2.46-.51.19,0,.38-.07.57-.1.73-.15,1.47-.21,2.2-.38.18-.05.38-.05.57-.06.48,0,.96-.03,1.44-.09.24-.03.48-.06.72-.06.79,0,1.52-.22,2.25-.44.46-.14.91-.31,1.37-.47.11-.03.23-.08.34-.11.88-.18,1.7-.54,2.53-.84.34-.13.67-.24,1.03-.35.68-.22,1.38-.42,2.06-.65.41-.14.81-.31,1.21-.47.18-.07.35-.16.54-.22.81-.24,1.55-.65,2.29-1.04.1-.06.22-.11.31-.19.65-.54,1.37-.98,2.06-1.45.42-.29.82-.59,1.23-.89.52-.38,1.09-.68,1.68-.98.36-.18.71-.41,1.04-.64.19-.14.23-.29-.06-.42-.41-.19-.82-.41-1.25-.54-.98-.29-1.87-.75-2.75-1.25-.1-.06-.21-.14-.31-.18-1.25-.62-2.43-1.37-3.54-2.21-.51-.27-.96-.64-1.38-1.04-.84-.79-1.69-1.57-2.49-2.41-.91-.96-1.78-1.96-2.63-2.97-.16-.18-.31-.36-.44-.57-.51-.75-1.08-1.47-1.62-2.21-.71-.97-1.38-1.96-1.93-3.03-.23-.44-.51-.87-.75-1.31-.15-.25-.27-.5-.41-.76-.15-.27-.27-.56-.43-.83-.57-.98-1.06-2-1.61-2.99-.27-.5-.51-1.03-.74-1.56-.26-.62-.58-1.21-.9-1.8-.33-.62-.62-1.24-.82-1.92-.1-.34-.24-.67-.4-1-.25-.49-.49-.99-.71-1.49-.14-.31-.22-.64-.33-.96-.1-.32-.21-.64-.3-.96-.1-.38-.25-.72-.42-1.07-.14-.29-.24-.58-.32-.88-.19-.74-.47-1.46-.75-2.18-.13-.33-.25-.67-.38-1.01-.11-.32-.25-.62-.42-.91-.22-.38-.4-.76-.44-1.21-.03-.31-.17-.59-.32-.88-.23-.42-.46-.84-.68-1.27-.05-.08-.07-.18-.08-.27-.02-.27.06-.42.29-.52.4-.17.8-.34,1.22-.43.05,0,.09-.02.14-.03.4-.11.8-.15,1.21-.14,1.23.01,2.45,0,3.68-.01h1.89c.22,0,.44-.01.65-.02.09,0,.15-.13.09-.22-.06-.1-.11-.21-.18-.31-.14-.23-.29-.45-.42-.68-.06-.1-.1-.22-.16-.32-.16-.36-.3-.71-.48-1.06-.4-.75-.77-1.5-1.12-2.27-.14-.31-.28-.62-.49-.88-.13-.15-.2-.33-.24-.52-.23-.81-.6-1.58-1-2.33-.22-.39-.38-.78-.42-1.22-.02-.14-.05-.29-.1-.41-.29-.72-.59-1.43-.88-2.15-.15-.36-.31-.71-.41-1.08-.13-.42-.42-.77-.48-1.2-.06-.41-.21-.79-.32-1.18-.14-.44-.29-.87-.44-1.31-.05-.14-.09-.28-.16-.4-.15-.26-.22-.53-.22-.83,0-.44-.13-.86-.28-1.27-.08-.21-.13-.41-.09-.63.06-.33.03-.67-.05-1.01-.09-.34-.14-.71-.2-1.07-.05-.26-.05-.53.01-.79.05-.22.05-.42.03-.65-.02-.41-.02-.83.05-1.23,0-.05.02-.09.02-.15.01-.63.14-1.25.2-1.87.06-.61.17-1.19.29-1.79.01-.07.02-.15.06-.21.24-.5.46-1.01.72-1.5.33-.65.84-1.18,1.31-1.73.06-.07.16-.15.17-.23.02-.38.31-.45.6-.53.02,0,.05,0,.07-.01l.03.07ZM102,18.22v-.05.03s.06,0,.06.03c-.01,0-.03-.01-.05-.01h-.01ZM102.19,18.52l.03-.05-.02.03s.09.1.15.15c.03.03.07.06.11.07.03,0,.09,0,.11-.02.05-.03.02-.08-.02-.11-.11-.11-.24-.14-.37-.07ZM123.32,26.49c-.17.11-.3.21-.45.29s-.31.13-.46.21c-.17.09-.33.21-.49.31-.13.08-.24.17-.37.24-.34.18-.67.39-1.01.57-.36.21-.76.32-1.14.47-.07.02-.13.07-.19.09-1.03.42-2.09.77-3.16,1.04-.49.13-1,.15-1.5.22-.31.05-.63.07-.94.07h-1.81c-.19,0-.39-.01-.57-.05-.34-.06-.55-.31-.68-.6-.09-.19-.1-.42-.13-.63-.02-.15.03-.31.17-.37.37-.16.63-.45.88-.73.19-.22.4-.41.68-.54.37-.18.69-.45.97-.75.56-.57,1.12-1.12,1.62-1.77.17-.23.36-.46.56-.67.22-.23.42-.46.62-.71.26-.34.57-.65.85-.99.44-.25.7-.67.94-1.08.05-.08.09-.17.17-.23.48-.4.77-.92.97-1.5.09-.25.22-.48.41-.68.18-.19.31-.42.4-.69.13-.39.26-.78.38-1.17.06-.18.07-.38.01-.57-.03-.13-.14-.22-.26-.19-.4.08-.8.16-1.2.25-1.09.24-2.13.61-3.15,1.07-.5.23-1.01.46-1.44.81-.06.05-.11.09-.18.11-.52.18-.92.54-1.32.88-.07.06-.15.13-.24.16-.49.21-.93.5-1.39.78-.13.07-.25.15-.39.17-.71.15-1.38.44-2.09.61-.39.09-.39.11-.89.05-.15-.01-.29-.02-.44-.01-.41,0-.83,0-1.23.02-.32.02-.63-.02-.89-.21-.29-.19-.61-.29-.93-.39-.16-.05-.32-.1-.48-.14-.17-.05-.32-.11-.45-.24-.16-.15-.34-.25-.54-.36-.28-.14-.54-.31-.81-.47-.05-.02-.07-.06-.1-.09-.33-.36-.78-.57-1.17-.85-.11-.08-.24-.16-.37-.24-.32-.21-.62-.45-.99-.6-.29-.11-.55-.29-.83-.44-.3-.15-.61-.3-.91-.44-.6-.26-1.16-.47-1.7-.6-.56-.13-1.14-.21-1.69-.41-.05-.02-.09-.02-.14-.03-.47-.08-.94-.23-1.42-.29-.33-.05-.67-.11-.99-.22-.33-.1-.67-.14-1-.13-.37,0-.72.03-1.09.02-.71-.03-1.4.07-2.06.29-.16.06-.32.1-.49.09-.24-.01-.48.05-.71.13-.28.09-.55.17-.83.26-.41.13-.83.29-1.26.32-.37.03-.71.15-1.04.26-.44.15-.86.32-1.31.44-.54.15-1.05.34-1.52.64-.1.06-.21.11-.32.15-.61.18-1.16.48-1.7.8-.18.1-.37.24-.56.32-.63.26-1.18.64-1.69,1.11-.07.07-.15.13-.23.17-.93.54-1.73,1.23-2.44,2.03-.07.07-.13.15-.19.21-.42.39-.86.78-1.28,1.18-.1.1-.21.21-.31.31-.22.23-.33.53-.53.78-.19.24-.46.42-.67.65-.19.22-.34.46-.52.7-.08.11-.14.25-.23.37-.29.33-.47.73-.65,1.12-.42.92-.81,1.86-1.28,2.76-.16.3-.26.62-.4.93-.15.36-.29.72-.46,1.07-.4.8-.77,1.62-1,2.48-.02.09-.07.18-.09.28-.33,1.03-.67,2.06-.92,3.13-.15.61-.28,1.23-.46,1.82-.28.93-.55,1.85-.83,2.77-.05.16-.1.32-.17.48-.16.38-.32.76-.38,1.17-.01.13-.09.22-.18.3-.06.05-.1.1-.17.14-.33.22-.61.48-.72.87-.01.05-.05.09-.07.13-.1.17-.24.3-.42.37s-.37.1-.56.11c-.22,0-.44.02-.64.1-.56.23-1.16.31-1.75.45-.09.02-.19,0-.29-.02-.07-.01-.14-.05-.21-.08-.26-.09-.52-.08-.77.05-.02,0-.05.02-.07.03-.14.07-.29.07-.42,0-.36-.18-.73-.24-1.12-.26-.19,0-.38-.06-.57-.07-.87-.06-1.72-.19-2.57-.4-.83-.21-1.64-.42-2.44-.68-.69-.22-1.39-.42-2.09-.58-.38-.09-.75-.19-1.11-.32-1.2-.42-2.44-.77-3.7-.97-.26-.05-.54-.08-.77-.19-.53-.24-1.09-.39-1.65-.54-.81-.21-1.64-.42-2.43-.72-.36-.14-.72-.28-1.1-.36-.53-.11-1.02-.31-1.5-.54-.33-.15-.67-.29-1.01-.41-.34-.11-.68-.28-1.02-.37-.38-.1-.58-.41-.89-.6-.06-.03-.13-.08-.18-.11-.38-.21-.77-.41-1.15-.62-.36-.19-.75-.34-1.09-.58-.08-.06-.16-.1-.25-.14-.73-.25-1.41-.62-2.08-1.02-.13-.07-.25-.14-.38-.21-.56-.32-1.18-.55-1.71-.95-.09-.07-.22-.11-.32-.17-.5-.29-1.03-.52-1.49-.88-.13-.1-.28-.19-.44-.25-.26-.09-.46-.25-.68-.41-.37-.28-.72-.56-1.15-.76-.15-.07-.29-.18-.41-.3-.39-.33-.73-.7-1.16-.97-.06-.03-.11-.09-.16-.15-.48-.47-.97-.94-1.46-1.41-.34-.34-.68-.68-1.05-1-.7-.6-1.39-1.2-2.05-1.83-.1-.1-.23-.19-.36-.23-.3-.09-.49-.3-.68-.52-.11-.13-.21-.26-.31-.4-.33-.45-.7-.86-1.09-1.26-.64-.65-1.18-1.41-1.73-2.14-.06-.08-.09-.17-.14-.25-.25-.36-.5-.71-.76-1.07-.01-.02-.03-.03-.06-.05-.05,0-.1-.02-.14,0-.08.06-.15.11-.21.19-.52.68-.91,1.42-1.17,2.24-.08.25-.15.5-.24.76-.23.69-.38,1.4-.42,2.13,0,.17-.02.33-.05.5-.06.75-.02,1.49.11,2.24.06.33.11.67.11,1.01s.08.67.15,1c.14.71.32,1.41.36,2.14,0,.14.06.29.09.42.21.75.45,1.48.75,2.19.05.11.09.22.13.33.22.75.5,1.46.81,2.17.25.57.5,1.15.76,1.72.11.26.24.53.36.79.41.93.86,1.83,1.18,2.81.07.21.14.41.23.61.24.48.41.97.58,1.48.17.53.41,1.03.68,1.52.32.62.71,1.22.92,1.88.44.8.84,1.64,1.55,2.26.28.24.41.55.47.87.06.31.1.62.19.92.03.13,0,.24-.08.34s-.17.18-.29.21c-.19.03-.38.07-.57.07-.85.01-1.69,0-2.53.02-1.59.06-3.19.01-4.78-.06-.31-.01-.63,0-.94,0-.09,0-.19.02-.29.05-.09.01-.17.14-.15.22.03.14.06.3.13.41.25.45.42.92.62,1.39.06.14.1.28.18.39.26.36.4.77.64,1.14.5.78.78,1.65,1.08,2.52.13.37.25.73.39,1.09.15.38.32.76.46,1.15.17.48.38.94.64,1.38.21.36.44.7.62,1.07.54,1.03,1.04,2.08,1.58,3.1.38.72.78,1.44,1.19,2.16.34.61.71,1.2.96,1.87.18.47.4.93.68,1.36.24.37.41.77.58,1.17.48,1.14.95,2.27,1.58,3.34.11.18.19.39.32.56.69.94,1.39,1.87,2.06,2.8.21.28.44.52.75.67.28.14.46.36.53.65.06.3.24.53.44.75.44.48.87.96,1.3,1.47.56.67,1.17,1.28,1.81,1.87.78.72,1.56,1.44,2.35,2.16.23.21.48.4.73.58.71.55,1.43,1.08,2.12,1.64.44.36.91.65,1.39.92.65.36,1.33.69,2.01,1,.57.26,1.14.53,1.78.58.46.05.79.33.95.79.03.09.08.17.11.26.15.34.09.65-.14.95-.31.4-.68.76-1.05,1.09-.58.5-1.17,1.01-1.73,1.55-.32.31-.67.56-1.03.79-.49.31-.99.62-1.48.92-.39.23-.79.47-1.2.67-1.2.56-2.42,1.11-3.66,1.59-.45.17-.89.37-1.34.54-.47.18-.95.36-1.42.53-.5.18-1.01.34-1.5.53-.75.29-1.48.58-2.22.87-.95.37-1.93.64-2.91.86-.67.15-1.32.31-1.96.53-.46.16-.91.34-1.4.25-.05,0-.09,0-.15.01-.48.07-.96.13-1.43.23-.31.07-.62.09-.93.13-.53.05-1.07.08-1.58.15-.6.08-1.19.19-1.79.31-.31.06-.61.11-.92.17,0,.13.06.21.15.23.67.22,1.28.56,1.94.8.77.29,1.51.63,2.29.88.34.11.69.24,1.01.39.64.3,1.3.53,1.96.76.85.29,1.69.58,2.52.89.91.33,1.81.64,2.75.88,1.12.29,2.24.6,3.35.89.32.08.65.17.99.21.68.07,1.35.11,2.02.16.19.01.39,0,.58.03.65.1,1.31.08,1.95.09h1.31c.44,0,.87,0,1.31-.07.24-.03.48-.03.72,0,.31.05.62.07.94.08,1.16.02,2.32.05,3.47.06.48,0,.96-.03,1.44-.09.39-.05.77-.08,1.16-.09.44-.01.87-.02,1.31-.06.81-.07,1.64-.15,2.45-.23.17-.01.33-.02.5-.02.97,0,1.93-.13,2.89-.23.67-.07,1.32-.29,2.01-.26.21-.07.42-.07.64-.03.14.02.29.01.44,0,.22-.02.44-.02.65,0,.44.05.87-.01,1.3-.1.52-.1,1.03-.24,1.56-.36.89-.21,1.81-.33,2.67-.65.02,0,.05-.01.07-.02.89-.22,1.77-.52,2.64-.78.91-.28,1.8-.56,2.69-.86,1.01-.33,2.03-.64,3.02-1.03.83-.33,1.67-.62,2.52-.91.87-.3,1.73-.62,2.59-.93,1.27-.46,2.53-.95,3.82-1.38.14-.05.28-.1.4-.16,1.01-.47,2.05-.85,3.07-1.3.86-.38,1.72-.78,2.55-1.22.87-.46,1.71-1.01,2.58-1.47.86-.45,1.63-1.04,2.43-1.57.1-.07.17-.16.17-.3,0-.1.07-.18.15-.23.17-.09.33-.22.5-.28.4-.13.73-.37,1.07-.6.22-.15.42-.32.64-.48.88-.68,1.75-1.35,2.64-2.04.52-.4,1.05-.77,1.55-1.2.69-.61,1.42-1.17,2.12-1.75.96-.81,1.88-1.66,2.61-2.71.4-.57.83-1.14,1.3-1.65.14-.16.26-.34.37-.54.39-.67.81-1.32,1.28-1.93.26-.34.52-.7.73-1.08.28-.46.6-.88.95-1.27.5-.55.91-1.19,1.33-1.8.3-.44.53-.92.79-1.39.23-.42.44-.86.7-1.27.61-.93,1.23-1.85,1.86-2.77.49-.72.97-1.44,1.34-2.24.18-.38.38-.72.63-1.05.19-.25.36-.52.5-.8.7-1.33,1.32-2.68,1.87-4.08.28-.7.48-1.42.63-2.16.11-.55.23-1.09.39-1.62.21-.64.34-1.31.46-1.97.09-.5.16-1,.26-1.5.28-1.33.53-2.65.72-3.99.24-1.61.46-3.21.52-4.83,0-.19.03-.39.06-.57.08-.84.18-1.69.25-2.52.06-.7.08-1.4.16-2.1.11-.92.14-1.83.23-2.74.03-.44.06-.87.09-1.3.03-.41.07-.81.13-1.23.1-.69.22-1.39.15-2.09,0-.09,0-.19-.02-.29-.02-.28.05-.54.23-.75.22-.24.34-.53.45-.83.13-.34.29-.67.34-1.03.03-.19.14-.34.31-.48.13-.1.24-.24.33-.38.26-.4.54-.8.78-1.22.18-.3.4-.54.72-.69.21-.09.37-.23.52-.39.16-.18.32-.36.5-.53.3-.29.6-.56,1-.71.14-.05.25-.14.37-.23.39-.29.76-.6,1.15-.88.49-.36.92-.79,1.31-1.25.18-.21.31-.44.38-.7.05-.16.08-.33.1-.49.02-.17.07-.32.16-.47.19-.31.36-.63.41-1,.03-.19.1-.37.23-.53.18-.23.29-.5.36-.78.01-.06-.01-.14-.02-.24l-.03.09Z"/>
</svg>