<?xml version="1.0" encoding="UTF-8"?>
<svg id="Layer_1" data-name="Layer 1" xmlns="http://www.w3.org/2000/svg" viewBox="0 0 157 140">
  <defs>
    <style>
      .cls-1 {
        stroke-width: 1.25px;
      }

      .cls-1, .cls-2, .cls-3, .cls-4 {
        fill: none;
        stroke: #d0f0c0;
        stroke-miterlimit: 10;
      }

      .cls-2 {
        stroke-width: 5px;
      }

      .cls-3 {
        stroke-width: 2px;
      }

      .cls-5 {
        stroke-width: 0px;
      }

      .cls-5, .cls-6 {
        fill: #d0f0c0;
      }

      .cls-6 {
        font-family: PermanentMarker-Regular, 'Permanent Marker';
        font-size: 20px;
      }
    </style>
  </defs>
  <path class="cls-1" d="M49.1,49.19c-.72.45-1.53.66-2.32.66-1.45,0-2.88-.72-3.95-2.05l-3.95-6.32v30.24c0,2.42-1.96,4.38-4.38,4.38s-4.38-1.96-4.38-4.38v-19.69h-2.19v19.69c0,2.42-1.84,4.38-4.25,4.38s-4.38-1.96-4.38-4.38l.12-30.25-3.95,6.31c-1.28,2.05-3.98,2.67-6.03,1.39-2.05-1.28-2.67-3.98-1.39-6.03l9.65-15.44c1.61-2.58,4.38-4.11,7.42-4.11h8.29c3.04,0,5.81,1.54,7.42,4.22l9.65,15.33c1.29,2.05.66,4.76-1.39,6.03ZM22.72,12.67c0-3.62,2.94-6.56,6.56-6.56s6.56,2.94,6.56,6.56-2.94,6.56-6.56,6.56-6.56-2.94-6.56-6.56Z"/>
  <g>
    <path class="cls-4" d="M17.51,97.48c-.33,1.7-.55,3.07-.65,4.11l-.27,2.73c-.12,1.04-.27,1.94-.45,2.71l4.29,2.19c1.7.86,3.16,1.53,4.37,2,.33.13.56.33.7.59.17.3.2.63.1.97-.1.34-.3.6-.6.76-.27.15-.59.18-.95.08-.81-.21-1.74-.6-2.79-1.15l-2.67-1.44-3.03-1.51-1.37,6.35-.78,3.32c-.11.37-.31.63-.6.79s-.62.19-.96.09-.6-.3-.77-.61c-.14-.26-.18-.56-.12-.89l.76-3.24,1.49-6.93c-1.37-.63-2.8-1.23-4.28-1.81l-2.19-1.02c-.88-.4-1.63-.67-2.26-.79-.44-.09-.75-.3-.93-.63-.16-.3-.2-.62-.12-.96.08-.35.28-.6.59-.77.61-.34,1.75-.11,3.42.68.54.28,1.33.66,2.38,1.14,1.36.53,2.68,1.09,3.97,1.68l.59-4.79c.39-3.11.82-4.79,1.29-5.05.3-.16.62-.19.96-.09.35.1.6.3.77.61.14.25.17.55.11.9Z"/>
    <path class="cls-4" d="M35.65,107.41c-2.04,1.11-4.1,1.44-6.18,1-2.21-.48-3.88-1.75-5-3.8-1.36-2.5-1.86-5.18-1.5-8.03.42-3.17,1.86-5.43,4.33-6.78s4.44-1.73,6.17-1.29c1.81.45,3.37,1.88,4.68,4.28s1.92,5.12,1.65,7.87c-.31,3.15-1.7,5.4-4.17,6.75ZM28.52,92.02c-1.77.97-2.79,2.67-3.05,5.1-.25,2.24.16,4.33,1.22,6.28.76,1.39,1.9,2.25,3.41,2.56,1.44.28,2.89.03,4.35-.77,1.76-.96,2.72-2.63,2.9-5.03.16-2.14-.31-4.19-1.38-6.17-.94-1.73-1.99-2.73-3.15-3.01-1.1-.27-2.53.07-4.29,1.03Z"/>
    <path class="cls-4" d="M51.29,79.05c-.33,1.7-.55,3.07-.65,4.11l-.27,2.73c-.12,1.04-.27,1.94-.45,2.71l4.29,2.19c1.7.86,3.16,1.53,4.37,2,.33.13.56.33.7.59.17.3.2.63.1.97-.1.34-.3.6-.6.76-.27.15-.59.18-.95.08-.81-.21-1.74-.6-2.79-1.15l-2.67-1.44-3.03-1.51-1.37,6.35-.78,3.32c-.11.37-.31.63-.6.79s-.62.19-.96.09c-.35-.1-.6-.3-.77-.61-.14-.26-.18-.56-.12-.89l.76-3.24,1.49-6.93c-1.37-.63-2.8-1.23-4.28-1.81l-2.19-1.02c-.88-.4-1.63-.67-2.26-.79-.44-.09-.75-.3-.93-.63-.16-.3-.2-.62-.12-.96.08-.35.28-.6.59-.77.61-.34,1.75-.11,3.42.68.54.28,1.33.66,2.38,1.14,1.36.53,2.68,1.09,3.97,1.68l.59-4.79c.39-3.11.82-4.79,1.29-5.05.3-.16.62-.19.96-.09.35.1.6.3.77.61.14.25.17.55.11.9Z"/>
    <path class="cls-4" d="M69.43,88.98c-2.04,1.11-4.1,1.44-6.18,1-2.21-.48-3.88-1.75-5-3.8-1.36-2.5-1.86-5.18-1.5-8.03.42-3.17,1.86-5.43,4.33-6.78s4.44-1.73,6.17-1.29c1.81.45,3.37,1.88,4.68,4.28s1.92,5.12,1.65,7.87c-.31,3.15-1.7,5.4-4.17,6.75ZM62.3,73.59c-1.77.97-2.79,2.67-3.05,5.1-.25,2.24.16,4.33,1.22,6.28.76,1.39,1.9,2.25,3.41,2.56,1.44.28,2.89.03,4.35-.77,1.76-.96,2.72-2.63,2.9-5.03.16-2.14-.31-4.19-1.38-6.17-.94-1.73-1.99-2.73-3.15-3.01-1.1-.27-2.53.07-4.29,1.03Z"/>
  </g>
  <path class="cls-5" d="M147.03,34.33c0,9.99-5.47,18.38-13.7,21.1-1.57.62-3.27.97-5.05.97-5.07,0-9.78-2.85-12.16-7.38-4.23,3.9-5.37,8.36-5.39,8.45-.21.86-.97,1.44-1.82,1.44-.14,0-.29-.02-.44-.05-1.01-.24-1.63-1.26-1.39-2.26.75-3.09,7.07-17.69,26.2-17.69.69,0,1.25-.56,1.25-1.25s-.56-1.25-1.25-1.25c-8.39,0-14.45,2.7-18.73,5.91.02-.85.1-1.71.28-2.58,1.05-5.14,5.16-9.3,10.27-10.48,2.21-.51,4.35-.47,6.32,0,4.38,1.04,9.23-.58,11.66-4.78.44-.77,1.56-.74,1.93.06,1.3,2.88,2.02,6.4,2.02,9.8Z"/>
  <path class="cls-2" d="M89.76,28.53l-15.09,15.6c-.99,1.02-2.6,1.02-3.59,0l-15.09-15.6c-4.38-4.53-4.14-12.02.71-16.22,4.24-3.67,10.73-3,14.63,1.02l1.54,1.58,1.54-1.58c3.9-4.03,10.32-4.7,14.63-1.02,4.85,4.2,5.09,11.69.71,16.22Z"/>
  <path class="cls-3" d="M77.16,61.44c0-6.38,5.11-11.56,11.42-11.56s11.42,5.17,11.42,11.56-5.11,11.56-11.42,11.56-11.42-5.17-11.42-11.56ZM84.48,64.58c-.26-.3-.71-.33-1.01-.07s-.33.72-.07,1.02c.99,1.16,2.72,2.42,5.14,2.42s4.22-1.26,5.22-2.42c.26-.3.23-.76-.07-1.02s-.75-.23-1.01.07c-.8.93-2.16,1.92-4.14,1.92s-3.26-.98-4.06-1.92ZM85.03,57.83c-.79,0-1.43.65-1.43,1.44s.64,1.44,1.43,1.44,1.43-.65,1.43-1.44-.64-1.44-1.43-1.44ZM92.17,60.72c.79,0,1.43-.65,1.43-1.44s-.64-1.44-1.43-1.44-1.43.65-1.43,1.44.64,1.44,1.43,1.44Z"/>
  <text class="cls-6" transform="translate(103 18.03)"><tspan x="0" y="0">LIVE</tspan></text>
  <path class="cls-3" d="M149,86.29c0,5.34-2.07,10.1-5.5,13.65-2.09,2.22-5.35,6.86-6.59,10.78,0,.03-.01.06-.02.09h-20.23s-.01-.06-.02-.09c-1.25-3.92-4.51-8.56-6.59-10.78-3.42-3.65-5.5-8.42-5.5-13.65,0-10.86,9.35-20.6,22.22-20.64,12.27,0,22.22,9.29,22.22,20.64ZM142.94,86.29c0-8.22-7.25-14.98-16.28-14.98-9.98.03-16.05,7.7-16.05,14.98,0,3.65,1.42,7.27,4,10.02,1.98,2.1,4.42,5.46,6.19,8.94h11.95c1.77-3.49,4.22-6.84,6.19-8.95,2.58-2.75,3.99-6.36,3.99-10.02ZM126.78,76.97c0,1.04-.9,1.88-2.02,1.88-3.34,0-6.06,2.54-6.06,5.66,0,1.04-.9,1.89-2.02,1.89s-2.02-.84-2.02-1.89c0-5.2,4.53-9.43,10.1-9.43,1.11,0,2.02.84,2.02,1.89ZM116.67,114.58h20.2l-.02,4.62c0,.63-.3,1.56-.67,2.09l-2.16,3.03c-.66.93-2.17,1.68-3.36,1.68h-7.79c-1.2,0-2.7-.75-3.36-1.68l-2.16-3.03c-.44-.62-.67-1.34-.67-2.09v-4.62Z"/>
  <path class="cls-3" d="M92.03,124.28c0,3.8-3.69,6.88-8.17,6.88s-8.17-3.08-8.17-6.8,3.69-6.8,8.17-6.8c.97,0,1.89.17,2.75.42v-12.52l-22,6.52v17.88c-.08,3.79-3.7,6.87-8.33,6.87s-8.17-3.08-8.17-6.88,3.69-6.8,8.17-6.8c.97,0,1.89.17,2.75.42v-19.88c0-1.11.86-2.29,1.93-2.62l27.42-8.12c.3-.07.75-.13.98-.13,1.52,0,2.75,1.23,2.75,2.75l-.08,28.8Z"/>
</svg>