<?xml version="1.0" encoding="UTF-8"?>
<svg id="Layer_1" data-name="Layer 1" xmlns="http://www.w3.org/2000/svg" viewBox="0 0 128 128">
  <defs>
    <style>
      .cls-1 {
        stroke-width: 0px;
      }
    </style>
  </defs>
  <path class="cls-1" d="M47.38,6.95c3.71-.09,6.86-.07,10.02,0,.95.02,1.89.07,2.84.17.98.11,1.99.07,2.98.08.61,0,1.2.02,1.81.1.73.1,1.47.11,2.2.12,1.56.03,3.11.03,4.67.05,1.9.03,3.8.12,5.7.18,1.47.05,2.94.04,4.41-.02.86-.03,1.71-.22,2.58-.22.56,0,1.12,0,1.69-.02,1.25-.04,2.5-.16,3.73-.37.55-.1,1.13-.04,1.64-.34.1-.06.25-.03.38-.04.51-.05,1.04-.05,1.54-.17.97-.22,1.97-.19,2.95-.36.66-.12,1.29.02,1.92.17.12.03.25.08.35.15.29.19.59.37.86.58,1.09.88,1.53,2.02,1.31,3.44-.09.6-.05,1.21-.01,1.8.06,1.03.16,2.06,0,3.1-.03.17,0,.34.01.52.01.43.03.86.04,1.29,0,.09,0,.17.01.26.09.6.23,1.19.28,1.79.05.56-.03,1.12.09,1.68.25,1.11.29,2.23.23,3.35-.05.82-.02,1.64.01,2.46.06,1.17.15,2.33.29,3.48.05.43.1.86,0,1.29-.02.08-.04.18-.02.26.23,1.11.05,2.24.17,3.35.05.47.05.95.05,1.42.02.91.03,1.81.03,2.72,0,.82-.02,1.64-.05,2.46-.03.95-.05,1.9.03,2.85.06.69.03,1.38.02,2.07-.02,1.21-.11,2.41-.11,3.62,0,1.08-.15,2.15-.21,3.23-.06.99-.17,1.98-.04,2.97.02.17,0,.34-.03.51-.12.82-.09,1.64,0,2.46.03.26.06.53,0,.77-.13.6.02,1.2-.04,1.8-.05.55.01,1.12-.02,1.67-.1,1.99.15,3.97.28,5.95.11,1.73.17,3.45.03,5.18-.09,1.21-.04,2.42.1,3.62.17,1.43.06,2.85-.08,4.27-.06.6-.12,1.2-.18,1.8-.02.22-.03.43-.07.64-.25,1.15-.27,2.31-.27,3.48,0,.6-.02,1.2-.1,1.8-.02.13-.03.26-.04.39-.08,1.86-.13,3.71-.23,5.56-.07,1.25-.03,2.51-.25,3.75-.05.3-.05.6-.07.9-.03.73-.05,1.47-.25,2.19-.07.25-.06.51-.09.77-.12,1.16-.27,2.32-.36,3.48-.13,1.68-.18,3.37,0,5.05.08.68.11,1.37,0,2.06-.15.94-.16,1.89-.48,2.81-.13.37-.04.78.1,1.15.28.78.03,1.44-.41,2.06-.05.07-.11.13-.17.2-.62.76-1.35,1.26-2.39,1.38-1.03.12-2.05.24-3.08.11-.09-.01-.17-.02-.26,0-.87.14-1.71-.02-2.57-.12-.47-.05-.95-.03-1.42.03-1.94.24-3.88.26-5.82.12-1.12-.08-2.24-.1-3.37,0-1.2.11-2.43.17-3.63,0-.73-.1-1.46-.14-2.19-.19-1.03-.07-2.07-.1-3.1-.15-.17,0-.36-.04-.52,0-.77.22-1.55.12-2.32.04-.91-.09-1.81-.14-2.72-.07-.21.02-.43,0-.65-.01-.95-.04-1.9-.08-2.85-.12-.13,0-.28.05-.39,0-.71-.31-1.45-.11-2.17-.14-.73-.03-1.47-.02-2.2-.06-.73-.04-1.47.03-2.2-.13-1.21.07-2.4-.22-3.61-.18-.55.01-1.11-.12-1.67-.16-.56-.03-1.11-.13-1.68-.08-1.31-.26-2.67-.16-3.98-.44-.8-.17-1.61-.33-2.44-.29-.21.01-.43-.07-.64-.11-.38-.08-.76-.18-1.14-.24-1.43-.25-2.12-.49-3.26-1.16-.26-.15-.53-.28-.79-.44-1-.59-1.72-1.43-2.23-2.46-.13-.27-.25-.56-.43-.79-.49-.63-.76-1.35-.95-2.11-.14-.55-.35-1.07-.64-1.55-.34-.57-.49-1.2-.72-1.8-.04-.12-.08-.26-.05-.38.07-.31.03-.6-.1-.88-.05-.12-.11-.24-.12-.37-.02-.99-.26-1.96-.28-2.95-.01-.6.03-1.2.04-1.81,0-.3,0-.6-.04-.9-.12-.9-.18-1.8-.31-2.7-.1-.68-.13-1.38-.13-2.07,0-.69-.03-1.38-.1-2.07-.02-.17-.06-.34-.05-.52.03-1.35-.25-2.67-.37-4-.07-.77-.17-1.55-.23-2.32-.1-1.21-.24-2.41-.4-3.6-.05-.34-.05-.69-.09-1.03-.27-2.1-.51-4.21-.83-6.3-.13-.85-.14-1.72-.39-2.56-.08-1.34-.36-2.66-.35-4,0-.74-.06-1.47-.16-2.2-.08-.64-.11-1.29-.15-1.94-.03-.43-.01-.86-.13-1.28-.07-.24-.05-.51-.05-.77.03-1.56-.15-3.11-.37-4.65-.1-.68-.24-1.36-.33-2.05-.12-.94-.22-1.89-.32-2.83-.1-.9-.17-1.81-.29-2.71-.11-.81-.26-1.62-.39-2.43-.05-.3-.1-.6-.12-.9-.04-.99-.11-1.98-.22-2.97-.14-1.25-.3-2.49-.47-3.73-.05-.34-.08-.69-.11-1.03-.19-2.5-.37-5-.58-7.5-.11-1.29-.31-2.58-.4-3.87-.09-1.21-.14-2.42-.12-3.63.02-1.13-.02-2.25-.12-3.37-.09-.99-.14-1.97-.07-2.97.05-.86-.05-1.72-.11-2.58-.06-.82-.09-1.64-.1-2.46,0-1.06.26-2.05.77-2.98.21-.38.5-.7.84-.98.2-.16,2.4-1.51,2.64-1.61.44-.18.88-.36,1.33-.52.41-.14.82-.29,1.16-.57.41-.34.91-.51,1.41-.62,1.18-.27,2.35-.55,3.57-.62,1.51-.08,3.02-.21,4.53-.3,1.04-.06,2.07-.1,3.11-.14.04,0,.09,0,.13,0,1.9.16,3.8-.09,5.16-.07ZM48.08,12.85c-1.04-.03-2.07.07-3.11.14-.26.02-.52.05-.77.05-.99,0-1.99,0-2.98,0-.34,0-.69.02-1.03.02-.04,0-.09,0-.13,0-.27.03-.39.17-.35.42.21,1.59.38,3.18.35,4.78,0,.17,0,.35,0,.52.03,1.6.1,3.2-.01,4.79-.07.99-.12,1.99-.15,2.98-.06,2.29-.09,4.58-.14,6.87-.02.91-.01,1.82-.15,2.72-.05.3-.04.6-.05.91-.05,1.91.1,3.8.35,5.69.32,2.45.56,4.9.67,7.36.03.78.06,1.55.25,2.32.13.54.21,1.11.25,1.67.13,1.98.31,3.97.32,5.96,0,.39.04.78.07,1.16.04.52.09,1.03.14,1.55.02.26,0,.52.06.78.24,1.14.34,2.31.51,3.46.13.9.3,1.79.44,2.68.05.3.07.6.1.9.09,1.03.13,2.07.27,3.1.14,1.03.2,2.07.25,3.1.04.73-.03,1.47.05,2.2.14,1.24.34,2.48.56,3.72.23,1.32.55,2.62.86,3.92.47,1.97.85,3.97,1.26,5.96.1.51.08,1.04.3,1.52.28.61.33,1.25.31,1.9,0,.39-.02.78-.02,1.16,0,.22,0,.43.01.65,0,.09.03.17.05.25.04.21.37.46.59.43.51-.07,1.02-.19,1.54-.21.91-.04,1.81-.02,2.72-.04.73-.02,1.47-.02,2.2-.09,1.51-.15,3.01-.25,4.52-.11.6.06,1.21.03,1.81.05.26,0,.53-.03.78.03,1.02.23,2.06.18,3.1.24,1.34.09,2.67.2,4.01.3.6.04,1.21.09,1.81.11.87.02,1.73.04,2.58.21.29.06.6.05.9.07.47.03.95.05,1.42.09.78.07,1.55.15,2.32.22.86.09,1.72.18,2.58.27.13.01.26.04.38.07.84.22,1.69.32,2.56.33.52,0,1.03.09,1.55.16.77.11,1.53.25,2.3.37.52.08,1.02.07,1.54-.08.79-.23,1.62-.28,2.44-.24,1.13.06,2.2.42,3.28.71.55.15,1.04.41,1.52.7.11.07.29,0,.32-.11.07-.29.16-.58.19-.88.09-.9.12-1.81.24-2.71.13-.94.11-1.9.15-2.85,0-.13,0-.26.02-.39.2-1.55.17-3.11.15-4.66-.02-2.25.06-4.49.47-6.72.26-1.45.38-2.91.22-4.39-.16-1.55-.13-3.11-.1-4.67.04-2.08.04-4.15-.12-6.22-.12-1.64-.16-3.28-.15-4.92,0-1.51-.01-3.03,0-4.54.01-1.34.05-2.68.09-4.02.04-1.3.1-2.59.16-3.89.02-.43.05-.86.09-1.29.09-1.08.18-2.15.17-3.24-.01-2.81-.01-5.62-.03-8.43,0-1.21,0-2.42-.09-3.63-.08-1.16-.19-2.33-.23-3.49,0-.22-.02-.43-.05-.65-.12-.86-.17-1.72-.16-2.59,0-.34,0-.7-.08-1.03-.19-.81-.19-1.63-.17-2.45.02-.87-.04-1.73-.13-2.59-.16-1.63-.44-3.25-.57-4.89-.04-.5-.23-1-.39-1.49-.12-.34-.38-.57-.75-.65-.8-.18-1.6-.35-2.4-.55-.58-.15-1.21-.2-1.8-.14-1.13.1-2.25.04-3.37.03-1.64-.03-3.28-.05-4.92.16-.81.1-1.64.16-2.46.09-.26-.02-.52,0-.78-.01-.3,0-.61.02-.9-.04-.77-.14-1.55-.16-2.33-.17-.99-.01-1.99,0-2.98-.04-.91-.03-1.81-.02-2.72.02-.86.03-1.73,0-2.59-.05-.69-.03-1.38-.12-2.06-.18-1.2-.11-2.42.02-3.62-.22-.13-.03-.26,0-.39-.01-.99-.02-1.99-.04-2.98-.07-.47-.02-.95-.04-1.42-.11-.69-.11-1.38-.12-2.07-.12-.78,0-1.55,0-2.33-.01-.39,0-.78-.01-1.17-.01-.99,0-1.99,0-2.98,0ZM35.89,13.52c-.3-.22-.61-.18-.91-.14-.64.09-1.29.17-1.92.31-1.18.27-2.37.41-3.59.44-.59.01-.69.11-.84.77-.05.25-.06.52-.03.77.06.44.04.86-.05,1.29-.04.16-.04.34-.03.51.03.56.07,1.12.09,1.68.01.39.03.78-.03,1.16-.16.99-.11,1.98-.17,2.97-.02.3-.02.62.05.9.16.64.09,1.29.02,1.92-.14,1.3-.14,2.58.08,3.87.06.38.06.78.1,1.16.04.43.07.86.12,1.29.14,1.24.34,2.49.42,3.73.17,2.59.38,5.17.69,7.75.12.99.23,1.98.3,2.97.1,1.42.3,2.83.5,4.25.07.47.2.93.24,1.4.07.95.24,1.88.35,2.83.07.6.16,1.2.24,1.8.18,1.37.37,2.74.55,4.11.07.51.13,1.03.16,1.55.06,1.12.14,2.24.22,3.36.12,1.55.23,3.09.32,4.64.03.56.03,1.12.08,1.68.05.6.15,1.2.23,1.8.07.47.17.94.21,1.41.12,1.29.3,2.57.57,3.84.12.55.16,1.11.23,1.67.14,1.16.26,2.31.48,3.46.03.17.05.34.06.51.16,1.54.34,3.09.46,4.64.1,1.29.35,2.56.39,3.86.02.82.15,1.63.24,2.45.06.51.18,1.03.18,1.54,0,.92.2,1.8.35,2.7.18,1.02.38,2.04.51,3.06.07.52.2,1.01.35,1.51.02.08.08.16.15.2.06.04.17.07.23.05.11-.05.23-.12.31-.22.53-.62.9-1.36,1.45-1.98.43-.48.82-1,1.27-1.46.36-.37.78-.68,1.2-.98.4-.29.67-.67.94-1.06.15-.22.25-.46.24-.73-.01-.66.17-1.28.39-1.89.22-.62.3-1.26.23-1.92-.04-.43-.12-.86-.17-1.28-.11-.94-.41-1.86-.39-2.82.02-.7-.1-1.38-.27-2.05-.49-1.84-.76-3.72-1.05-5.59-.14-.9-.25-1.8-.38-2.7-.16-1.16-.49-2.28-.79-3.4-.32-.55-.35-1.15-.36-1.76,0-.69-.08-1.38-.19-2.06-.27-1.75-.52-3.5-.76-5.26-.1-.73-.13-1.46-.21-2.19-.16-1.5-.35-3-.5-4.51-.06-.65-.1-1.29-.28-1.92-.07-.24-.07-.51-.09-.77-.02-.26-.02-.52-.07-.77-.18-.94-.18-1.89-.2-2.84-.04-1.42-.08-2.85-.12-4.27,0-.3-.06-.6-.08-.9-.1-1.33-.33-2.65-.43-3.99-.1-1.33-.33-2.66-.33-4-.17-.77-.14-1.55-.14-2.32,0-.61,0-1.21-.14-1.81-.09-.38-.1-.77-.12-1.16-.06-.86-.06-1.72-.22-2.57-.08-.47-.09-.96.06-1.41.29-.89.25-1.79.14-2.69-.08-.6-.18-1.19,0-1.8.05-.16.02-.34,0-.51-.04-.47-.09-.95-.12-1.42-.07-.95-.16-1.9-.18-2.85-.02-.95.02-1.9.05-2.85.06-2.16-.03-4.32-.22-6.48-.01-.17-.05-.33-.08-.48ZM91.15,116.7c.73,0,1.47,0,2.2,0,.27,0,.51-.07.75-.18.25-.12.42-.29.48-.56.21-.94.27-1.88.19-2.83-.04-.47-.1-.95-.04-1.42.08-.69.04-1.38.07-2.07.06-1.38-.05-2.77.21-4.14,0-.04-.03-.11-.05-.11-.08,0-.18-.03-.23.02-.82.79-1.77,1.21-2.93,1.02-.39.08-.77,0-1.15-.06-.72-.11-1.46-.15-2.19-.23-1.03-.12-2.05-.25-3.08-.37-.21-.03-.43-.04-.64-.09-.84-.2-1.71-.31-2.56-.33-1.6-.03-3.19-.16-4.78-.36-.34-.04-.69-.08-1.03-.13-.69-.09-1.37-.21-2.06-.26-1.46-.12-2.93-.12-4.38-.34-.25-.04-.52-.02-.78-.03-.3-.01-.61,0-.91-.04-1.89-.18-3.79-.2-5.69-.23-1.04-.02-2.07.08-3.1-.16-.25-.06-.52-.02-.78-.03-.39,0-.78,0-1.17-.03-.86-.04-1.72-.07-2.58.11-.33.07-.69.07-1.03.06-1.04-.02-2.07-.03-3.1.07-.64.06-1.29.05-1.93.13-.68.09-1.37.19-2.03.39-.66.19-1.28.5-1.92.76-.24.1-.49.19-.7.32-.33.2-.67.41-.95.67-.37.36-.7.76-1.01,1.18-.38.52-.74,1.06-.91,1.7-.49.67-.71,1.48-1.09,2.2-.06.11-.08.26-.05.37.06.25.1.53.24.73.59.83,1.32,1.47,2.36,1.69.63.14,1.29.15,1.9.4.15.06.34.03.51.03.17,0,.36-.05.51,0,.72.2,1.46.13,2.19.17.69.03,1.38.04,2.06.11.47.05.93.13,1.41.12.34-.01.69.05,1.03.09.34.04.68.1,1.03.02.12-.03.26-.04.38,0,1.39.33,2.84.21,4.23.56.16.04.34,0,.52.02.26.01.52.03.77.05,1.07.09,2.15.19,3.22.27.6.05,1.2.05,1.8.17.38.07.77.08,1.16.09.99.04,1.98.05,2.96.22,1.24.21,2.5.15,3.75.18.6.02,1.21.02,1.81.11,1.29.18,2.58.28,3.88.28.69,0,1.38-.04,2.07-.04,1.73,0,3.46.01,5.19.01.73,0,1.47.02,2.2-.07,1.25-.15,2.49-.23,3.75-.2Z"/>
  <path class="cls-1" d="M65.17,29.63c.09-.07.24-.13.27-.23.31-1.08.87-2.07,1.05-3.19.04-.25.14-.5.35-.68.09-.08.18-.2.21-.32.19-.76.83-1.06,1.43-1.39.15-.08.19-.07.59.09.07.03.18.06.24.03.11-.06.2-.16.29-.25.23-.23.52-.25.82-.31.32-.07.43.24.68.29.07-.05.13-.12.2-.15.07-.03.2-.06.23-.03.33.34.63.7.75,1.18.24.97.43,1.94.48,2.94.03.65.03,1.3.03,1.94-.01,1.51.02,3.02.12,4.53,0,.13.02.26.01.39-.12,1.56.07,3.11.14,4.66.03.6.13,1.2.19,1.8.04.36-.03.68-.25.98-.23.31-.44.64-.64.97-.23.37-.41.44-.86.32-.26-.07-.48-.19-.65-.39-.19-.23-.44-.44-.55-.71-.19-.44-.51-.68-.9-.74-.07-.16-.13-.23-.14-.32-.21-1.54-.37-3.09-.38-4.65,0-.35,0-.7-.04-1.04-.05-.36.01-.78-.34-1.05-.38.01-.62.29-.88.5-.75.6-1.59.83-2.54.64-.21-.04-.42-.06-.62-.09-.94-.63-1.49-1.56-2.13-2.43-.08-.1-.15-.21-.24-.3-.02-.03-.08-.04-.12-.03-.03,0-.08.04-.09.07-.1.33-.21.66-.27.99-.19.93-.3,1.88-.55,2.8-.3,1.13-.67,2.23-1.07,3.33-.25.69-.67,1.31-1.1,1.9-.26.35-.61.59-1.01.79-.67.34-1.36.53-2.11.52-.58,0-.96-.33-1.3-.74-.05-.06-.08-.15-.1-.24-.05-.21-.05-.43-.12-.63-.11-.31-.07-.6.02-.89.09-.29.18-.58.29-.86.7-1.95,1.27-3.95,1.69-5.98.18-.89.37-1.77.47-2.68.08-.68.24-1.36.36-2.04.07-.38.13-.77.2-1.15.13-.74.42-1.4.92-1.97.38-.43.89-.67,1.36-.97.16-.1.41-.03.58.14.09.09.18.27.26.27.34-.03.5.34.8.33.23-.01.43-.01.55.21.02.03.07.06.11.06.68.01,1.08.45,1.46.94.53.69,1.01,1.4,1.4,2.18.11.23.2.48.45.65Z"/>
  <path class="cls-1" d="M78.52,40.49c.28-.44.63-.78.72-1.27.04-.25.11-.51.12-.76.05-1.51.1-3.02.14-4.53.03-1.08.08-2.16.23-3.23.14-.98.2-1.98.31-2.96.06-.51.09-1.03.36-1.49.09-.15-.14-.46-.33-.49-.08-.01-.17-.05-.25-.04-1.06.12-1.78-.52-2.5-1.15-.15-.13-.18-.43-.06-.6.39-.52.78-1.04,1.18-1.54.22-.28.53-.45.9-.45.65.01,1.29.02,1.94.06.16,0,.32.11.49.17.2.07.4.17.61.21.55.13,1.13.15,1.64.37.51.21.93.62,1.4.92.43.28.89.54,1.31.84.74.53,1.47,1.06,1.88,1.92.45.49.69,1.08.93,1.69.23.6.52,1.18.66,1.82.17.8.38,1.59.57,2.39.48,2,.33,3.96-.26,5.88-.52,1.7-1.28,3.3-2.46,4.67-.37.43-.76.81-1.23,1.14-.64.45-1.3.86-2.02,1.15-1.03.41-2.08.53-3.18.31-1.06-.21-2.09-.53-3.12-.86-.46-.15-.88-.37-1.21-.72-.21-.22-.49-.36-.71-.54-.29-.24-.5-.59-.72-.9-.11-.16-.04-.35.05-.49.23-.36.59-.61.8-.99.07-.12.29-.2.45-.23.42-.1.85-.16,1.35-.26ZM86.43,31.48c.3-.24.41-.53.26-.91-.14-.36-.25-.74-.39-1.1-.08-.2-.17-.41-.31-.56-.36-.37-.75-.71-1.14-1.05-.05-.05-.16-.03-.25-.04-.23.22-.27.53-.33.82-.12.59-.22,1.19-.3,1.78-.32,2.49-.41,4.99-.11,7.49.05.43.03.86-.11,1.28-.13.4-.23.82-.34,1.23,0,.03.05.1.07.1.08,0,.17-.02.25-.05.62-.26,1.01-.8,1.49-1.23.73-.65,1.19-1.48,1.52-2.38.18-.48.27-1.01.25-1.52-.03-1.08-.15-2.15-.25-3.22-.02-.25-.11-.51-.36-.65h.03Z"/>
  <path class="cls-1" d="M53.47,40.26c-.26.66-.68,1.03-1.3,1.26-.53.19-1.05.37-1.6.5-1.39.33-2.65.05-3.84-.7-1-.63-1.78-1.5-2.53-2.39-.11-.13-.2-.29-.27-.44-.43-1-.78-2.01-.75-3.12.02-.78,0-1.55.26-2.31.11-.32.09-.69.17-1.02.15-.59.32-1.17.59-1.71.08-.15.19-.3.22-.47.15-.84.71-1.37,1.36-1.81.9-.6,1.83-1.13,2.87-1.46.51-.16,1.01-.23,1.53-.22.47.01.95.07,1.42.1.18.01.33.09.45.22.22.23.48.36.78.43.17.04.32.13.48.19.69.24.99.79,1.17,1.44.07.25.04.51-.08.75-.49,1.05-1.39,1.47-2.46,1.67-.12.02-.25-.03-.38-.04-.39-.04-.77-.07-1.16-.11-.09,0-.18-.02-.26,0-.93.24-1.81.58-2.47,1.32-.06.06-.11.13-.15.21-.51,1.18-.8,2.37-.25,3.63.17.4.33.79.64,1.11.32.32.68.53,1.13.55.35.01.69.01,1.04.02.39,0,.78.01,1.17.03.22.01.42.08.55.28.05.07.09.18.15.2.35.12.6.3.63.72,0,.13.23.23.33.37.07.1.08.25.14.35.09.14.22.26.37.43Z"/>
  <path class="cls-1" d="M86.4,31.46s.07-.09.11-.14c-.03-.01-.05-.02-.08-.03,0,.06,0,.12,0,.19,0,0-.04-.01-.04-.01Z"/>
</svg>