<?xml version="1.0" encoding="UTF-8"?>
<svg id="Layer_1" data-name="Layer 1" xmlns="http://www.w3.org/2000/svg" viewBox="0 0 128 128">
  <defs>
    <style>
      .cls-1 {
        stroke-width: 0px;
      }
    </style>
  </defs>
  <path class="cls-1" d="M83.79,44.86c-.02.3-.05.6-.06.9,0,.12.04.24.07.35.05.17.13.34.1.53-.08.55.02,1.09.13,1.63.11.6.13,1.2.18,1.8.06.63.14,1.26.17,1.9.07,1.24.27,2.47.32,3.72,0,.21.02.43.06.63.11.48.19.95.08,1.44.11.54,0,1.09.1,1.63.04.21.04.42.04.63,0,.61.04,1.21.1,1.81.08.72.06,1.45-.04,2.17-.03.18-.06.36-.07.54,0,1.03,0,2.06-.01,3.1,0,.52,0,1.03-.02,1.55-.02.82-.04,1.64-.08,2.46-.03.7.03,1.39.04,2.09,0,.15.05.31.01.45-.13.54-.09,1.08-.07,1.63,0,.06,0,.12-.02.18-.21,1.08-.22,2.17-.2,3.26,0,.06.01.12,0,.18-.13,1.61-.04,3.22-.11,4.82-.03.67-.05,1.33,0,2,.01.12.02.25,0,.36-.23,1.5-.24,3.02-.3,4.54-.04.82-.11,1.64-.09,2.46.03.88-.04,1.76-.12,2.63-.04.39-.06.79-.08,1.18-.03.45-.05.91-.08,1.36-.04.51-.09,1.03-.15,1.54-.06.6-.14,1.21-.2,1.81-.1.88-.27,1.74-.44,2.6-.11.57-.26,1.12-.43,1.67-.11.35-.18.71-.27,1.06-.04.15-.08.29-.13.44-.6,2.01-1.23,4-2.14,5.9-.46.96-.98,1.89-1.56,2.78-.63.98-1.43,1.81-2.31,2.57-.37.31-.78.58-1.2.82-.85.47-1.72.89-2.62,1.26-.64.26-1.32.44-2.02.5-.79.06-1.58.07-2.37,0-.39-.04-.77-.13-1.16-.2-.36-.07-.72-.12-1.07-.21-.29-.07-.58-.19-.86-.29-.31-.12-.62-.24-.92-.38-.66-.3-1.35-.55-1.97-.94-.99-.64-1.99-1.28-2.89-2.05-.81-.69-1.54-1.46-2.21-2.29-.49-.61-.92-1.27-1.32-1.95-.38-.66-.71-1.33-.99-2.04-.32-.82-.72-1.6-1.03-2.43-.17-.45-.42-.87-.57-1.33-.29-.9-.7-1.75-.95-2.66-.24-.88-.47-1.76-.66-2.64-.12-.56-.24-1.13-.33-1.69-.08-.45-.12-.9-.18-1.35-.18-1.33-.27-2.66-.27-4,0-.91.08-1.82.14-2.73.02-.4.04-.79-.01-1.18-.03-.24-.03-.48-.05-.73-.07-1.43-.19-2.85-.35-4.27-.02-.15-.01-.3-.02-.45-.02-.82-.06-1.64-.17-2.45,0-.03,0-.06,0-.09-.03-.88-.21-1.75-.27-2.62-.03-.42-.1-.84-.15-1.26-.21-1.63-.24-3.27-.39-4.9-.07-.72-.16-1.45-.26-2.17-.19-1.29-.29-2.59-.26-3.9.03-1,.01-2.01-.02-3.01-.05-1.49-.06-2.98.1-4.46.21-1.91.2-3.82.14-5.73-.05-1.4,0-2.79-.02-4.19,0-.39-.02-.79-.01-1.18,0-.58.04-1.15.05-1.73,0-.42,0-.85-.05-1.27-.02-.24-.09-.48-.19-.7-.13-.32-.35-.57-.67-.71-.44-.19-.89-.33-1.39-.38-.9-.09-1.81-.2-2.69-.42-.79-.2-1.59-.41-2.31-.81-.1-.06-.21-.13-.27-.23-.33-.47-.64-.96-.88-1.48-.11-.23-.14-.46-.16-.7-.06-.66.21-1.25.41-1.84.08-.22.24-.43.4-.6.54-.58,1.14-1.09,1.88-1.41.33-.14.65-.34.98-.47.62-.24,1.23-.52,1.89-.64.69-.12,1.38-.23,2.05-.43.37-.11.78-.14,1.17-.14,1.12,0,2.23-.18,3.36-.08.82-.07,1.64-.02,2.46,0,.76.02,1.52,0,2.27.02.76.01,1.52.01,2.28.02.48,0,.96-.04,1.45.02.44.05.9-.04,1.36.03.09.01.18,0,.27,0,1.05-.17,2.12-.07,3.18-.13.6-.03,1.21-.05,1.82-.06,1.09-.02,2.18-.05,3.27-.05.57,0,1.15.02,1.72.08.6.07,1.21.05,1.82.05,1.06,0,2.13,0,3.19-.02.6,0,1.21-.07,1.81-.02.91.07,1.82-.09,2.73.04.15.02.3,0,.45,0,.36-.03.73-.04,1.09.01.15.02.3.03.45.02.67-.06,1.33.02,2-.02.27-.01.55,0,.82.03.33.02.66.1,1,0,.06-.02.12,0,.18,0,1,.08,2,.15,2.95.51.24.09.44.21.58.42.1.15.22.3.28.46.06.18.17.32.26.47.29.45.28.94-.1,1.33-.24.24-.37.55-.63.77-.14.12-.21.29-.23.48-.02.19-.11.34-.25.47-.48.46-.85,1.03-1.4,1.42-.28.42-.69.67-1.13.88-.16.08-.3.2-.44.31-.34.26-.72.46-1.12.57-.61.17-1.22.35-1.86.41-.3.03-.6.11-.89.18-.18.04-.33.15-.46.28ZM54.83,91.85c-.04.78-.06,1.36-.1,1.93-.07,1.09-.07,2.18.03,3.28.07.82.15,1.63.29,2.44.14.84.29,1.68.51,2.5.23.85.49,1.69.78,2.52.44,1.26.91,2.51,1.47,3.72.43.94.85,1.88,1.42,2.75.43.66.87,1.32,1.35,1.94.35.46.76.87,1.19,1.25,1.08.95,2.28,1.7,3.58,2.31.47.22.93.46,1.41.63.51.18,1.04.35,1.58.44.57.1,1.16.08,1.73-.01.57-.09,1.12-.26,1.68-.39.06-.01.11-.05.17-.07,1.37-.64,2.52-1.56,3.5-2.71.25-.3.5-.62.68-.96.42-.8.88-1.59,1.25-2.43.57-1.31,1.07-2.64,1.42-4.02.09-.35.16-.71.24-1.06.03-.12.06-.24.1-.35.31-.73.52-1.49.65-2.27.05-.3.11-.6.18-.89.16-.65.22-1.32.29-1.98.07-.76.11-1.51.17-2.27.08-1.12.2-2.24.23-3.36.05-1.55.11-3.09.15-4.64.01-.49.1-.97.12-1.45.05-1.64.09-3.28.12-4.92.03-1.88-.03-3.76.1-5.64,0-.06,0-.12,0-.18.03-.45.03-.91.08-1.36.07-.55.08-1.09.07-1.64-.01-.97-.02-1.94,0-2.91,0-.64.05-1.27.06-1.91,0-.42-.03-.85-.03-1.27,0-.73.01-1.46,0-2.18,0-.24-.04-.48-.07-.72-.07-.48-.09-.97-.02-1.45.05-.33.04-.66,0-1-.07-.54-.11-1.09-.08-1.63.03-.48,0-.97-.1-1.45-.07-.38-.08-.78-.09-1.18-.02-.51,0-1.03-.1-1.54-.07-.35-.13-.72-.14-1.08-.01-.65-.16-1.26-.3-1.88-.04-.18-.08-.35-.1-.53-.09-.69-.16-1.39-.25-2.08-.03-.21-.07-.42-.13-.62-.11-.38-.18-.76-.1-1.16.04-.17,0-.36-.02-.54-.09-.97-.18-1.93-.11-2.9,0-.12,0-.24-.02-.36-.05-.36-.1-.72-.16-1.08-.02-.11-.08-.23-.14-.32-.27-.37-.64-.54-1.09-.55-.7,0-1.4.01-2.09,0-1.15-.03-2.3.1-3.45,0-.21-.02-.42.02-.64.03-.3.03-.6.06-.91.08-.21.02-.43.05-.64.02-1.09-.15-2.18-.09-3.27-.03-.57.03-1.15-.04-1.71.16-.08.03-.18.02-.27,0-.48-.1-.95-.04-1.44.06-.41.09-.84.08-1.27.11-.21.01-.43,0-.63.03-.39.06-.78.07-1.18,0-.12-.02-.25-.04-.36,0-.44.14-.92-.06-1.34.18-.57-.04-1.14.01-1.71,0-.21,0-.42,0-.63.03-.57.09-1.13.22-1.71.17-.03,0-.06,0-.09,0-.28,0-.52.16-.79.2-.27.05-.54.03-.81.06-.16.02-.33.22-.33.39,0,.24,0,.49,0,.73.01.64.04,1.27.04,1.91,0,1.24-.02,2.49-.02,3.73,0,1.64,0,3.28.02,4.92,0,1.34-.13,2.67-.23,4-.09,1.15-.13,2.3-.11,3.46.03,1.18.12,2.37.06,3.55-.05,1.04.06,2.07.18,3.09.19,1.69.43,3.37.5,5.08,0,.24.03.49.06.73.11,1.03.26,2.05.3,3.08,0,.24.06.48.1.72.21,1.32.4,2.64.43,3.98,0,.15.01.3.04.45.23,1.33.3,2.08.32,3.35,0,.33.04.67.06,1,.04.73.07,1.46.1,1.98Z"/>
  <path class="cls-1" d="M57.53,19.1c.24,0,.48,0,.73,0,.64-.01,1.26.15,1.88.27.57.11,1.01.41,1.4.79.55.52,1.01,1.13,1.39,1.78.27.45.43.93.55,1.44.18.71.26,1.44.25,2.16,0,.48-.13.96-.26,1.42-.15.59-.4,1.14-.68,1.68-.4.79-1.05,1.23-1.9,1.4-.47.09-.95.17-1.43.25-.12.02-.24.02-.36.02-1.32-.05-2.48-.5-3.48-1.37-.56-.49-.99-1.05-1.29-1.73-.31-.69-.61-1.39-.82-2.11-.07-.23-.15-.47-.18-.7-.12-.9-.18-1.81-.11-2.72.01-.15.02-.31.09-.44.19-.38.38-.76.61-1.11.2-.31.49-.5.85-.64.84-.33,1.69-.46,2.58-.39.06,0,.12,0,.18,0,0,0,0,.01,0,.02Z"/>
  <path class="cls-1" d="M48.08,14.73c-1.04-.04-2.04-.22-2.93-.82-.25-.17-.53-.3-.78-.47-.28-.19-.47-.44-.54-.8-.12-.65-.28-1.3-.42-1.95-.19-.9.05-1.68.64-2.36.26-.3.56-.54.98-.61.36-.06.68-.26,1.05-.26.54,0,1.09-.01,1.63.03.39.03.78.12,1.16.21.39.09.73.27.98.61.14.19.33.35.49.54.15.19.32.37.42.59.36.77.72,1.53.93,2.36.04.15.05.3.08.45.04.29-.01.54-.22.75-.17.17-.34.34-.51.52-.08.09-.14.19-.15.32,0,.13-.07.24-.2.27-.35.09-.62.37-.99.44-.54.1-1.07.19-1.62.19Z"/>
  <path class="cls-1" d="M78.98,91.55c.01.61.04,1.21.03,1.82,0,.48-.07.97-.1,1.45-.07,1.09-.14,2.18-.22,3.27-.01.21-.04.42-.07.63-.12.69-.18,1.38-.25,2.08-.12,1.15-.22,2.3-.65,3.39-.05.14-.06.3-.09.44-.27,1.18-.62,2.35-1.08,3.47-.36.86-.7,1.74-1.21,2.54-.19.31-.32.65-.49.97-.19.35-.37.7-.58,1.03-.15.23-.34.42-.57.58-.32.23-.63.48-.94.71-.12.09-.25.17-.39.23-.56.24-1.11.48-1.67.71-.25.11-.5.22-.76.3-.4.12-.8.32-1.24.2-.7.12-1.39-.08-2.08-.1-.36-.01-.72-.14-1.06-.26-.23-.08-.44-.19-.69-.24-.09-.02-.18-.06-.24-.12-.39-.38-.89-.64-1.23-1.08-.07-.09-.18-.17-.28-.23-.19-.11-.34-.25-.45-.44-.05-.08-.09-.18-.16-.22-.47-.24-.64-.71-.89-1.12-.12-.21-.26-.41-.4-.61-.05-.08-.13-.14-.16-.22-.18-.45-.5-.82-.75-1.24-.25-.42-.48-.84-.72-1.26-.05-.08-.1-.16-.12-.24-.22-.73-.65-1.36-.94-2.06-.14-.34-.25-.68-.33-1.04-.1-.47-.22-.93-.46-1.37-.19-.34-.28-.73-.34-1.13-.11-.81-.32-1.6-.57-2.38-.17-.52-.29-1.05-.3-1.61-.02-.73-.18-1.44-.17-2.18,0-.36-.2-.7-.15-1.07-.13-.41,0-.85-.2-1.25,0-.27.02-.55,0-.81-.08-.94-.1-1.88-.26-2.81-.11-.63-.17-1.26-.21-1.9-.02-.42-.13-.84-.19-1.26-.02-.12-.04-.24-.02-.36.11-.58-.03-1.15-.15-1.71-.09-.42-.14-.84-.14-1.26.01-1-.06-2-.13-2.99-.02-.24-.07-.48-.11-.72-.03-.21-.09-.42-.09-.63,0-.31-.04-.6-.14-.89-.22-.65-.15-1.32-.04-1.98.02-.13.12-.21.23-.26.11-.05.26-.04.34-.11.67-.6,1.47-.45,2.25-.38.3.03.6.11.88.22.54.21,1.08.2,1.61.05.45-.13.89-.18,1.35-.13.12.01.24,0,.36,0,.83-.01,1.63.17,2.4.45.36.13.71.15,1.06,0,.5-.21,1.01-.42,1.5-.65.17-.07.33-.14.52-.15.48-.02.97-.06,1.45-.09.37-.02.72.04,1.06.21.22.11.45.19.65.32.31.2.67.29,1,.44.18.08.36.04.53-.04.27-.13.53-.29.8-.43.38-.2.79-.3,1.22-.32.15,0,.31,0,.45-.04.53-.14,1.02-.03,1.5.19.11.05.22.1.33.14.6.24,1.14.56,1.6,1.02.19.19.4.37.6.56.14.14.16.33.11.51-.04.14-.09.29-.17.42-.25.38-.29.78-.25,1.22.04.42.04.85.06,1.27.05,1.03.03,2.07,0,3.1,0,.18,0,.36,0,.55-.02.4.04.78.32,1.1.19.21.22.49.26.76.24,1.65.43,3.31.41,4.99ZM68.3,80.03c-.42.1-.81.25-1.18.47-.39.23-.82.39-1.28.45-.24.03-.48.07-.72.09-.83.08-1.66-.05-2.37-.46-.5-.29-.98-.29-1.49-.12-.34.11-.68.26-1.01.4-.39.17-.63.47-.67.9-.02.18,0,.37-.04.54-.16.54-.11,1.08-.02,1.62.02.12.04.24.02.36-.05.27-.02.54,0,.82.03.36.08.73.08,1.09,0,.58-.02,1.15.14,1.72-.03.43.12.83.13,1.26,0,.45.12.9.17,1.35.06.45.06.91.16,1.35.1.47.06.97.25,1.43.04.11.04.24.02.36-.05.37.04.73.09,1.09.08.54.17,1.08.22,1.62.11,1.11.06,2.24.3,3.35.04.18.06.36.04.54-.03.47.08.91.22,1.34.44,1.32.87,2.65,1.45,3.93.27.58.56,1.14.97,1.64.08.09.16.19.2.3.09.27.3.45.45.67.38.54.9.99,1.18,1.61.24.53.69.84,1.23,1.01.23.07.49.1.69.21.26.14.51.13.79.1.42-.06.85-.09,1.24-.28.11-.05.24-.1.31-.18.38-.47.79-.92,1.12-1.43.31-.48.53-1.02.8-1.53.14-.27.29-.53.45-.79.19-.31.35-.64.46-.99.25-.84.58-1.66.78-2.52.08-.32.14-.66.27-.96.26-.6.23-1.25.4-1.86.02-.08.01-.19-.02-.27-.11-.28-.04-.53.05-.8.08-.23.21-.45.15-.7-.05-.22,0-.42.07-.62.25-.66.36-1.34.31-2.05,0-.03,0-.06,0-.09.02-.37.03-.73-.1-1.08-.04-.11-.04-.24-.03-.36.04-.45,0-.91.21-1.34.07-.13.06-.3.06-.45,0-.55.05-1.1,0-1.64-.1-.99-.17-1.98-.4-2.96-.13-.56-.24-1.13-.28-1.7,0-.14.04-.2.11-.3.5-.69.61-1.01.64-1.65.03-.73.06-1.46.07-2.18,0-.52-.03-1.03-.06-1.55-.01-.18-.06-.35-.09-.5-.36-.26-.71-.25-1.07-.09-.25.12-.52.2-.73.37-.45.36-.97.48-1.51.57-.15.02-.29.02-.44.02-.65-.03-1.25-.19-1.76-.62-.09-.08-.22-.11-.31-.18-.22-.18-.48-.26-.74-.32Z"/>
</svg>