<?xml version="1.0" encoding="UTF-8"?>
<svg id="Layer_1" data-name="Layer 1" xmlns="http://www.w3.org/2000/svg" viewBox="0 0 128 128">
  <defs>
    <style>
      .cls-1 {
        stroke-width: 0px;
      }
    </style>
  </defs>
  <path class="cls-1" d="M66.21,9.41c.82.06,1.65.05,2.46.19.42.07.85.04,1.28.05.8.01,1.58.13,2.35.33,1.13.29,2.26.56,3.39.83.53.12,1.06.22,1.59.3.4.06.77.2,1.15.3,1.04.26,1.92.83,2.79,1.42.19.13.36.28.56.38.75.37,1.36.93,1.94,1.52.78.79,1.54,1.6,2.22,2.47.8,1.03,1.52,2.12,1.93,3.39.1.32.25.63.39.94.26.58.4,1.18.46,1.81.01.14.04.28.07.42.12.64.23,1.28.36,1.93.08.43.04.85-.09,1.26-.03.11-.07.22-.12.32-.3.61-.5,1.27-.71,1.91-.13.38-.3.74-.52,1.07-.62.95-1.19,1.94-1.87,2.85-.05.07-.1.14-.14.21-.42.88-1.09,1.59-1.65,2.38-.02.02-.03.05-.05.07-.68.62-1.08,1.46-1.69,2.13-.11.12-.19.29-.29.42-.28.35-.5.76-.95.95-.67.53-1.3,1.1-1.81,1.79-.17.23-.37.43-.58.62-.52.48-1.03.96-1.61,1.38-.36.26-.66.62-.98.94-.2.2-.41.38-.64.55-.41.3-.81.62-1.21.95-.19.16-.37.35-.53.55-.33.39-.68.77-1.09,1.07-.83.62-1.46,1.41-2.06,2.24-.26.37-.54.73-.9,1.01-.38.3-.68.67-.97,1.07-.33.46-.7.89-1.07,1.32-.28.32-.59.62-.87.94-.15.17-.27.36-.39.56-.27.47-.53.94-.9,1.34-.02.02-.03.04-.05.07-.21.3-.28.7-.58.93-.3.23-.43.6-.68.86-.25.27-.47.56-.69.86-.32.43-.59.9-.97,1.29-.04.04-.06.09-.09.14-.24.48-.47.97-.72,1.45-.12.23-.18.48-.18.74,0,.26,0,.51,0,.77-.04.59-.12,1.19-.3,1.76-.11.36-.14.72-.15,1.09-.01.51-.06,1.02-.12,1.53-.15,1.33-.35,2.65-.21,3.99.11,1.05.07,2.1.09,3.14.01.63.09,1.24.31,1.84.13.35.27.69.35,1.05.15.63.27,1.28.38,1.92.12.64.2,1.29.42,1.91.2.56.33,1.14.38,1.74.05.56.12,1.12.09,1.69-.02.39.09.79.13,1.18.03.23.06.45.06.68,0,.14,0,.3-.07.42-.35.68-.66,1.39-1.38,1.78-.23.13-.46.19-.73.18-.53-.03-1-.16-1.4-.53-.37-.36-.52-.8-.53-1.3,0-.34.04-.68.05-1.02.01-.31-.02-.62-.1-.93-.14-.52-.17-1.06-.18-1.6-.02-.57-.1-1.13-.21-1.68-.05-.25-.14-.5-.17-.75-.04-.34-.13-.67-.09-1.01.08-.66-.09-1.3-.27-1.92-.11-.38-.24-.76-.37-1.13-.16-.46-.25-.93-.23-1.42.02-.43-.04-.85-.11-1.27-.08-.47-.14-.95-.17-1.43-.04-.65,0-1.31-.07-1.95-.1-.91-.03-1.81-.07-2.72-.03-.68.07-1.36.2-2.03.11-.58.25-1.16.36-1.75.09-.5.26-.99.41-1.48.08-.27.14-.55.16-.83.07-1.15.44-2.22.98-3.23.17-.32.44-.59.66-.89.14-.18.29-.35.41-.54,1.01-1.61,2.18-3.12,3.33-4.63.36-.47.75-.92,1.06-1.44.2-.34.5-.62.81-.87.41-.32.72-.72,1.02-1.14.52-.71,1.03-1.43,1.74-1.97.34-.26.6-.61.83-.96.22-.34.49-.62.78-.89.33-.31.67-.61,1.04-.88.34-.25.66-.55.92-.88.43-.57.97-1.03,1.54-1.45.37-.27.71-.56,1.02-.9.34-.38.74-.7,1.09-1.08.96-1.05,1.99-2.03,2.96-3.06.74-.79,1.53-1.52,2.3-2.28.26-.26.52-.53.74-.82.39-.49.81-.95,1.17-1.47.4-.56.73-1.15,1.06-1.74.47-.85.92-1.7,1.4-2.54.24-.42.36-.89.47-1.36.06-.27.05-.56.15-.84.03-.07.02-.17,0-.25-.17-.46-.15-.95-.3-1.41-.14-.43-.23-.88-.36-1.31-.31-1.04-.73-2.02-1.37-2.91-.55-.76-1.1-1.51-1.74-2.21-.68-.74-1.43-1.38-2.31-1.86-.47-.26-.95-.5-1.43-.76-.43-.23-.9-.36-1.38-.39-.54-.03-1.06-.15-1.58-.31-.54-.17-1.11-.23-1.68-.29-.51-.05-1.01-.14-1.5-.3-.49-.15-.99-.26-1.51-.26-.34,0-.68-.06-1.02-.09-.42-.03-.85-.05-1.28-.08-.2-.01-.4-.02-.59-.06-.93-.17-1.87-.12-2.8-.05-.48.04-.96.11-1.44.16-.32.03-.62.11-.9.24-.28.13-.56.28-.83.41-.1.05-.2.11-.31.14-1.09.33-2.09.88-3.16,1.27-.6.43-1.32.65-1.92,1.09-.43.31-.93.54-1.4.8-.12.07-.27.11-.37.2-.39.39-.87.63-1.33.9-.52.3-.94.73-1.36,1.15-.34.34-.67.69-1.01,1.04-.12.12-.25.24-.35.37-.54.77-1.22,1.42-1.82,2.14-.41.49-.7,1.03-.97,1.59-.19.38-.27.81-.51,1.17-.08.11-.08.27-.11.41-.11.55-.23,1.11-.34,1.67-.03.14-.02.29-.07.42-.2.43-.19.89-.18,1.34,0,.63-.01,1.25-.1,1.87-.04.28-.05.56-.02.85.02.17.02.34.03.51.05.57.03,1.13-.16,1.68-.07.2-.05.38,0,.58.09.38-.07.7-.39.84-.44.2-.89.36-1.38.4-.14.01-.3,0-.41-.06-.3-.16-.6-.33-.87-.52-.38-.27-.53-.66-.51-1.11.01-.37.05-.73.07-1.1.03-.48.02-.96-.1-1.44-.16-.66-.31-1.33-.25-2.02-.14-.61-.06-1.25-.15-1.86-.05-.4-.04-.79.05-1.19.04-.19.08-.39.1-.59.08-.68.34-1.32.6-1.94.16-.39.35-.78.53-1.16.16-.33.32-.66.49-.99.27-.53.51-1.07.8-1.6.3-.54.59-1.1.93-1.62.2-.31.41-.61.64-.9.24-.28.46-.58.7-.86.68-.81,1.45-1.51,2.35-2.08.84-.53,1.68-1.06,2.54-1.56.86-.5,1.77-.9,2.66-1.35.94-.47,1.95-.78,2.91-1.19.55-.23,1.13-.38,1.7-.54.69-.19,1.34-.46,1.98-.76.73-.34,1.48-.54,2.29-.6.62-.05,1.24-.17,1.86-.19.37-.01.74-.03,1.1-.05Z"/>
  <path class="cls-1" d="M74.74,106.12c-.04.51-.07,1.02-.11,1.53-.01.17-.05.34-.05.51-.02,1.02-.39,1.93-.87,2.81-.51.92-1.14,1.76-1.84,2.54-.19.21-.39.43-.62.58-.39.25-.73.55-1.08.83-.6.48-1.27.85-1.98,1.15-.29.12-.57.25-.86.38-.47.2-.97.32-1.49.31-.54,0-1.08,0-1.62,0-.4.01-.79-.05-1.17-.18-.46-.16-.92-.3-1.39-.41-.28-.06-.53-.17-.76-.36-.31-.26-.66-.43-1.03-.59-.44-.19-.88-.39-1.31-.62-.33-.17-.63-.38-.88-.66-.34-.38-.7-.74-1.03-1.13-.19-.21-.34-.45-.51-.68-.03-.05-.04-.11-.08-.15-.44-.56-.73-1.21-1.13-1.8-.1-.15-.17-.29-.21-.46-.09-.42-.27-.81-.51-1.16-.16-.24-.27-.5-.28-.79,0-.32-.12-.61-.24-.9-.12-.3-.19-.59-.14-.91.04-.28.04-.57-.07-.84-.17-.42-.13-.84,0-1.25.09-.28.11-.56.01-.84-.02-.05-.04-.11-.05-.16-.04-.23-.02-.44.1-.65.26-.44.53-.87.73-1.34.05-.13.16-.23.25-.33.11-.13.22-.26.34-.38.48-.48.96-.97,1.45-1.44.18-.18.4-.31.63-.43.47-.26.94-.52,1.43-.75.26-.12.5-.28.73-.44.4-.28.81-.52,1.3-.62.16-.04.32-.12.48-.18.3-.1.59-.21.89-.28.97-.23,1.96-.29,2.96-.28.11,0,.23.01.34.03.56.1,1.12.2,1.67.31.2.04.37.13.51.28.18.21.44.36.54.65.02.07.11.12.18.17.04.04.09.07.14.09.68.25,1.24.68,1.81,1.1.02.02.04.04.06.06.73.35,1.28.92,1.85,1.48.34.34.75.61,1.12.91.13.11.28.2.42.3.57.4.86.97.98,1.63.11.61.22,1.23.3,1.85.06.51.06,1.02.08,1.53ZM59.06,106.02c0,.2,0,.4,0,.6-.02.51.22.93.42,1.37.47.6.86,1.27,1.43,1.8.45.43.9.86,1.36,1.29.57.53,1.27.74,2.03.73.54-.01,1.07-.07,1.61-.13,1.21-.14,2.41-.39,3.54-.86.19-.08.35-.18.5-.31.58-.53.94-1.2,1.22-1.92.05-.13.05-.28.05-.42.03-.51-.07-1.01-.07-1.52,0-.74-.16-1.47-.29-2.19-.06-.33-.2-.65-.32-.97-.1-.27-.27-.49-.49-.69-.6-.52-1.18-1.06-1.79-1.57-.35-.29-.73-.54-1.09-.81-.28-.21-.61-.32-.96-.3-.29.02-.56-.03-.84-.1-.33-.08-.66-.15-1-.2-.57-.09-1.13,0-1.69.1-.92.15-1.73.53-2.44,1.13-.33.28-.59.61-.71,1.03-.15.49-.28.98-.24,1.5.01.14-.02.28-.04.42-.1.67-.22,1.34-.19,2.03Z"/>
</svg>