<?xml version="1.0" encoding="UTF-8"?>
<svg id="Layer_1" data-name="Layer 1" xmlns="http://www.w3.org/2000/svg" viewBox="0 0 128 128">
  <defs>
    <style>
      .cls-1 {
        stroke-width: 0px;
      }
    </style>
  </defs>
  <path class="cls-1" d="M51.94,49.44c-.13-.17-.13-.37-.16-.57-.02-.13.06-.16.15-.22.11-.07.13-.26.03-.31-.27-.14-.32-.36-.28-.63,0-.05.03-.09.06-.13.24-.33.25-.36.09-.63-.04-.06-.11-.12-.08-.2.12-.32-.15-.63-.04-.95-.13-.34-.1-.7-.08-1.04.02-.37,0-.74.04-1.11.02-.19-.02-.34-.16-.47-.05-.05-.07-.13-.08-.2,0-.42-.02-.84,0-1.27.01-.25,0-.49-.04-.74-.07-.49-.11-.99-.05-1.49.04-.37.04-.75-.02-1.12-.02-.15-.03-.3-.03-.45.02-.6-.06-1.19-.02-1.79,0-.05,0-.1,0-.15-.18-.63-.11-1.29-.23-1.92-.02-.12-.02-.25-.01-.37.04-.63-.03-1.25-.08-1.87-.04-.52-.07-1.04.05-1.56.04-.19.03-.4.04-.6,0-.28.07-.54.18-.8.12-.27.32-.51.37-.82.11-.14.21-.29.33-.4.15-.13.32-.25.49-.35.1-.06.23-.11.35-.13.83-.13,1.58.06,2.28.52.21.14.41.28.62.41.18.11.3.25.33.47.04.3.18.57.32.83.08.15.17.3.24.46.05.11.11.23.11.35.03.68.21,1.33.31,1.99.08.52.15,1.03.09,1.56-.05.44-.03.9-.04,1.35,0,.2,0,.4,0,.6,0,.15-.04.3-.15.41-.15.16-.19.35-.17.55.09.97.14,1.94.26,2.91.1.77.23,1.53.3,2.3.08.89.19,1.79.21,2.69.02,1.02.1,2.04.16,3.06.13.56.12,1.14.14,1.71,0,.1,0,.2.02.3.17.96.21,1.93.37,2.89.01.07.02.15.03.22.07.8.13,1.59.21,2.39.07.75.14,1.49.24,2.23.08.59.2,1.18.19,1.78,0,.02,0,.05,0,.07.14.69.1,1.39.14,2.09.05.95.14,1.89.2,2.84.02.25.03.5.02.75,0,.27-.03.55-.03.82,0,.27.07.54,0,.82-.02.07.01.15.02.22.03.27.07.55,0,.82-.01.05-.03.11-.01.15.13.32.02.64,0,.96-.03.35-.03.7-.01,1.05.03.77.07,1.55.13,2.32.07.95.12,1.89.13,2.84,0,.7.03,1.4.1,2.09.06.57.08,1.15.11,1.72.02.37.04.75.05,1.12.05,1.98.07,1.65.32,3.57.03.25.05.49.1.74.04.21.01.44.03.67.03.32.03.65.16.95.09.22.01.44-.01.67-.02.17,0,.34.12.49.1.12.09.29.03.43-.12.25-.02.49,0,.73.31.29.07.67.16,1-.13.34.01.68-.01,1.03,0,.09.05.19.08.28.03.12.08.24.09.36.02.15.02.3.02.45,0,.8.13,1.59.17,2.39.02.4.1.79.16,1.19.02.14.07.3.16.42.15.22.21.45.24.7.01.12.04.25.07.37.18.55.26,1.11.37,1.67.11.57.09,1.14.11,1.71,0,.05,0,.11-.02.14-.22.34-.22.76-.38,1.13-.13.3-.23.61-.44.86-.06.08-.12.16-.16.25-.24.59-.75.85-1.28,1.07-.3.12-.64.1-.96.04-.7-.14-1.33-.42-1.88-.88-.32-.27-.52-.61-.58-1.01-.05-.37-.16-.73-.08-1.11.01-.07,0-.15,0-.22-.07-.57-.15-1.14-.23-1.71-.02-.17-.08-.34-.11-.51-.03-.15-.08-.29-.08-.44,0-.3-.03-.59-.22-.85-.06-.09-.06-.24-.05-.36.02-.17.04-.34-.01-.52-.1-.31-.03-.65-.15-.96-.12-.31-.16-.63-.2-.95-.03-.22-.06-.44-.08-.67-.08-.62-.13-1.24-.34-1.83-.03-.09-.04-.19-.05-.29-.09-1-.29-1.98-.42-2.96-.1-.74-.2-1.48-.25-2.23-.03-.5-.12-.99-.2-1.48-.06-.37-.1-.74-.1-1.12,0-.37.05-.75-.08-1.11-.02-.06,0-.15.01-.22.02-.28.02-.54-.12-.8-.06-.1-.06-.24-.07-.36-.02-.17-.03-.35-.04-.52-.01-.4-.04-.79,0-1.19.04-.37,0-.75,0-1.12,0-.07,0-.16-.03-.22-.19-.38-.12-.78-.12-1.17,0-.22,0-.45-.04-.67-.09-.47-.02-.95-.16-1.41-.01-.04,0-.1,0-.15.12-.68.04-1.34-.1-2-.02-.1-.03-.2-.03-.3,0-1.05-.13-2.09-.17-3.14,0-.15-.03-.3-.02-.45.05-.7-.04-1.4-.08-2.09,0-.1-.02-.2-.06-.29-.14-.34-.1-.69-.06-1.03.01-.15.06-.29.07-.44.01-.2.02-.4,0-.6-.05-.52,0-1.04-.03-1.57-.04-.45-.06-.9-.07-1.35-.01-.52,0-1.05-.01-1.57,0-.12-.03-.25-.04-.37-.03-.4-.04-.8-.08-1.19-.04-.37,0-.75-.11-1.11-.05-.16-.04-.35-.04-.52,0-.1,0-.2.08-.28.07-.08.11-.17.1-.27-.03-.37-.06-.74-.09-1.11,0-.03-.07-.06-.11-.06-.1,0-.13-.06-.1-.14.03-.09.12-.18.12-.26-.01-.42.08-.84,0-1.26-.05-.29-.11-.59-.02-.89-.04-.34-.09-.69-.13-1.03,0-.07-.02-.15-.03-.22h-.02c0-.05,0-.12,0-.18h.02c.02-.13.06-.26.07-.4.02-.2-.03-.37-.22-.47h.02Z"/>
  <path class="cls-1" d="M90.03,80.12c.05-.05.11-.1.16-.16.07-.08.12-.16.11-.27-.02-.22-.04-.45-.06-.66-.13-.13-.25-.25-.36-.39-.03-.04,0-.14.01-.2.04.02.09.04.13.05.02,0,.05,0,.08,0,.01-.02.04-.04.04-.06,0-.65,0-1.3-.11-1.94-.03-.2-.04-.4-.06-.6-.02-.17-.02-.35-.11-.51-.08-.16-.09-.33-.08-.51,0-.1.01-.22-.04-.29-.11-.15,0-.35-.13-.49-.03-.03-.05-.11-.04-.13.12-.2.06-.37-.03-.56-.12-.26-.04-.54-.06-.81,0-.04.04-.09.08-.11.13-.08.17-.22.12-.32-.13-.29-.09-.58-.09-.88,0-.27-.05-.55-.05-.82,0-.27.04-.55-.14-.79-.03-.04-.02-.1-.03-.14-.02-.2-.05-.39-.07-.59,0-.07-.01-.16.02-.22.11-.19.1-.38.09-.58,0-.45-.01-.9-.01-1.35,0-.02,0-.05,0-.07,0-.2-.14-.37-.09-.58.04-.19.06-.4.06-.59,0-.65-.01-1.3-.02-1.95,0-.35.01-.7-.03-1.04-.05-.35-.04-.69-.04-1.04,0-.65-.08-1.29-.05-1.94.01-.28-.1-.54-.15-.81-.06-.34-.13-.68-.1-1.04.03-.27-.06-.55-.05-.82,0-.27.08-.54.11-.81.01-.1,0-.2,0-.3-.04-.9-.08-1.8-.12-2.69-.02-.42-.04-.84-.02-1.27.02-.37-.02-.75-.03-1.12,0-.35.06-.69-.01-1.04-.02-.09,0-.2.01-.29,0-.1.05-.21.02-.3-.11-.34-.01-.69-.08-1.03-.07-.34-.02-.7-.04-1.05-.01-.32-.02-.65-.19-.95-.08-.13-.08-.28-.06-.43.09-.57.13-1.14.09-1.71-.04-.45-.01-.9-.1-1.34-.04-.19-.04-.4,0-.6.06-.34,0-.65-.14-.95-.1-.22-.09-.43-.07-.66.1-.79.2-1.58.17-2.39.3-.51.63-1.01.7-1.63,0-.05.02-.1.05-.14.26-.41.59-.75,1.05-.92.41-.14.82-.2,1.24,0,.13.06.29.08.43.13.26.09.52.18.74.35.24.18.48.35.76.46.24.1.4.3.53.52.29.52.59,1.04.64,1.66.02.22.09.44.16.65.1.34.16.68.2,1.03.04.39.05.8.25,1.16.04.08.04.2.02.29-.07.33-.02.65.03.97.18,1.22.19,2.43,0,3.65-.21,1.28-.23,2.2-.08,3.5.02.15.05.3.08.44.09.44.15.89.15,1.34,0,.53.06,1.05.16,1.56.03.17.05.34.04.52-.01.37,0,.75-.01,1.12,0,.15.01.3-.01.45-.1.6-.1,1.19-.07,1.79.03.65,0,1.3-.05,1.95-.01.15-.03.3-.03.45-.02.55.14,1.09.07,1.64-.06.52.03,1.05.1,1.57.02.12.02.25.04.37.04.31.01.59-.23.83-.11.11-.13.27-.11.42.03.42.07.85.09,1.27.03.75.06,1.49.08,2.24.01.45.04.9.13,1.34.07.34.1.69.14,1.04.03.3.05.59.13.89.05.16.03.35.04.52.02.4.04.8.15,1.19.05.19.07.4.05.59-.05.53,0,1.05.1,1.56.04.22.08.44.04.67-.07.45-.03.9.06,1.34.06.27.08.54,0,.81-.05.16-.06.34-.06.52,0,.3.02.6.05.9.07.7.12,1.39.02,2.09-.03.22-.01.45.01.67.06.52.07,1.05.06,1.57-.01.68.09,1.34.31,1.99.07.19.1.38.12.58.05.67.14,1.34.39,1.98.06.16,0,.29-.12.4-.13.11-.27.22-.4.33-.04.62-.02,1.21.08,1.81.11.64.22,1.28.2,1.93,0,.18,0,.35-.07.51-.07.16-.09.33-.08.51.03.53-.23.96-.57,1.34-.37.42-.82.72-1.4.8-.15.02-.29.08-.44.1-.53.08-1.04.04-1.5-.28-.1-.07-.21-.13-.31-.2-.06-.04-.14-.1-.15-.16-.05-.32-.27-.52-.49-.73-.07-.06-.09-.17-.14-.26-.06-.11-.12-.22-.18-.33-.11-.22-.25-.43-.33-.66-.08-.21-.09-.44-.14-.66-.05-.19-.12-.38-.2-.56-.14-.31-.17-.63-.04-.94.08-.19.09-.38.05-.58-.06-.34-.09-.69-.13-1.04,0-.05,0-.1,0-.15,0-.15.15-.26.11-.43-.03-.15-.06-.3-.07-.44,0-.15.03-.3.05-.44.04-.47.08-.95-.08-1.41h-.02c.13-.11.06-.27.08-.41.04-.27.04-.54-.04-.81-.01-.03-.07-.06-.11-.08,0,0-.04.02-.04.03,0,.37-.14.74-.04,1.11,0,0,.01-.02.01-.02-.07-.36-.14-.73-.2-1.09-.06-.34-.11-.69-.15-1.03-.03-.22-.05-.44.01-.66h-.01c.08-.04.16-.09.24-.14.06-.35.09-.68-.02-1.02-.05-.16-.03-.34-.05-.52-.12-.11-.24-.23-.36-.35h0c.18-.19.24-.42.24-.67,0-.14-.06-.22-.21-.25-.14-.03-.15-.18-.19-.29h-.01ZM90.85,84.1c-.04.06-.08.12-.11.18-.02.06.02.1.07.09.01,0,.03-.04.03-.06,0-.07,0-.14,0-.21-.03-.04-.06-.08-.07-.12-.02-.07-.03-.14-.05-.22-.02-.07-.05-.08-.09-.04-.02.02-.02.04-.03.07-.03.2.12.24.24.32Z"/>
  <path class="cls-1" d="M32.87,87.07c-.03-.27-.05-.55-.09-.81-.05-.3-.09-.59-.07-.89.03-.43,0-.85-.07-1.27-.05-.34-.06-.69-.09-1.04-.02-.32-.04-.65-.06-.97,0-.07-.03-.15-.01-.22.1-.37.07-.74-.03-1.11-.05-.19-.05-.4.01-.59.15-.48.15-.98.15-1.48,0-.47-.04-.95,0-1.42.02-.19-.01-.4-.07-.59-.08-.25-.08-.49-.02-.74.06-.25.06-.49.02-.74-.04-.3-.02-.59,0-.89.06-.6.07-1.2-.04-1.79-.04-.25-.07-.49,0-.74.09-.29.08-.6.03-.89-.08-.42-.09-.84-.08-1.27,0-.22.01-.45,0-.67-.02-.25-.03-.5-.11-.74-.14-.42-.09-.84-.06-1.26,0-.07.03-.16.08-.2.19-.2.2-.44.2-.69,0-1.37-.1-2.74-.17-4.11-.16-.76-.12-1.54-.13-2.31-.02-1.1-.11-2.19-.19-3.29-.03-.45-.07-.9-.06-1.35,0-.8-.03-1.6.06-2.4.02-.2,0-.4,0-.6-.05-1.12-.07-2.24-.07-3.37,0-.57-.05-1.15-.07-1.72-.02-.45-.04-.9-.06-1.35-.02-.72-.03-1.45-.06-2.17-.01-.32-.07-.64-.11-.96-.02-.16-.12-.27-.21-.39-.14-.19-.18-.38-.15-.63.08-.49.08-.99-.05-1.49-.04-.17-.04-.35-.05-.52-.02-.22-.04-.45-.06-.67-.01-.2-.04-.4-.01-.59.04-.25.03-.49-.04-.74-.08-.29-.14-.58-.07-.89.02-.09.02-.2,0-.3-.11-.43,0-.84.11-1.25.07-.26.14-.53.22-.79.07-.25.23-.44.43-.6.29-.23.64-.29.99-.26.48.04.94.19,1.34.44.58.36,1.04.85,1.23,1.54.1.38.21.77.3,1.16.02.1.04.2.04.29,0,.23.06.44.13.66.04.14.05.29.07.44,0,.07,0,.15,0,.22,0,.3.22.56.16.87-.06.3-.03.59,0,.89.03.2.02.39,0,.59-.04.29-.03.59-.05.89,0,.02,0,.05,0,.07.14.33.14.67.1,1.03-.03.35.04.69.02,1.05-.02.35.04.7.07,1.04.03.25.07.49.12.74.03.15.03.3,0,.44-.07.4-.05.8.06,1.18.05.2.07.39.04.59-.05.38-.02.75.07,1.11.04.17.08.35.04.52-.08.33-.04.65.05.96.09.34.12.69.11,1.04,0,.27,0,.55,0,.82,0,.1.01.2.01.3,0,.2.18.36.14.57-.03.17-.08.34-.09.52,0,.12.02.25.06.36.12.29.15.58-.01.86-.12.21-.12.44-.06.65.11.35.1.68,0,1.03-.08.29-.07.6.03.89.09.27.11.53.06.81-.05.28-.03.54.15.79.05.07.06.19.07.28.04.6.1,1.19.11,1.79.01.45.06.9.15,1.34.07.32.1.64.11.97,0,.58.06,1.15.24,1.7.05.15.04.29,0,.44-.12.49-.13.99-.05,1.49.03.17.03.34.01.52-.06.52-.05,1.04.13,1.55.07.19.06.39.05.59-.03.35-.02.7-.05,1.05-.04.47.06.89.4,1.23.12.12.14.28.05.41-.2.33-.17.65-.07,1,.11.41.23.81.23,1.25,0,.35.04.69-.09,1.03-.05.13-.04.3-.03.44.02.42.04.85.19,1.25.06.17.08.35.01.51-.12.29-.12.58-.08.88.03.2,0,.4.04.6.06.27.07.54,0,.81-.05.25-.02.5.06.74.09.27.09.53.05.81-.09.6-.05,1.19.11,1.78.04.14.09.29.11.44.02.12.04.25,0,.37-.12.45-.08.89-.04,1.34.01.12.06.26.02.37-.12.39-.05.79-.06,1.19-.02.44,0,.89-.19,1.32-.11.25-.09.54-.07.81.02.2,0,.4-.1.58-.12.23-.15.47-.12.73.05.5-.17.92-.37,1.34-.12.25-.3.46-.44.69-.12.2-.3.33-.48.46-.04.03-.09.06-.13.07-.57.11-1.14.18-1.69-.05-.43-.18-.76-.47-.91-.93-.06-.17-.13-.32-.23-.47-.29-.44-.46-.93-.63-1.43-.09-.28-.17-.57-.24-.86-.04-.17-.08-.34-.11-.51-.02-.12-.03-.25-.05-.37-.04-.2-.07-.39-.12-.59-.06-.2.05-.39.06-.59Z"/>
  <path class="cls-1" d="M72.24,57.86c-.06.01-.09-.01-.11-.07-.03-.09-.05-.19-.09-.27-.01-.02-.09-.03-.13-.01-.04.01-.1.07-.1.1.01.15.02.3.07.44.09.29.17.57.17.88,0,.07.03.16.07.2.12.11.15.25.16.4.03.35.07.69.11,1.04,0,.07.02.16,0,.22-.17.47-.07.95-.03,1.41.06.62.06,1.25.08,1.87.02.62,0,1.25,0,1.87,0,.37.01.75.17,1.1.03.07.07.15.05.21-.11.44.07.9-.14,1.33-.05.1-.03.24-.03.37,0,.06-.03.18.06.18.07,0,.04-.12.07-.18,0-.02.02-.05.04-.06.02,0,.06,0,.06,0,.02.26.14.47.31.66.12.13.17.3.2.48.04.3.08.59.12.89.01.07,0,.15.02.22.05.27.12.54.15.81.03.27,0,.55.04.82.09.52.12,1.04.28,1.55.03.09.06.21.03.29-.11.3,0,.59-.02.89-.02.28-.02.55.07.81.03.09.05.2.03.3-.08.37,0,.75-.02,1.12-.02.37-.07.74-.09,1.12-.02.23-.1.44-.25.61-.13.16-.21.32-.24.53-.03.22-.18.4-.39.52-.15.09-.29.19-.43.3-.18.14-.37.26-.6.27-.05,0-.11,0-.14.03-.23.18-.52.13-.77.23-.13.05-.25.03-.34-.06-.14-.15-.29-.27-.47-.36-.21-.11-.48-.08-.66-.31-.15-.19-.38-.32-.56-.49-.13-.12-.24-.27-.25-.45-.01-.23-.12-.43-.2-.64-.11-.26-.17-.51-.19-.79-.04-.45-.21-.87-.35-1.3-.08-.23-.22-.46-.11-.72-.04-.17-.08-.34-.11-.51-.05-.21.03-.4.21-.51.11-.06.23-.1.33-.17.05-.04.11-.14.1-.18-.16-.42-.16-.88-.28-1.31-.12-.46-.16-.93-.15-1.41,0-.3-.02-.6-.09-.89-.08-.31-.13-.64-.17-.96-.05-.32-.09-.64-.05-.97.03-.32,0-.64-.06-.96-.06-.39-.04-.8-.06-1.19,0-.1,0-.2,0-.3,0-.2-.14-.38-.09-.59.04-.17.03-.34,0-.52-.02-.14.02-.29.04-.44.02-.27.06-.54-.04-.81-.06-.16-.04-.34-.05-.52-.02-.42-.04-.84-.11-1.27-.07-.39-.06-.8-.07-1.19,0-.1,0-.21.02-.3.12-.34.17-.68.11-1.03.1-.45.03-.89.03-1.34,0-.25-.04-.49.05-.74.06-.19.02-.4-.04-.59-.1-.29-.11-.58-.06-.88.08-.47.02-.95-.03-1.42-.03-.27-.04-.54-.04-.82,0-.25-.02-.5-.04-.75,0-.07-.02-.16-.06-.21-.29-.33-.24-.75-.32-1.13-.07-.34-.11-.69-.07-1.04.02-.17-.02-.35-.07-.51-.16-.45-.09-.89,0-1.33.1-.46.26-.91.41-1.36.18-.54.55-.88,1.12-.97.3-.05.6-.05.89.02.34.08.68.16,1.02.24.18.04.33.14.43.28.31.42.65.82.84,1.32.1.25.22.5.36.74.13.23.21.51.27.77.13.66.28,1.32.28,2,0,.1.01.2.03.3.08.45.05.89.02,1.34-.04.62-.03,1.25-.04,1.87,0,.18.02.35-.07.51-.09.16-.12.32-.05.5.11.29.06.59.05.89ZM67.49,61.99c0-.05,0-.08,0-.1-.02-.04-.05-.08-.07-.12-.02.04-.06.08-.07.12,0,.07,0,.15.02.22,0,.07.04.09.07.07.02-.01.02-.04.03-.07,0-.05.01-.1.02-.12Z"/>
  <path class="cls-1" d="M21.21,75.88c-.04-.43-.08-.85-.11-1.27-.05-.6-.04-1.2-.14-1.79-.02-.12,0-.25,0-.37-.04-.62-.05-1.25-.15-1.87-.06-.34-.09-.7-.08-1.04.03-.9-.11-1.79-.19-2.69-.01-.15-.04-.3-.06-.45-.04-.32-.06-.64-.04-.97.02-.4-.01-.8-.04-1.2-.14-1.79-.3-3.58-.38-5.38-.06-1.25-.04-2.5-.03-3.75,0-.6.04-1.2-.01-1.8-.07-.9-.11-1.79-.03-2.69.03-.32.04-.65-.05-.97-.04-.15-.03-.29,0-.45.03-.17.04-.35,0-.52-.06-.23,0-.44.14-.64.13-.18.25-.37.39-.55.28-.37.64-.63,1.09-.75.29-.08.59-.12.88-.17.07-.01.15,0,.22.01.12.02.24.07.37.08.5.05.9.28,1.25.61.09.08.19.18.22.29.1.37.28.69.57.95.13.12.18.3.17.48,0,.12,0,.25-.03.37-.04.18-.04.34.01.52.08.29.12.58.05.89-.03.14.01.3.04.44.09.61.12.63-.04,1.1-.11.32-.16.62-.1.95.01.07.02.15,0,.22-.09.42-.08.84-.03,1.27.01.1,0,.2,0,.3-.07.56-.01,1.1.18,1.62.06.17.09.34.04.51-.07.25-.05.49.02.74.09.39.18.77.16,1.18-.02.37.06.74-.01,1.12-.05.27-.02.55,0,.82.04.35.04.7.04,1.05,0,.4,0,.8.05,1.2.02.17.01.35-.01.52-.05.37-.08.75,0,1.12.03.13.02.25-.02.37-.1.37-.09.74,0,1.11.03.12.05.25.03.37-.06.33-.03.65.06.96.03.1.03.2.05.29.07.24.09.48.04.74-.03.17-.04.35,0,.52.06.28.05.54-.03.81-.04.14-.01.3,0,.44.08.54.16,1.09.24,1.63.02.15.03.3.03.45,0,.8,0,1.6.02,2.4,0,.3.05.6.05.9,0,.27-.04.55-.05.82,0,.17-.03.35,0,.52.06.46-.06.89-.22,1.32-.11.31-.22.61-.33.91-.04.09-.08.2-.15.25-.25.2-.51.4-.78.57-.1.06-.23.09-.35.09-.15,0-.3,0-.44-.04-.29-.07-.57-.17-.86-.25-.43-.13-.75-.38-.95-.79-.11-.22-.23-.43-.27-.69-.04-.24-.15-.46-.15-.72,0-.35-.09-.69-.17-1.03-.08-.34-.15-.68-.09-1.03Z"/>
  <path class="cls-1" d="M108.36,53.32c-.07.4-.08.79.03,1.18.05.19.04.4.03.59-.04.52-.03,1.05-.11,1.57-.06.38,0,.75.19,1.09.05.09.08.18.13.27.07.12.08.24.02.36-.13.25-.14.52-.17.79-.05.47,0,.94-.05,1.41,0,.1,0,.2.02.3.08.32-.01.65.06.96.08.32.05.65.11.96.07.34.01.69.05,1.04.04.32.17.63.11.96-.06.32.11.64.01.96.13.59.02,1.19.07,1.78.03.33-.08.64-.04.96.04.32-.02.65,0,.97.02.44.02.89.17,1.32.11.32.14.68.15,1.03.02.5-.01,1,.16,1.48.04.11.03.25,0,.37-.06.25-.05.49,0,.74.06.3.04.6.06.89.02.32.07.64-.01.96-.04.17,0,.35.06.51.07.19.12.39.05.59-.11.3-.11.63-.34.9-.26.31-.51.61-.85.83-.17.1-.35.19-.56.2-.15,0-.3.01-.45.04-.61.1-1.13-.1-1.59-.48-.13-.11-.25-.24-.37-.37-.27-.32-.53-.66-.82-.98-.16-.18-.23-.38-.26-.61-.03-.22-.02-.44-.13-.66-.11-.22-.22-.46-.27-.7-.05-.24-.02-.5-.03-.74,0-.1,0-.2-.04-.29-.06-.17-.07-.33,0-.51.08-.22.06-.45.01-.67-.16-.76-.23-1.53-.36-2.29-.18-1.08-.34-2.17-.54-3.24-.03-.15-.07-.3-.07-.44.01-.7-.04-1.4.06-2.09.03-.25.05-.5.05-.75,0-1.27-.02-2.55-.16-3.81-.03-.22-.04-.44,0-.67.03-.2.03-.4.03-.6,0-.62-.01-1.25.01-1.87.02-.49.12-.99,0-1.48.08-.73-.02-1.44-.12-2.16-.01-.1-.04-.2-.02-.3.06-.32.01-.65,0-.97-.01-.23.04-.44.15-.64.14-.26.29-.52.51-.72.13-.12.26-.24.36-.38.22-.33.54-.5.9-.63.14-.05.29-.08.43-.12.25-.07.49-.05.73.05.25.1.51.21.76.32.31.13.55.34.72.63.24.38.46.77.57,1.21.08.3.21.55.45.76.05.05.1.11.15.18ZM102.98,66.12s-.02-.04-.03-.05c-.01.01-.03.03-.04.04-.01.06,0,.08.05.06.01,0,0-.04.01-.05Z"/>
  <path class="cls-1" d="M42.39,67.92c-.03-.31-.05-.68-.1-1.05-.05-.35-.09-.69-.06-1.04.03-.3.02-.6-.04-.9-.03-.15-.04-.3-.04-.45,0-.43-.04-.84-.15-1.26-.05-.17-.03-.35-.05-.52-.03-.27-.03-.55-.1-.81-.09-.32-.11-.63-.1-.96.02-.55.02-1.1-.13-1.63-.05-.19-.04-.4-.04-.6.01-.38-.03-.75-.16-1.1.02-.35.12-.69.06-1.04-.04-.24-.09-.49-.14-.73-.02-.1-.09-.2-.08-.29.05-.37.03-.74-.06-1.11-.03-.11.02-.25.07-.36.26-.51.5-1.03.88-1.47.06-.07.14-.14.22-.2.14-.1.3-.18.44-.28.31-.2.64-.24,1-.19.82.14,1.59.41,2.34.76.11.05.24.1.32.19.3.3.62.58.94.85.07.06.11.17.14.26.14.45.28.91.4,1.36.03.12.02.25,0,.37-.01.15-.06.29-.07.44-.04.35-.06.7.08,1.03.09.21.04.39-.1.56-.05.06-.1.11-.15.16-.12.11-.16.25-.17.4-.03.38-.02.75.07,1.12.07.27.08.54.08.82,0,.25,0,.5.01.75,0,.25.03.5.13.73.1.24.11.47.05.73-.11.47-.08.95.04,1.41.05.2.1.39.05.59-.07.3-.05.59,0,.89.04.25.04.49.03.75-.03.52,0,1.04.12,1.56.06.26.06.54.07.82.01.45,0,.9.08,1.34.02.1.02.2,0,.29-.11.42-.09.84,0,1.26.06.25.06.49.04.74-.04.38-.04.75.1,1.11.04.11.04.24.05.37.02.15.02.3.05.44.05.22.06.44,0,.67-.07.25,0,.5.04.74.03.15.04.29,0,.44-.02.07-.06.15-.04.22.1.46-.11.88-.18,1.32-.05.32-.2.54-.43.76-.61.56-.52.47-1.26.48-.45,0-.9-.07-1.29-.31-.08-.05-.18-.11-.23-.18-.2-.31-.5-.56-.62-.93-.02-.05-.03-.1-.06-.14-.56-.91-.8-1.93-.99-2.96-.07-.39-.12-.79-.19-1.18-.03-.2-.07-.39-.14-.58-.07-.21-.09-.44-.11-.66-.03-.38-.09-.74-.25-1.09-.09-.19-.12-.38-.12-.58,0-.25,0-.5-.08-.74-.15-.43-.21-.87-.14-1.39Z"/>
  <path class="cls-1" d="M84.37,66.89c.02.1.02.2.06.29.1.24.14.49.1.73-.06.35.04.7.03,1.04,0,.09.03.2.07.28.16.33.19.67.15,1.02-.01.1,0,.2,0,.3.03.45.07.89.1,1.34.01.2.04.4.18.56.09.1.11.22.12.35.03.3.06.59.1.89.07.57.09,1.14.02,1.71-.05.43-.21.82-.5,1.15-.29.33-.64.55-1.07.62-.15.02-.3.05-.44.07-.48.09-.94-.02-1.4-.15-.14-.04-.28-.12-.36-.25-.18-.3-.43-.55-.62-.84-.19-.3-.38-.57-.35-.95.01-.16-.09-.33-.16-.49-.07-.14-.13-.27-.12-.43.03-.43-.07-.84-.18-1.25-.1-.39-.16-.78-.19-1.18-.05-.72-.23-1.42-.31-2.14-.16-.4-.21-.82-.25-1.24-.01-.12-.05-.24-.09-.36-.05-.14-.08-.29-.05-.44.06-.25.03-.51-.05-.74-.11-.31-.12-.63-.21-.94-.07-.24-.07-.49-.1-.74-.02-.13-.09-.22-.19-.31-.2-.17-.2-.21-.12-.43.02-.05.05-.09.08-.13-.03.06-.05.12.04.15,0,0,.03-.04.03-.04-.03-.03-.06-.06-.09-.09-.02-.27-.02-.55-.21-.78-.06-.07-.07-.19-.07-.28,0-.2.02-.4.03-.6,0-.1.02-.21-.01-.29-.09-.22-.07-.44-.02-.66.02-.12.05-.25.03-.37-.07-.37-.09-.74-.13-1.11-.03-.32-.15-.63-.15-.96,0-.3,0-.6,0-.89,0-.1.02-.2.05-.29.05-.17.12-.33.16-.5.1-.44.38-.75.71-1.02.11-.09.26-.15.37-.25.22-.2.5-.22.76-.29.05-.01.1-.02.15,0,.52.08,1.02.21,1.38.65.27.32.59.61.88.91.17.18.36.34.59.45.39.19.62.5.72.91.14.58.24,1.17.35,1.76.04.23,0,.45-.19.62-.13.11-.15.26-.14.41.07.74.12,1.49.28,2.22.08.37.08.74.13,1.11,0,0,0,.04,0,.04l-.02-.06c.14.19.14.41.15.63.01.31-.03.62.12.92.07.14-.07.27-.15.38,0-.05.09-.09.01-.14,0,.04,0,.09-.01.13Z"/>
  <path class="cls-1" d="M13.7,72.87c-.12.04-.21.07-.3.11-.49.22-.97.19-1.44-.04-.13-.06-.28-.11-.41-.18-.07-.03-.13-.07-.18-.13-.17-.21-.33-.43-.5-.65-.11-.14-.16-.31-.17-.49-.02-.23-.07-.44-.17-.65-.14-.28-.16-.57-.13-.88.03-.3,0-.6-.06-.89-.08-.37-.1-.74-.1-1.12,0-.52,0-1.04-.04-1.57-.03-.35-.09-.7-.05-1.04.04-.33-.02-.65-.01-.97.02-.35.05-.7.07-1.04,0-.07,0-.15,0-.22-.11-.97-.07-1.95-.25-2.91-.03-.15-.05-.3-.05-.45.03-1.03-.15-2.04-.23-3.06-.04-.45-.05-.9-.16-1.33-.02-.1-.02-.2-.02-.3.01-.65,0-1.3.05-1.94.07-.84.44-1.4,1.24-1.69.07-.03.14-.05.21-.07.27-.08.53-.08.81-.02.52.11,1,.29,1.48.51.24.11.38.32.49.55.04.09.05.19.07.29.08.36.34.67.3,1.07-.03.35.14.68.1,1.04-.01.1,0,.2.04.3.16.5.19,1.03.25,1.55.07.59.07,1.19.08,1.79,0,.25-.02.5-.02.75,0,.32-.02.65.02.97.13,1.11.18,2.23.27,3.35.05.65.03,1.3.03,1.94,0,.52,0,1.05.06,1.57.03.25.03.5,0,.75-.06.65-.05,1.29-.06,1.94,0,.07,0,.15-.01.22-.09.54-.18,1.08-.27,1.62-.03.18-.11.32-.23.46-.23.26-.44.54-.7.85Z"/>
  <path class="cls-1" d="M118.87,72.14c-.2-.04-.35-.09-.5-.09-.23,0-.44-.07-.65-.15-.11-.05-.23-.11-.32-.19-.2-.18-.39-.38-.59-.57-.11-.11-.17-.24-.23-.38-.13-.35-.25-.7-.45-1.03-.06-.1-.1-.24-.1-.35.02-.33-.06-.64-.13-.96-.08-.39-.1-.79-.24-1.17-.02-.05-.04-.1-.02-.15.1-.38-.14-.73-.08-1.11.02-.17,0-.35-.02-.52-.1-.67-.22-1.33-.33-1.99-.06-.37-.12-.74-.15-1.11-.05-.55-.17-1.08-.26-1.62-.08-.49-.15-.98-.16-1.48,0-.27-.05-.54-.08-.82-.05-.38-.03-.75.04-1.12.03-.15.09-.3.27-.32.21-.02.29-.15.36-.33.07-.17.22-.27.42-.23.25.05.49.02.74-.04.46-.1.94-.1,1.41-.07.18,0,.35.07.48.18.46.38.99.68,1.39,1.13.05.06.11.1.15.17.26.48.53.96.64,1.51.07.34.18.68.25,1.02.07.32.13.63.19.95.03.2.06.4.19.56.26.31.3.69.26,1.06-.06.58-.02,1.14.05,1.71.09.69.22,1.38.28,2.07.07.84.12,1.69.27,2.52.03.19.02.4.02.59,0,.36-.18.67-.4.95-.03.04-.08.06-.13.07-.18.02-.3.13-.44.24-.23.18-.5.33-.77.45-.45.22-.91.41-1.38.61Z"/>
  <path class="cls-1" d="M89.26,70.58s0-.09,0-.14c0-.02.02-.04.03-.06.02.02.06.05.07.07.01.04,0,.09,0,.14,0,.04-.02.09-.04.13-.03.04-.07-.03-.07-.14Z"/>
  <path class="cls-1" d="M72.27,58.72s-.04.08-.06.12c-.03-.03-.06-.06-.08-.1-.01-.02,0-.05,0-.07.02-.04.04-.09.06-.13.02.03.05.07.07.11.01.02,0,.05.01.07Z"/>
  <path class="cls-1" d="M90.04,80.11v-.6c.11.28.12.28,0,.61,0,0,0,0,0,0Z"/>
  <path class="cls-1" d="M90.4,83.35c-.02-.12-.05-.23-.07-.35,0-.02.01-.05.03-.06.05-.03.09,0,.08.06,0,.12-.03.23-.05.35,0,0,.01-.01.01-.01Z"/>
  <path class="cls-1" d="M90.2,81.32c0-.12,0-.24-.01-.36,0-.07.03-.09.08-.06.01,0,.02.05.02.07-.03.12-.06.23-.08.35,0,0,0,0,0,0Z"/>
  <path class="cls-1" d="M89.81,77.18s0,.09,0,.13c0,0-.05,0-.05,0,0-.04,0-.09,0-.13h.06Z"/>
  <polygon class="cls-1" points="78.65 65.45 78.69 65.45 78.67 65.5 78.65 65.45"/>
  <path class="cls-1" d="M106.99,79.64s.01-.04.02-.04c.02,0,.04.01.05.02,0,.01-.01.04-.02.04-.02,0-.03-.01-.05-.02Z"/>
  <path class="cls-1" d="M52.07,50.48s-.03-.08-.04-.12c0-.01.03-.03.04-.05,0,0-.02,0-.02,0,0,.06,0,.12,0,.19h.02Z"/>
  <path class="cls-1" d="M90.91,86.31c-.06-.06-.11-.12-.17-.17,0,0-.01.02-.01.02.05.05.11.11.16.16h.02Z"/>
  <path class="cls-1" d="M51.92,49.43s.02.01.02.01c0,0-.02-.01-.02-.01Z"/>
</svg>