<?xml version="1.0" encoding="UTF-8"?>
<svg id="Layer_1" data-name="Layer 1" xmlns="http://www.w3.org/2000/svg" viewBox="0 0 128 128">
  <defs>
    <style>
      .cls-1 {
        stroke-width: 0px;
      }
    </style>
  </defs>
  <path class="cls-1" d="M15.02,94.77c.05-.09.1-.19.09-.3-.02-.28-.03-.56-.04-.84,0-.09-.01-.18.01-.26.08-.24.04-.47.02-.7-.02-.34,0-.69,0-1.04,0-.17,0-.34,0-.52-.03-1.53-.13-3.06-.21-4.59-.02-.39-.08-.77-.08-1.16,0-.54,0-1.08,0-1.62,0-.37,0-.73,0-1.1-.02-1.19-.05-2.38-.05-3.56,0-1.21.04-2.42.07-3.63,0-.22,0-.43,0-.65,0-.32-.02-.65.04-.97,0-.04,0-.09,0-.13.02-.78.04-1.56.05-2.33.01-.6.03-1.21.04-1.81,0-.17,0-.35,0-.52,0-.5,0-.99-.01-1.49,0-.06,0-.13.01-.19.11-.79.08-1.6.09-2.39.02-1.34.1-2.68.15-4.02.11-.69.09-1.38.13-2.07.07-1.19.16-2.37.26-3.56.06-.77.16-1.55.32-2.31.02-.08.03-.17.03-.26,0-.63.16-1.24.22-1.87.01-.15.04-.3.05-.45.04-.89.17-1.76.29-2.64.11-.86.33-1.7.54-2.53.3-1.22.78-2.37,1.35-3.49.06-.12.12-.23.17-.35.32-.71.73-1.37,1.2-2,.41-.55.83-1.11,1.35-1.57.28-.24.53-.51.78-.78.19-.21.46-.32.62-.56.03-.05.11-.07.17-.1.16-.07.32-.12.4-.3.4-.2.7-.58,1.16-.69,0,0-.01.02-.01.02.06-.03.11-.08.17-.08.14-.01.23-.08.3-.2.05-.08.13-.1.22-.07.12.05.2-.02.28-.09h-.01c.1.01.19-.04.26-.11v.02c.13-.03.13-.04.26-.19.02-.03.06-.05.1-.07h0c.05.04.11.03.16,0h0c.17-.03.25-.18.37-.27,0,0,0,.02,0,.02h-.03c.09-.05.19-.09.28-.15.1-.06.2-.05.31-.04.08,0,.15-.06.23-.09,0,0-.02.02-.02.02.3-.03.57-.11.78-.35.03-.03.07-.04.11-.05h-.02c.04.07.09.11.16.09.08-.02.18-.04.23-.1.11-.11.21-.18.37-.2.32-.03.59-.23.91-.27.07,0,.14-.09.21-.15.1-.08.2-.04.29.02,0,0-.04-.02-.04-.02l.03.03c.06-.11.12-.22.28-.21.1.01.21.02.31-.04.14-.08.29-.18.45-.22.14-.04.28-.1.42-.13.16-.03.27-.1.36-.23.08-.13.23-.08.34-.13,0,0-.01.02-.01.02.07-.05.14-.1.23-.1.08,0,.18,0,.25-.03.13-.06.25-.16.38-.21.12-.05.25-.04.37-.07.06-.02.12-.06.15-.11.13-.15.27-.25.49-.25.13,0,.26-.04.35-.13.15-.15.4-.14.53-.33.06-.08.23.02.33-.12.07-.09.22-.13.33-.18.11-.06.23-.11.34-.17.04.05.05.05.04,0-.02,0-.03,0-.05.01.1-.03.18-.12.3-.09.07.02.12-.02.16-.08.06-.09.14-.14.26-.17.5-.12.5-.13.86-.37.12-.08.26-.15.39-.22h0q.08.07.16,0s0,0,0,0c.14-.1.29-.19.43-.29.1-.08.19-.18.33-.17.32-.18.66-.31.98-.49.41-.24.82-.47,1.24-.7.09-.05.19-.1.26-.18.05-.06.14-.11.22-.12.2-.02.37-.14.53-.23.39-.23.79-.43,1.18-.66.34-.19.65-.42.98-.63.26-.16.53-.3.78-.47.14-.1.27-.22.41-.31.14-.1.3-.17.45-.26.11-.06.22-.14.34-.19.52-.21.98-.54,1.49-.77.49-.22.95-.5,1.42-.77.11-.06.24-.1.35-.16.26-.15.55-.25.78-.46.21-.19.54-.16.78-.31.39-.24.81-.39,1.23-.58.27-.12.54-.26.8-.42.74-.45,1.54-.78,2.32-1.16.39-.19.78-.37,1.16-.58.75-.42,1.51-.84,2.28-1.24.32-.17.68-.28,1.01-.43.22-.1.44-.17.67-.23.57-.16,1.15-.21,1.73-.17.75.06,1.49.19,2.21.46.65.24,1.28.51,1.91.79.36.16.71.32,1.07.47,1.01.44,2.02.88,3.03,1.32.06.03.12.05.18.08.49.27,1,.51,1.48.8.76.46,1.55.86,2.31,1.31.65.39,1.3.78,1.94,1.17.44.27.88.55,1.32.83.59.37,1.17.74,1.75,1.11.04.02.07.05.11.07.56.4,1.12.8,1.69,1.2.46.32.92.64,1.38.96.77.53,1.53,1.06,2.3,1.57.32.22.67.4,1,.59.19.11.37.22.55.34.61.4,1.22.81,1.84,1.22.11.07.22.14.34.18.33.11.62.29.9.5.31.23.62.47,1,.59.1.03.19.1.28.17.25.21.54.35.83.5.23.12.46.24.68.38.23.15.49.28.74.41.25.13.51.23.75.38.24.15.48.29.71.45.34.24.7.42,1.06.63.49.28.96.57,1.44.88.52.34,1.06.66,1.64.91.69.3,1.34.68,2,1.06.56.33,1.08.73,1.69.95.23.23.57.3.8.54.22.06.32.29.52.38.18.08.32.22.46.35.4.36.79.73,1.2,1.08.21.18.44.34.67.51.14.1.25.23.37.36.38.45.63.98.92,1.49.17.3.26.64.35.97.17.58.28,1.18.31,1.78.05.91.07,1.81.09,2.72.03.99-.01,1.99-.02,2.98-.01,1.3-.04,2.59,0,3.89.02.6,0,1.21,0,1.82,0,.32-.04.65-.06.97-.03.58-.04,1.17-.07,1.75-.04.73-.04,1.47-.16,2.2-.05.3-.04.6-.04.91.01,1.12.04,2.25.04,3.37,0,.89-.02,1.77-.02,2.66,0,.3.02.6.03.91.02.63.04,1.25.07,1.88.06,1.17.09,2.33.12,3.5,0,.34.05.69.1,1.03.11.71.16,1.42.19,2.13.02.43.07.86,0,1.29,0,.06,0,.13,0,.19.04.86.08,1.73.14,2.59.05.74.01,1.47-.02,2.2-.03.69-.06,1.38.02,2.07,0,.06.02.13,0,.19-.1.45-.04.91-.09,1.36-.05.43-.08.86-.12,1.29,0,.11-.03.21-.04.32-.03.21-.08.43-.08.64-.01.59-.13,1.16-.19,1.74-.08.79-.13,1.59-.24,2.38-.03.21.03.43-.1.63.02.1.04.21.06.31.02.11-.1.2-.21.18-.06-.01-.12-.04-.18-.06-.05-.01-.09,0-.1.05,0,.02,0,.05,0,.06.08.1.16.2.24.3h.01c-.17.1-.32-.08-.49-.06,0-.04,0-.08,0-.12,0-.02.02-.04.02-.06-.01-.03-.03-.08-.06-.09-.03-.01-.1,0-.11.03-.07.2-.14.41-.19.62,0,.03.03.07.06.1.01.01.04.02.06.02.52.02,1.04.03,1.55.07.47.03.95.1,1.42.16.24.03.47.06.71.07,1.14.06,2.29.11,3.43.17.15,0,.3.03.45.04.28.02.56.03.84.04.63.02,1.25.01,1.88.05.69.04,1.38,0,2.07-.01.76-.01,1.17.02,1.85.24.06.02.13.05.16.1.08.17.27.21.41.36,0,.08.02.18.03.29.01.11.03.21.04.34-.07,0-.13.02-.18.01-.07,0-.14.01-.15.08-.02.1-.02.21-.01.32,0,.06.05.11.09.16.07.11.08.13-.03.2-.11.07-.13.13-.08.26.07.19.02.27-.15.36-.04.02-.07.04-.11.06-.14.05-.32-.02-.41.14-.07.12-.02.25-.02.38,0,.3-.12.59-.15.89-.09.12-.15.28-.27.35-.28.18-.49.42-.72.68-.21.02-.42.05-.63.06-.58.02-1.17.03-1.75.04-.24,0-.47,0-.71,0-.39,0-.78.02-1.17.04-.56.03-1.12.06-1.68,0-.43-.04-.86-.02-1.3.01-.67.06-1.33.11-2,.15-.43.02-.86,0-1.3.01-.32,0-.65.04-.97.05-.15,0-.3.02-.45.03-.82.02-1.65,0-2.46.08-1.53.13-3.07.1-4.6.05-.32-.01-.65.01-.97.01-.45,0-.91,0-1.36-.02-.63-.03-1.25-.08-1.88-.12-.32-.02-.65-.08-.97-.08-1.19,0-2.37-.15-3.56-.16-1.1,0-2.2-.08-3.3-.12-.52-.02-1.04,0-1.56-.02-.5-.01-.99-.05-1.49-.06-1.12-.02-2.25-.03-3.37-.06-.67-.01-1.34-.06-2.01-.07-1.21-.02-2.42-.03-3.63-.04-.71,0-1.43-.03-2.14-.09-.58-.04-1.17-.05-1.75-.07-1.45-.03-2.89-.11-4.34-.18-1.12-.06-2.25-.07-3.37-.1-.5-.02-.99-.04-1.49-.06-.89-.02-1.77-.04-2.66-.07-.5-.01-.99-.05-1.49-.06-1.45-.03-2.9-.03-4.34-.07-.6-.01-1.21,0-1.81,0-.95-.01-1.9-.08-2.84-.12-.35-.01-.69,0-1.04,0-.5,0-.99.02-1.49-.05-.26-.04-.52-.03-.78-.04-.45-.02-.91-.05-1.36-.06-.63,0-1.25-.07-1.87-.11-.32-.02-.65.07-.96-.08-.3,0-.61-.01-.91-.02-.17,0-.34,0-.52-.01-.26,0-.52,0-.78-.03-.75-.11-1.51-.11-2.26-.12-.24,0-.47-.02-.71-.06-.27-.05-.56-.04-.84-.05-.5-.03-.99-.06-1.49-.09-.06,0-.13-.02-.19-.02-.84.05-1.68-.04-2.52-.03-.26,0-.52-.01-.78-.04-.65-.07-1.29-.05-1.94-.08-.49-.02-.99.02-1.48-.06-.27-.04-.56.01-.84.02-.06,0-.14.04-.19.02-.3-.12-.6-.01-.9-.01-.21,0-.43.02-.64-.04-.12-.04-.26-.04-.39-.04-.58-.02-1.16-.07-1.75-.01-.13.01-.26,0-.39-.01-.35,0-.69,0-1.04,0-.09,0-.18.02-.26,0-.32-.09-.64-.05-.96,0-.15.02-.3.03-.44-.05-.02,0-.04-.02-.06-.02-.35.05-.69-.03-1.03-.07-.35-.04-.69,0-1.04.02-.32,0-.65,0-.97-.01-.5,0-.99-.04-1.49-.01-.17,0-.34-.02-.52-.02-.28-.01-.56-.03-.84-.03-.37,0-.73.03-1.09-.04-.25-.05-.52-.01-.78-.02-.5,0-.99-.02-1.49-.01-.3,0-.6.03-.9.04-.32.01-.65,0-.96-.08-.12-.04-.24-.08-.33-.19-.09-.11-.21-.21-.32-.31,0-.04,0-.09.02-.13.04-.1.12-.19.13-.29.02-.13-.07-.25-.15-.35-.14-.17-.3-.31-.48-.43-.14-.09-.13-.17.02-.3.07-.06.13-.12.22-.11.31.03.47-.18.63-.39.07-.09.03-.21-.09-.26-.08-.03-.18-.02-.22-.12-.01-.03,0-.1.01-.11.08-.02.17-.02.25-.04.11-.02.16-.1.12-.18-.07-.14-.13-.27-.2-.41-.03-.07.04-.18.13-.19.04,0,.09-.01.13-.01.42.01.8-.15,1.17-.31q-.11-.24-.48-.54s.06-.1.11-.13c.07-.05.15-.09.22-.14.15-.09.32-.16.43-.29.1-.12.13-.31.19-.46-.11-.24-.22-.47-.34-.72.1-.1.2-.21.31-.31.03-.03.07-.06.11-.07.32-.05.6-.23.92-.28.15-.02.29-.09.43-.12.16-.03.29.08.43.11.13.02.26.04.39.03.39-.01.78.03,1.17-.02.21-.02.43-.03.64.06.11.05.25.02.38.03,0,0,.02.02.02.02h-.03ZM62.51,85.74s.01.02.01.02c-.02.09-.04.18-.06.26.18,0,.24.16.36.24.07.05.13.11.13.2-.08-.02-.17-.04-.25-.05-.1-.02-.17.04-.16.14,0,.11,0,.22.02.32.05.26.06.51.06.77,0,.28.03.56.08.84.05.26.07.51.07.77,0,.13,0,.26.02.39.07.36.08.73.11,1.1.03.36.11.72.08,1.1-.02.23.07.47.12.7.06.26-.02.51.04.77.09.35.13.72.18,1.08.07.6.17,1.2.13,1.81,0,.04,0,.09.02.13.02.09.08.16.17.18.08.03.17.04.25.04.8.02,1.6.04,2.4.06.6.01,1.21,0,1.81.09.17.03.35.01.52.01.28,0,.56,0,.84,0,.61,0,1.21.01,1.82.01.41,0,.82-.03,1.23,0,.41.03.82.05,1.22.03.11,0,.22,0,.32.02.75.07,1.51.07,2.27.08.63.01,1.26,0,1.88.03.45.03.91.04,1.36.05.76.02,1.52.01,2.27.07,1.23.1,2.46.13,3.69.21.71.04,1.42.08,2.14.11.28.01.56.03.84.03.65.01,1.3,0,1.95.03.8.05,1.6.08,2.4.09.45,0,.91,0,1.36.05.73.09,1.47.09,2.2.11.19,0,.39.02.58.03.26.02.52.05.78.06.45.02.91.01,1.36.05,1.23.12,2.46.13,3.69.2.47.03.95.02,1.43.02.06,0,.13-.06.13-.12-.02-.21-.04-.43-.08-.64-.04-.24-.07-.48,0-.71.05-.19.05-.38.07-.58.02-.22.03-.43.06-.65.06-.49.15-.98.19-1.48.06-.75.19-1.5.24-2.25.04-.56.07-1.12.07-1.68.01-1.23.02-2.46,0-3.7,0-.58-.03-1.17-.09-1.75-.03-.34-.06-.69-.08-1.03-.05-.93-.1-1.86-.14-2.78,0-.06,0-.13-.01-.19-.14-1.12-.19-2.24-.21-3.36,0-.19,0-.39,0-.58.02-.93-.08-1.86-.11-2.78-.04-1.38-.04-2.77-.03-4.15,0-.69,0-1.38,0-2.07,0-.61,0-1.21,0-1.82-.01-.6.05-1.21.02-1.81,0-.06,0-.13.02-.19.16-.81.08-1.64.16-2.45,0-.11-.04-.22-.01-.32.1-.45.05-.91.1-1.36.02-.19.03-.39.02-.58-.03-.65-.02-1.29.01-1.94,0-.19.02-.39.01-.58-.03-.47-.02-.95.04-1.42.02-.15,0-.3,0-.45,0-.26,0-.52.04-.78.09-.6.07-1.21.09-1.81,0-.09,0-.18-.02-.26-.07-.23-.05-.47-.02-.71.04-.32.05-.65.02-.97-.05-.52-.06-1.03-.11-1.55-.02-.21-.05-.43-.11-.64-.1-.35-.22-.7-.35-1.05-.12-.35-.33-.65-.6-.92-.32-.32-.66-.62-1.02-.9-.24-.18-.5-.33-.71-.56-.2-.22-.47-.37-.71-.56-.4-.33-.81-.66-1.25-.91-.61-.36-1.21-.75-1.87-1.02-.2-.08-.39-.19-.56-.33-.13-.1-.29-.18-.45-.25-.25-.12-.51-.23-.77-.34-.24-.1-.47-.21-.68-.37-.12-.09-.26-.16-.38-.24-.58-.38-1.23-.64-1.78-1.07-.05-.04-.11-.06-.17-.09-.3-.13-.58-.28-.83-.5-.05-.04-.11-.07-.16-.1-.32-.18-.67-.29-.94-.57-.53-.2-.99-.52-1.47-.8-.41-.24-.84-.44-1.26-.66-.27-.14-.53-.29-.79-.44-.49-.28-.98-.56-1.46-.84-.26-.15-.51-.32-.78-.46-.21-.11-.41-.24-.6-.38-.33-.24-.68-.45-1.03-.66-.59-.35-1.21-.66-1.75-1.1-.08-.07-.18-.12-.27-.18-.31-.2-.62-.39-.93-.58-.31-.2-.63-.38-.92-.6-.29-.22-.59-.43-.88-.66-.49-.39-1.03-.71-1.54-1.08-.12-.09-.25-.17-.39-.23-.28-.12-.53-.3-.76-.49-.45-.37-.94-.69-1.43-1.01-.6-.39-1.2-.76-1.81-1.14-.39-.24-.77-.48-1.17-.68-.75-.39-1.49-.79-2.21-1.22-.5-.3-1.01-.59-1.53-.84-.66-.32-1.34-.61-2.02-.88-.86-.34-1.72-.71-2.56-1.1-.37-.17-.75-.33-1.14-.46-.58-.2-1.17-.3-1.79-.21-.3.05-.6.07-.9.11-.11.01-.21.04-.31.07-.21.06-.42.12-.61.21-.41.19-.85.32-1.18.65-.16.15-.38.2-.53.36-.07.07-.21.06-.29.12-.21.16-.49.17-.71.31-.23.16-.48.29-.72.43-.06.03-.11.08-.17.09-.37.07-.67.29-1,.45-.15.08-.32.14-.48.2-.31.11-.58.27-.84.47-.07.05-.14.1-.21.15-.43.3-.91.49-1.39.69-.32.13-.64.25-.92.47-.15.12-.33.21-.52.26-.25.07-.47.21-.7.32-.13.07-.26.15-.4.22-.46.23-.93.46-1.36.76-.07.05-.15.09-.23.13-.23.12-.46.24-.69.36-.19.1-.37.22-.56.33-.07.04-.15.11-.23.11-.24,0-.4.15-.57.28-.75.55-1.52,1.06-2.34,1.51-.23.12-.46.23-.69.36-.84.48-1.69.95-2.56,1.4-.13.07-.26.15-.39.22-.44.27-.89.53-1.33.8-.07.04-.15.08-.23.12-.56.28-1.12.56-1.68.84-.44.22-.89.43-1.35.62-.5.2-1.01.39-1.47.67-.2.12-.43.21-.64.3-1.34.61-2.73,1.07-4.11,1.59-.49.18-.98.33-1.46.53-.76.32-1.52.63-2.22,1.05-.02.01-.04.02-.06.03-.56.23-1.08.55-1.56.91-.29.22-.6.42-.79.75-.04.07-.13.12-.18.18-.12.15-.25.3-.36.46-.21.3-.42.61-.6.92-.16.28-.31.57-.45.86-.13.27-.24.55-.37.83-.23.49-.43.99-.57,1.51-.13.48-.25.96-.34,1.45-.07.4-.23.79-.16,1.21,0,.04,0,.09-.03.12-.12.22-.11.45-.07.69.03.21.02.43.03.64,0,.04-.03.08-.05.12l-.03.02.05-.02c-.03.26-.07.51-.1.77-.02.19,0,.39-.12.56,0,.23-.11.46-.04.69h0c-.07.08-.15.16-.13.28.01.11.05.21.05.32,0,.17-.02.34-.03.51-.19.17-.11.41-.15.61-.03.15-.02.3-.07.44-.08.25-.09.51-.08.77,0,.13-.01.26-.02.39q-.08.07,0,.14c-.21.88-.24,1.79-.29,2.69-.01.23-.03.47-.03.7,0,.24,0,.46-.04.7-.03.16,0,.34,0,.51,0,.11.03.22,0,.32-.07.28-.05.56-.08.83-.03.28-.06.55-.06.84,0,.23-.08.47,0,.7.02.06,0,.13,0,.19-.02.47-.05.95-.04,1.42,0,.24,0,.47-.03.71-.01.09-.04.17-.03.25.03.36-.08.73.01,1.09-.13.36,0,.73-.04,1.09-.01.12,0,.25,0,.38-.03.54-.08,1.07-.06,1.61,0,.13,0,.26-.03.38-.03.13-.03.25-.01.38.04.32.09.63,0,.96-.05.2-.02.43-.02.64.11.16.03.33.03.5,0,.18-.21.36,0,.53.01.01.02.04.01.06-.05.21,0,.43-.11.63-.04.08-.04.16,0,.24.03.05.06.12.04.18-.05.26-.04.51-.03.77.01.23,0,.47-.04.7-.04.25.04.51.04.77,0,.28-.02.56-.02.84,0,.1-.05.15-.12.21-.02.02-.03.09-.02.12.2.26.18.51,0,.77-.06.09-.07.21-.02.31.05.1.05.21.07.31-.01.01-.04.03-.03.04,0,.03.02.07.03.1-.02.15.08.3-.03.44-.03.29-.1.58,0,.88.05.16.09.34.07.51-.03.28.02.56.03.84,0,.17.02.34.02.52,0,.15,0,.3.06.45.08.19-.15.31-.1.49.07.23-.11.46.02.69-.01.19-.03.39-.04.58-.01.21.1.42.05.64-.01.04-.02.09-.01.13,0,.15,0,.3.03.45.03.28.13.55.04.83-.01.04,0,.09.01.13.07.21,0,.43.02.64h-.04s.03,0,.03,0c.07.15.05.29-.07.41-.06.06-.09.16-.04.24.24.36.29.75.25,1.16,0,.06-.02.14,0,.19.12.24.05.51.14.76.07.19.05.38-.05.56-.07.13-.12.28-.09.43.08.53.03,1.07.18,1.59.08.26.07.55.1.83,0,.04,0,.09,0,.13-.16.29-.07.59-.02.88.04.23.05.47.07.7,0,.04-.03.08-.04.12.04-.01.05,0,.02.02,0-.01,0-.03,0-.04.08.02.17.02.25.05.27.09.54.11.82.15.09.01.17.03.25-.02.17-.13.37-.12.56-.11.12,0,.25.07.37.07.15,0,.29-.05.44-.05.17,0,.34.02.51.03.11,0,.21.03.32.03.49.02.99.04,1.48.05.12,0,.2.05.27.14.06.07.15.07.24.05.11-.03.21-.05.32-.02.2.06.38.03.57-.04.08-.03.17-.01.25.04v.03s0-.05,0-.05c.65-.06,1.29-.05,1.94,0,.65.05,1.29.05,1.94.07.67.01,1.34,0,2.01.02.67.03,1.34-.02,2,.1.08.01.17,0,.26,0,.22,0,.43.01.65.02.63.01,1.25.04,1.88.03.82-.01,1.64,0,2.46.07.69.05,1.38.04,2.07.05.88,0,1.77.03,2.65.07.47.03.95.02,1.42.03,1.01.02,2.03.02,3.04.06.63.03,1.25.06,1.88.09.37.02.73-.02,1.1.06.33-.04.64.04.97.05.5,0,.99,0,1.49.02.6.01,1.21,0,1.81.11.06.01.13,0,.19.01.56.01,1.12,0,1.68.04.95.08,1.9.06,2.84.19.28.04.56.02.84.02.08,0,.16-.09.16-.18-.03-.49,0-.99-.14-1.48-.03-.1-.03-.21-.05-.32-.11-.86-.22-1.71-.34-2.57-.13-.92-.21-1.85-.29-2.77-.06-.73-.12-1.46-.19-2.19-.02-.19-.07-.38-.11-.57,0-.03-.06-.07-.09-.06-.08,0-.17.02-.25.05-.18.07-.35.16-.54.22-.94.31-1.87.65-2.84.86-.57.12-1.14.24-1.72.25-.18,0-.34.03-.51.09-.29.1-.59.11-.9.06-.21-.03-.43-.06-.64-.12-.19-.06-.38-.06-.57-.08-.37-.02-.73-.06-1.1-.1-.13-.01-.26-.05-.38-.05-.22.01-.43-.06-.63-.13-.2-.07-.39-.17-.62-.1-.03,0-.08-.02-.11-.05-.06-.07-.14-.1-.23-.09-.24.03-.41-.11-.58-.24-.03-.02-.02-.08-.03-.12h-.01c.13.03.25.08.38.03.02,0,.04-.02.05-.04,0-.02,0-.04-.02-.06-.19-.19-.46-.22-.67-.38-.21-.15-.4-.33-.64-.42-.27-.09-.5-.24-.71-.43-.07-.06-.15-.09-.24-.07.01-.05-.01-.1-.06-.09-.03,0-.05.06-.07.09-.13-.09-.27-.18-.4-.28l.04-.02-.02.04c-.15-.11-.3-.22-.44-.33.02.01.03.02.05.03.05.02.07,0,.07-.03-.02,0-.04,0-.05,0-.02,0-.04,0-.06,0-.12-.07-.17-.18-.21-.31-.05-.14-.11-.27-.23-.37-.27-.21-.46-.5-.66-.79-.25-.38-.53-.73-.8-1.1-.3-.21-.43-.53-.57-.85-.06-.14-.11-.3-.22-.39-.16-.14-.22-.31-.29-.49-.1-.26-.21-.52-.32-.78-.1-.24-.2-.48-.31-.71-.13-.26-.1-.55-.22-.81-.11-.24-.12-.5-.09-.76.01-.08.01-.18-.02-.25-.11-.22-.05-.43.01-.63.17-.49.37-.97.46-1.48,0-.02.01-.04.02-.06.16-.33.33-.66.49-.98.06-.11.13-.22.18-.34.07-.16.1-.33.18-.48.08-.15.21-.27.33-.4.11-.13.22-.27.34-.38.14-.14.28-.27.36-.45.03-.06.07-.11.12-.15.05-.04.11-.07.18-.04.13.06.25.04.37-.04.05-.04.1-.08.15-.12.19-.16.42-.22.66-.26.06,0,.13-.02.19-.02.2,0,.38-.06.55-.15.36-.18.75-.34,1.11-.51.14-.07.3-.1.44-.08.24.04.47,0,.71-.03.35-.04.68,0,1.02.13.73.26,1.47.49,2.24.64.27.05.55.12.77.32.37.17.69.44,1.03.66.25.17.52.32.8.42.25.09.47.22.68.37.19.14.38.28.58.42v.02s-.02-.03-.02-.03c.12.09.25.17.36.27.16.14.35.26.47.43.2.29.46.51.72.74.36.31.73.6,1.05.96.18.21.43.36.64.53.01.01.04.01.06.02.02,0,.06,0,.06-.01.02-.08.04-.17.03-.25-.04-.69-.08-1.38-.13-2.07,0-.06-.03-.12-.04-.19-.03-.03-.06-.06-.09-.08-.35-.23-.65-.5-.79-.91-.04-.1-.12-.18-.17-.27-.13-.25-.27-.49-.39-.74-.16-.31-.3-.62-.47-.92-.3-.53-.56-1.07-.81-1.62-.27-.57-.33-1.21-.53-1.8-.03-.08-.03-.17-.04-.25-.03-.26-.06-.51-.1-.77-.07-.49-.14-.98-.14-1.48,0-.45,0-.91.01-1.36,0-.21.03-.43.05-.64.02-.24.04-.47.06-.71.01-.19.02-.38.11-.57.05-.11.05-.25.07-.38.02-.11,0-.22.05-.32.1-.22.12-.46.13-.7.03-.39.05-.78.08-1.16.06-.69.23-1.36.27-2.05,0-.08.04-.17.06-.25.05-.21.09-.42.13-.63.03-.13.04-.26.08-.38.15-.38.24-.79.31-1.19.1-.62.34-1.2.52-1.8.06-.19.14-.35.27-.51.12-.14.2-.33.27-.51.06-.18.14-.36.22-.54.05-.09.11-.2.19-.26.18-.13.3-.3.41-.49.1-.16.22-.33.36-.45.28-.23.45-.52.6-.83,0,.04,0,.05.02.01-.01,0-.02,0-.04,0,.2-.17.45-.24.65-.42.65-.59,1.44-.94,2.23-1.28.12-.05.25-.07.37-.1.32-.07.64-.12.95-.2.21-.06.42-.07.64-.05.32.03.63.15.96.09.06-.01.12.03.18.05.08.03.16.07.24.1.48.17.61.28.89.76.1.17.22.32.42.38.08.02.16.08.21.14.18.22.35.44.51.67.16.23.3.47.47.7.4.53.77,1.09,1.08,1.68.27.52.53,1.04.7,1.6.04.12.11.23.17.34.02.03.07.03.11.04h-.02c.02.16.03.3.06.45.04.24.16.47.19.72-.02.03-.04.06-.06.1,0,.02-.03.03-.03.05,0,.01.02.03.03.04.02-.03.04-.06.05-.09,0-.04,0-.08,0-.12.23.08.24.08.21.24-.02.13,0,.25.02.38.09.33.18.66.2,1.01,0,.11.04.21.13.28.05.04.08.1.1.16.08.23.16.45.16.69,0,.24.03.47.11.7.03.08.02.17.01.25q-.07.39.04.85s.01.04.01.06c.03.3.08.6.08.9,0,.35.09.68.05,1.03-.04.34.02.69.02,1.03,0,.52-.06,1.04-.14,1.55-.04.24-.06.47-.08.7,0,.08-.01.18-.06.25-.21.31-.17.66-.19,1,0,.06,0,.14.03.19.11.21.09.41.02.63-.04.12-.03.26-.04.39-.02.24-.04.47-.06.71-.16.21-.13.49-.26.71-.14.24-.25.5-.34.77-.08.23-.19.44-.31.64-.33.53-.73,1.02-1.1,1.52-.24.33-.51.64-.83.9-.1.08-.19.17-.24.3-.05.15-.16.25-.26.37-.14.16-.27.34-.4.51v.02s-.02-.04-.02-.04c.1.03.2.05.3.08h0c-.33.26-.59.61-.86.93-.16.03-.31.07-.46.08-.07,0-.08-.07-.04-.14-.04.02-.05.02-.02-.02,0,.01,0,.03.01.04-.1.02-.2,0-.3.08-.1.08-.18-.09-.29-.08-.06,0-.13,0-.19.02-.48.13-.96.27-1.43.4-.08.02-.17.04-.25.05-.21.03-.43.06-.64.07-.2,0-.38.08-.54.19-.12.08-.16.2-.18.33,0,.04,0,.09,0,.13.08.29.05.6.14.89.06.2.09.42.15.62.05.18.18.25.35.2.12-.04.25-.07.36-.14.39-.23.81-.4,1.18-.67.1-.08.23-.12.34-.18.42-.22.84-.43,1.23-.72.15-.11.37-.16.5-.3.16-.16.37-.22.56-.31.23-.11.45-.24.7-.34.26-.1.5-.25.75-.37.35-.17.72-.3,1.06-.48.51-.27,1.01-.57,1.58-.75.28-.18.6-.24.9-.35.18-.06.37-.12.55-.18.33-.11.65-.24.97-.35.39-.13.79-.21,1.18-.35.4-.14.8-.2,1.21-.18.66.04,1.28-.14,1.92-.26.08-.01.16-.07.23-.12.13-.09.28-.12.43-.09.43.07.85.17,1.2.45.25.2.5.41.71.66.33.42.34.42.82.58.08.03.17.05.25.08.22.08.42.22.66.24.18.19.35.37.53.57.16.18.31.35.47.54.04.05.11.12.09.16-.07.17.03.29.12.41.29.38.55.77.67,1.24.16.24.22.5.2.79-.02.18.07.38.12.57.05.19.11.37.14.56.02.13.04.26.02.38-.04.2-.02.38.02.58.01.06.02.14-.01.19-.18.24-.19.52-.21.8,0,.08-.01.18-.05.25-.15.29-.21.61-.32.92-.05.14-.09.3-.18.41-.13.17-.23.36-.35.53-.02.04-.06.06-.09.09-.19.24-.21.27-.44.29-.11.01-.2.03-.28.12-.13.14-.28.27-.42.41-.25.24-.49.48-.7.76-.16.23-.35.44-.54.65-.26.29-.59.51-.89.75-.24.18-.49.36-.69.58-.31.35-.69.58-1.09.81-.03.02-.1.01-.12,0-.1-.17-.21-.1-.32-.03-.56.37-1.16.66-1.75.97-.13.07-.28.11-.42.15-.45.14-.9.3-1.34.48-.06.02-.12.06-.18.05-.18-.03-.34.07-.5.1-.15.03-.3.06-.44.09-.17.03-.34.06-.5.08-.05.16-.05.17-.16.17-.04,0-.08-.01-.13-.03l-.03-.03.03.05c-.14-.05-.28-.12-.42-.14-.23-.04-.47-.05-.71-.06-.28-.01-.56,0-.83-.02-.23-.02-.46-.08-.7-.12-.36-.06-.72-.1-1.08-.16-.38-.06-.76-.14-1.14-.19-.41-.06-.8-.15-1.17-.33-.39-.19-.78-.36-1.19-.5-.16-.06-.31-.14-.47-.2-.3-.12-.57-.3-.81-.52-.04-.04-.06-.11-.1-.16.09-.02.17.01.25.05.26.15.52.32.8.43.68.28,1.37.53,2.06.78.16.06.33.12.5.15.4.08.81.15,1.21.22.36.06.73.1,1.09.15.34.05.69.03,1.04.03.04,0,.08-.03.15-.07-.17-.05-.32-.07-.47-.08-.61-.03-1.2-.12-1.78-.31-.14-.05-.3-.09-.44-.07-.32.03-.6-.06-.88-.17,0-.15-.08-.23-.24-.23-.03-.02-.06-.05-.09-.07,0,0-.03.02-.03.02.04.06.09.04.14.02-.11.13-.24.17-.4.1-.1-.04-.19-.09-.29-.14-.12-.05-.23-.14-.35-.16-.24-.03-.44-.17-.65-.25-.16-.06-.3-.15-.47-.18-.22-.04-.38-.19-.43-.42l-.02.02c.06.02.13.04.19.06l.03-.02h-.05c-.03-.09-.04-.21-.14-.27-.18-.11-.35-.25-.58-.26q-.07-.09-.13,0c-.16.07-.32.15-.47.22.01-.09.03-.19.04-.28ZM76.8,82.02c.05-.05.11-.1.16-.15,0,0,.01.02.01.02-.06.05-.12.1-.18.15.04,0,.05,0,0,.02,0-.01,0-.02,0-.03ZM78.53,80.73h.03s-.01.02-.01.02c-.02,0-.04,0-.06,0-.01,0-.02.02-.03.03.02-.02.05-.03.07-.05ZM54.88,78.66c0-.08-.05-.13-.13-.13-.07-.29-.29-.47-.5-.64-.03-.03-.08-.03-.12-.04-.11-.01-.13-.08-.13-.18,0-.18-.1-.33-.24-.44-.15-.13-.29-.24-.5-.28-.15-.03-.27-.12-.34-.28-.07-.16-.17-.3-.35-.35l.02.02c-.07-.08-.12-.19-.2-.25-.19-.13-.4-.24-.61-.36-.09-.06-.19-.11-.26-.18-.31-.33-.71-.55-1.08-.8-.16-.11-.33-.21-.53-.22-.35-.02-.67-.16-.98-.3-.35-.17-.71-.31-1.09-.4-.21-.05-.43-.07-.64-.05-.48.03-.91.24-1.36.38-.06.02-.11.07-.16.11-.27.24-.55.47-.82.72-.04.04-.04.11-.06.17l-.02-.02c-.3.24-.28.61-.39.93-.02.05,0,.13.02.19.04.12.08.25.13.37.34.86.68,1.72,1.02,2.59.15.38.29.77.43,1.15.19.51.55.93.85,1.38.02.03.06.06.1.09.22.2.45.4.67.61.27.25.57.47.9.64.22.12.45.26.73.24.07,0,.16.06.23.1.21.11.44.18.68.2.11.01.22.02.32.04.56.12,1.11.05,1.66-.11.66-.19,1.35-.3,2.03-.38.17-.02.34-.04.51,0,.2.06.38.01.57-.05.61-.2,1.23-.4,1.84-.6.24-.08.45-.25.71-.29.03,0,.06-.07.07-.11.02-.11.03-.22-.07-.29-.1-.08-.21-.07-.35.03-.02.01-.03.04-.04.04-.04,0-.08,0-.12.01,0-.04-.02-.08,0-.11.02-.08.06-.16.09-.24.04-.02.08-.03.12-.05.02,0,.04-.04.04-.04-.02-.03-.05-.06-.08-.08,0,0-.05,0-.05.01-.04.06-.04.12,0,.18-.26-.34-.43-.74-.77-1.03-.03-.03-.06-.07-.07-.11-.12-.34-.39-.56-.62-.81-.13-.14-.26-.29-.41-.41-.16-.14-.29-.33-.5-.4-.02-.07-.06-.12-.14-.14ZM74.67,83.01l-.02.03.02-.02c.27,0,.38-.04.54-.15.02-.01.04-.02.05-.04.5-.41,1.04-.76,1.57-1.14.12-.18.38-.22.45-.44.01-.04.05-.07.09-.09.21-.09.34-.26.48-.43.29-.35.62-.66.97-.95.3-.25.56-.54.9-.74.07-.04.13-.11.19-.17.1-.09.13-.18.07-.29-.15-.23-.16-.49-.16-.75,0-.11.01-.22,0-.32-.01-.13-.02-.27-.07-.38-.26-.56-.62-1.04-1.15-1.36-.29-.18-.6-.34-.92-.47-.38-.16-.77-.31-1.19-.27-.6.05-1.21.06-1.78.31-.08.03-.16.06-.25.08-.44.12-.83.34-1.22.58-.15.18-.36.23-.57.29-.37.12-.75.22-1.11.35-.3.11-.6.24-.89.38-.29.14-.59.28-.86.46-.27.17-.63.18-.83.47-.03.04-.11.05-.17.08-.21.1-.43.19-.64.3-.42.22-.83.47-1.26.67-.68.3-1.28.71-1.86,1.17-.29.23-.62.39-.95.55-.27.13-.56.23-.84.34-.1.04-.19.1-.28.16-.07.04-.08.16-.03.23.11.14.23.25.39.33.29.14.57.31.87.44.31.14.5.41.78.58.09.05.18.11.27.17.24.15.47.3.71.45-.05,0-.05,0-.02-.02,0,.01,0,.03,0,.04.06,0,.13-.02.19,0,.41.13.79.33,1.18.53.17.09.35.15.55.19.19.03.38.07.57.1.36.05.73.08,1.09,0,.32-.08.64-.09.96-.1.41,0,.82-.01,1.23-.03.11,0,.21-.01.32-.03.38-.06.76-.16,1.1-.35.19-.1.39-.16.61-.17.23-.01.46-.1.6-.33.07-.12.23-.11.32-.2ZM58.22,58.45c.02-.05.06-.1,0-.15,0,0-.03.03-.03.03.01.04.03.07.05.1,0,.18.07.39-.18.47-.05.16-.11.32-.15.48-.04.16,0,.34-.1.49h0c-.06.28-.06.56.02.83.03.09-.05.08-.12.06-.01,0-.06.06-.06.09.04.26.07.51-.02.77-.03.1-.02.21-.02.32,0,.28-.02.56-.02.84,0,.35-.02.69,0,1.04.04.6.09,1.21.17,1.8.13.92.25,1.84.48,2.74.17.69.33,1.38.7,2.01.04.07.07.16.11.23.1.17.16.35.15.55-.01.2.1.37.16.55.05.13.16.19.3.21.13.02.26,0,.38-.05.86-.39,1.75-.73,2.52-1.31.28-.21.56-.41.79-.67.29-.33.61-.61.96-.86.12-.09.24-.19.36-.28.35-.26.64-.59.83-.98.32-.68.71-1.33.85-2.08.01-.06.03-.13.07-.18.11-.17.14-.36.17-.55.03-.19.1-.37.15-.56.03-.12.08-.25.09-.38.09-.97.17-1.93.11-2.91-.01-.19-.03-.39-.06-.58-.16-1.07-.34-2.13-.45-3.2-.01-.11-.04-.21-.06-.32-.1-.53-.3-1.04-.5-1.54-.09-.22-.17-.44-.14-.68,0-.07-.06-.15-.1-.23h0c0-.05.01-.13-.01-.18-.28-.58-.6-1.14-1-1.65-.11-.14-.24-.24-.38-.34-.42-.27-.87-.47-1.32-.68-.16-.07-.32-.13-.49-.16-.39-.08-.77-.11-1.11.16-.07.05-.15.08-.23.12-.39.2-.73.44-.95.84-.07.13-.19.23-.24.38-.24.74-.55,1.45-.75,2.2-.02.06-.03.13-.07.17-.29.29-.33.63-.28,1.01.02.12-.04.25-.18.32-.04.02-.03.11-.05.17v-.02c-.15.11-.2.27-.16.45-.18.26-.18.31,0,.53-.02.08-.04.16-.04.24,0,.13-.06.23-.14.32ZM50.21,87.15c-.17-.02-.34-.04-.5-.07-.31-.07-.62-.15-.93-.21-.09-.02-.19-.05-.29.06.57.15,1.12.32,1.72.23ZM79.65,79.61s-.02-.05-.04-.05c-.02,0-.04,0-.06,0-.22.1-.34.32-.51.47,0,0,0,.04.01.06,0,.01.04.03.05.03.26-.09.42-.28.55-.51ZM70.54,88.19c.32.05.52.1.74,0-.22-.09-.42-.02-.74,0ZM53.22,87.48l.09-.05s-.03-.03-.04-.03c-.09-.02-.17,0-.14.04.02.03.07.03.1.05ZM70.13,64.82l.03.03v-.05s-.03.03-.03.03ZM25.63,95.99v-.03s-.04.02-.04.02h.04ZM23.05,95.88s.03-.02.04-.03c-.01-.01-.02-.03-.04-.03-.05-.01-.07,0-.05.05,0,0,.03,0,.05.01ZM70.3,63.67s-.02-.03-.02-.05c-.04.02-.04.05-.01.08.01-.01.02-.02.03-.04ZM57.43,63.09s-.03.02-.04.03c0,.02,0,.04,0,.05.03.03.06.02.06-.03,0-.01-.01-.03-.02-.05ZM69.65,56.39l-.02-.02v.05s.02-.02.02-.02ZM69.92,57.67v.03s.04-.01.04-.01l-.04-.02ZM47.99,86.75v.03s.04-.01.04-.01l-.04-.02ZM33.15,96.11l.04.02v-.04s-.04.01-.04.01ZM17.96,94.71l.02-.03h-.03s.01.03.01.03Z"/>
  <path class="cls-1" d="M38,29.59c.05,0,.1,0,.15,0,0,0,0,0,0,0-.05,0-.11,0-.16,0h0Z"/>
  <polygon class="cls-1" points="25.2 35 25.17 35.03 25.19 35.02 25.2 35"/>
  <polygon class="cls-1" points="25.45 34.9 25.41 34.9 25.43 34.91 25.45 34.9"/>
  <path class="cls-1" d="M25.8,34.66c.05,0,.1,0,.15,0,0,0,0-.01,0-.01-.05,0-.11,0-.16,0h0Z"/>
  <path class="cls-1" d="M27.13,34.12s-.05,0-.05,0c0-.04,0-.03.03.02,0,0,.02-.02.02-.02Z"/>
  <polygon class="cls-1" points="28 33.73 28.03 33.73 27.99 33.74 28 33.73"/>
  <polygon class="cls-1" points="107.37 97.8 107.36 97.75 107.38 97.79 107.37 97.8"/>
  <polygon class="cls-1" points="107.27 98.09 107.26 98.05 107.29 98.06 107.27 98.09"/>
  <path class="cls-1" d="M47.29,86.66c-.24.1-.44,0-.62-.14-.03-.02-.03-.07-.04-.11h-.02c.12.02.24.03.34.09.1.06.21.11.32.17,0,0,.02-.01.02-.01Z"/>
  <path class="cls-1" d="M45.55,85.78c-.11.01-.21-.07-.32-.02h0c.05,0,.1-.02.16-.03.06-.01.11,0,.14.06l.02-.02Z"/>
  <path class="cls-1" d="M45.02,85.39l-.33-.09v.02c.11.03.23-.03.31.08v-.02Z"/>
  <path class="cls-1" d="M18.99,51.7s-.01.05-.02.08c0-.01.02-.03.02-.04,0-.02,0-.03,0-.05,0,0,0,0,0,0Z"/>
  <path class="cls-1" d="M46.02,86.24q.2-.05.26.11s.02-.02.02-.02c-.09-.04-.18-.07-.27-.11,0,0-.01.02-.01.02Z"/>
  <path class="cls-1" d="M46.63,86.41c-.12.03-.24.04-.32-.08,0,0-.02.02-.02.02.13-.06.23-.03.32.08,0,0,.02-.02.02-.02Z"/>
  <path class="cls-1" d="M45.62,86.01s.08.01.11,0c.08-.04.14-.03.21.03l.02-.02c-.11,0-.22,0-.33-.02,0,0,0,0,0,0Z"/>
  <path class="cls-1" d="M66.7,73.55s.02,0,.03,0c.01-.04,0-.05-.03-.03v.02Z"/>
  <path class="cls-1" d="M66.7,73.53c-.08.05-.12.13-.14.22,0,0,0,.02,0,.02.09-.04.12-.12.13-.22,0,0,0-.02,0-.02Z"/>
  <path class="cls-1" d="M17.63,78.67c0-.05,0-.11,0-.16,0,.05,0,.11,0,.16Z"/>
  <path class="cls-1" d="M44.69,85.3s.03.01.05.02c0-.05-.01-.05-.04,0,0,0-.01-.02-.01-.02Z"/>
  <path class="cls-1" d="M45.27,85.27c.05,0,.1,0,.16,0-.05,0-.1,0-.16,0Z"/>
  <path class="cls-1" d="M45,85.4c.05.04.1.07.15.11,0,0,.01-.02.01-.02-.05-.04-.1-.07-.15-.11,0,0-.02.02-.02.02Z"/>
  <path class="cls-1" d="M45.23,85.76c-.02-.09-.04-.18-.06-.26,0,0-.01.02-.01.02.08.07.07.16.08.25,0,0,0,0,0,0Z"/>
  <path class="cls-1" d="M45.53,85.79c.11.04.1.12.09.22,0,0,0,0,0,0-.03-.07-.05-.15-.08-.23,0,0-.02.02-.02.02Z"/>
  <path class="cls-1" d="M18.54,55.17c0-.05,0-.11,0-.16,0,.05,0,.11,0,.16Z"/>
  <path class="cls-1" d="M45.94,86.04c.08.04.11.11.09.2,0,0,.01-.02.01-.01-.03-.07-.06-.13-.08-.2,0,0-.02.02-.02.02Z"/>
  <polygon class="cls-1" points="69.17 53.82 69.18 53.85 69.15 53.83 69.17 53.82"/>
  <path class="cls-1" d="M58.39,57.9c0-.18,0-.36,0-.54.17.18.1.36,0,.54Z"/>
  <path class="cls-1" d="M58.09,59.87s-.03-.07-.04-.11c0-.03,0-.06.01-.09,0,.01.02.02.02.03,0,.02,0,.04,0,.06,0,.04,0,.08,0,.11,0,0,0,0,0,0Z"/>
  <path class="cls-1" d="M58.56,56.92s0,.09.01.13c0-.05,0-.1-.01-.15,0,0,0,.01,0,.01Z"/>
  <path class="cls-1" d="M57.8,59.88c.1,0,.19,0,.29,0,0,0,0,0,0,0-.09-.04-.19-.05-.28,0,0,0,0,0,0,0Z"/>
  <polygon class="cls-1" points="65.64 54.57 65.65 54.62 65.63 54.59 65.64 54.57"/>
  <path class="cls-1" d="M54.88,78.78c.05,0,.1,0,.15,0q-.08.09-.15,0Z"/>
  <polygon class="cls-1" points="44.81 75.14 44.78 75.15 44.8 75.12 44.81 75.14"/>
  <path class="cls-1" d="M52.56,76.32s-.02.03-.03.04c-.02-.03,0-.03.05-.02,0,0-.01-.02-.01-.02Z"/>
  <path class="cls-1" d="M54.76,78.52c0,.05,0,.1,0,.15,0-.05,0-.1,0-.15Z"/>
  <path class="cls-1" d="M54.9,78.65c0,.05,0,.1,0,.15-.05-.05-.1-.1-.15-.15.05,0,.1,0,.15,0Z"/>
  <path class="cls-1" d="M55.41,79.49s.02-.06-.02-.07c0,0-.02.02-.03.03l.03.03h.03Z"/>
  <path class="cls-1" d="M55.39,79.48s.03,0,.04-.01c-.03-.03-.04-.02-.02.02,0,0-.02-.01-.02-.01Z"/>
  <path class="cls-1" d="M56.15,80.4s.03-.04.02-.04c-.04-.04-.06-.03-.04.02l.02.02Z"/>
  <path class="cls-1" d="M56.13,80.38s.03,0,.05,0c0-.04-.01-.04-.03.01,0,0-.02-.02-.02-.02Z"/>
  <path class="cls-1" d="M63.63,86.28c-.08.03-.16.04-.24-.01-.03-.02-.06-.06-.06-.1,0-.05.04-.06.09-.03.07.05.13.1.19.15,0,0,.02-.02.02-.02Z"/>
  <path class="cls-1" d="M62.93,85.79c.05,0,.1,0,.15,0q-.08.09-.15,0Z"/>
</svg>