<?xml version="1.0" encoding="UTF-8"?>
<svg id="Layer_1" data-name="Layer 1" xmlns="http://www.w3.org/2000/svg" viewBox="0 0 128 128">
  <defs>
    <style>
      .cls-1 {
        stroke-width: 0px;
      }
    </style>
  </defs>
  <path class="cls-1" d="M65.22,87.14c-.21-.42-.48-.79-.8-1.13-.14-.15-.29-.29-.39-.46-.35-.54-.74-1.03-1.2-1.48-.21-.21-.32-.48-.39-.77-.06-.26-.18-.48-.33-.7-.42-.6-.69-1.28-.86-1.99-.24-.96-.45-1.92-.38-2.92-.06-.31,0-.63-.14-.93-.06-.13-.12-.27-.13-.41,0-.1.13-.21.12-.3-.02-.38.08-.75.1-1.12.02-.39.07-.74.28-1.07.09-.14.09-.33.12-.5.06-.36.23-.65.51-.88.13-.11.26-.23.37-.37.62-.8,1.46-1.21,2.43-1.38.23-.04.46-.05.69-.09.17-.02.31-.18.33-.36.1-.84.06-1.68,0-2.52-.07-.95-.12-1.91-.18-2.87-.04-.58-.04-1.15-.02-1.73,0-.14.02-.29,0-.43-.12-.6-.11-1.21-.11-1.82,0-1.36-.14-2.72-.24-4.08-.06-.81-.07-1.62-.14-2.43-.08-.89-.1-1.8-.26-2.68-.02-.11-.04-.23-.04-.35-.04-1.1-.17-2.2-.17-3.3,0-.38-.02-.75-.06-1.13-.13-1.07-.17-2.14-.15-3.21.02-.93-.04-1.85-.2-2.77-.04-.23-.05-.46-.07-.69-.13-1.39-.26-2.77-.24-4.17-.12-.98-.09-1.97-.24-2.95-.03-.17-.05-.35-.05-.52.01-.82-.12-1.62-.25-2.42-.1-.64-.14-1.27-.14-1.9,0-.84-.02-1.68-.07-2.52-.06-.96-.05-1.91-.07-2.87-.02-.72-.03-1.45-.19-2.16-.04-.17-.05-.34,0-.51.08-.28.29-.51.3-.81.01-.26.01-.52.02-.78,0-.15.1-.26.22-.35.2-.15.42-.18.66-.17l.02-.02c.02.1.08.14.17.13.07,0,.1-.05.1-.12,0-.17.01-.34.02-.52,0-.03.02-.07.04-.07.05,0,.12,0,.13.02.16.3.53.35.72.6.02.02.11.02.15,0,.17-.1.33,0,.52.01.38.42.56.91.56,1.48,0,.46.16.9.24,1.36.03.17.07.34.09.51.02.2.02.4.03.61.04,1.07.12,2.13.26,3.19.08.6.03,1.21.02,1.81,0,.18.01.33.08.5.07.18.07.39.11.59.03.14.07.27.11.41h-.01c-.16.07-.31.14-.28.37.07.66.04,1.33.19,1.98.05.19.13.3.29.38.09.05.08.23-.04.29-.11.06-.2.1-.11.25.06.1.13.2.15.3.02.14.03.28.11.41.11.18.13.38.12.58,0,.2.01.41-.04.6-.1.36-.06.68.1,1.01.06.13.07.28.08.42.01.17.01.35,0,.52-.01.96.07,1.91.23,2.85.09.57.12,1.15.14,1.72.01.23-.01.47.11.68h0c-.17.16-.29.33-.25.59.04.28.05.57.07.88.12-.06.06-.17.08-.25.02-.08.05-.15.07-.23.03.02.06.03.06.05.01.97.03,1.94.03,2.92,0,.08-.04.17-.06.25,0,0,.03.03.03.03l-.02-.05c.19.24.2.52.19.81-.12.05-.1-.09-.16-.12-.02,0-.06,0-.06.01-.05.31-.04.61.04.91.01.05.06.09.09.14v-.02c0,.32,0,.64,0,.96,0,.13.08.21.15.3.16.21.16.4-.03.61-.14.15-.17.32-.1.48.24.54.29,1.11.34,1.69.05.52.11,1.03.05,1.55,0,.06.11.12.14.2.08.16.12.35-.04.47-.19.14-.17.33-.1.46.14.27.11.54.1.83-.02.84-.04,1.68.1,2.52.02.14.03.29.04.43.05,1.04.11,2.08.15,3.13.04.84.09,1.68.16,2.51.06.69.06,1.39.06,2.08,0,.87-.04,1.74.07,2.61.01.09.02.17.01.26-.1.83-.08,1.68-.15,2.51-.02.32-.08.63-.1.95,0,.11.02.22.13.3.32.24.55.59.93.78.08.04.17.09.2.16.15.32.46.43.71.61.28.2.6.35.79.66.04.06.14.1.22.13.11.04.21.08.28.18.49.71.98,1.43,1.47,2.14.05.07.07.16.1.24l.02-.02c-.08.05-.14.14-.1.22.12.22.19.49.5.53.07,0,.13.1.18.17.06.08.06.17-.03.21-.13.06-.2.15-.11.27.3.37.45.79.54,1.25.09.45.25.89.36,1.33.09.36.13.73.08,1.11-.06.46-.07.92-.09,1.38,0,.21-.1.39-.17.57.05-.06.09-.12,0-.17,0,0-.04.03-.04.03.02.04.04.08.06.13.03.26,0,.5-.12.74-.38.74-.8,1.44-1.43,2.01h.03c-.11.09-.17.22-.19.36,0,0,.02-.03.02-.03-.07.04-.2.07-.21.12-.04.19-.24.25-.29.42-.02.07-.12.14-.19.15-.36.06-.64.25-.92.47-.09.07-.18.13-.26.18-.05-.01-.09-.01-.11-.03-.1-.11-.21-.22-.37-.11-.17.12-.34.2-.56.1-.25-.1-.52-.05-.76.07-.07.04-.16.1-.19.16-.07.18-.22.22-.35.19-.48-.12-.97-.01-1.45-.13-.51-.12-1.01-.24-1.5-.43-.22-.08-.42-.18-.6-.34-.19-.17-.42-.3-.63-.45.06-.08.13-.15.19-.23l.48-.09c.03.11-.08.13-.11.2-.04.07,0,.11.07.1.02,0,.03-.05.03-.07,0-.08-.08-.15,0-.23-.17,0-.33-.02-.5-.03,0,0-.01-.06-.01-.06l.04.04c0,.05,0,.11.01.16-.06.08-.13.15-.19.23ZM66.83,87.39c.01.06,0,.07-.02.03.02,0,.03,0,.05,0-.13-.05-.26-.1-.29-.25-.04.06-.08.07-.13.04,0,0,0-.02,0-.03.04-.05.09-.05.14,0,.1.06.13.2.27.21ZM67.76,38.48s-.06.09-.06.14c0,.05.03.1.04.16.02-.05.06-.09.07-.14,0-.05-.03-.1-.05-.16ZM68.09,43.26v.06s.04-.04.04-.04h-.04ZM68,40.26s-.05-.09-.07-.13c-.02.04-.06.09-.06.13,0,.04.04.09.07.13.02-.04.05-.09.07-.13ZM68.12,44.35v-.07s-.04,0-.04,0c0,.02,0,.04,0,.07.02,0,.03,0,.04,0ZM67.42,33.53s.03-.05.03-.07c0-.08-.04-.09-.08-.04-.01.02,0,.05,0,.08,0,.02.03.02.05.04Z"/>
  <path class="cls-1" d="M92.42,54.67c.79-.59,1.57-1.19,2.27-1.88.48-.46.98-.9,1.34-1.47.06-.09.16-.17.25-.24.15-.11,1.62-.83,1.8-.86.14-.03.29-.04.43,0,.17.04.33.13.3.35-.01.12.03.23.12.31.06.06.13.12.18.18.12.15.17.32.05.48-.14.18-.16.34-.13.56.04.37-.04.74-.04,1.12,0,.23-.09.45-.15.68-.06.22-.13.44-.2.67-.11.4-.29.75-.54,1.08-.14.19-.27.38-.39.58-.17.3-.34.6-.61.84-.15.13-.23.33-.35.5-.52.77-1.05,1.53-1.68,2.21-.49.53-.98,1.07-1.47,1.6-.35.38-.76.71-1.16,1.04-.13.11-.27.22-.38.35-.41.45-.84.87-1.24,1.33-.34.39-.66.81-.99,1.21-.46.56-.9,1.13-1.45,1.61-.19.17-.32.41-.51.59-.51.47-.9,1.04-1.4,1.53-.2.35-.48.65-.74.96-.32.37-.65.74-.98,1.11-.11.13-.2.28-.31.42-.16.2-.32.41-.5.6-.16.17-.34.31-.57.39-.3.1-.57.28-.87.39-.81.32-1.07.34-2.16.2-.15-.13-.33-.28-.49-.41-.31-.04-.59-.04-.88.06-.23.08-.45-.06-.54-.3-.06-.16-.11-.32-.09-.51.08-.59.26-1.12.71-1.55.42-.4.82-.82,1.24-1.22.35-.34.68-.71,1.01-1.07.49-.53.95-1.09,1.45-1.61.54-.57,1-1.2,1.49-1.81.33-.4.59-.86.91-1.27.63-.79,1.18-1.65,1.81-2.44.22-.27.4-.57.61-.85.28-.37.57-.73.87-1.08.36-.42.74-.81,1.02-1.3.07-.12.17-.23.28-.32.2-.17.37-.36.54-.56.15-.17.36-.29.44-.52.29-.23.51-.54.87-.69.19-.08.32-.24.43-.42,0,0,.01,0,.01,0,.1-.03.16-.1.2-.2,0,0-.02.03-.02.03.07-.07.13-.13.2-.2l-.02.02s.03-.05.02-.07c0-.05-.02-.09-.03-.14h.03ZM98.39,50.45s-.01-.04-.02-.06c-.04.02-.09.04-.13.06,0,0,.01.04.02.06.04-.02.08-.04.13-.07Z"/>
  <path class="cls-1" d="M47.9,83.53c.06.1.14.18.19.29.07.15-.01.3-.17.33-.74.16-1.49.25-2.24.07-.37-.09-.74-.1-1.12-.04-.11.02-.24.03-.34,0-.53-.14-1.1-.11-1.62-.3-.13-.05-.28-.06-.43-.07-.43-.04-.87-.08-1.29-.17-.22-.05-.46-.04-.69-.05-.93-.04-1.86.04-2.78-.08-.08-.01-.18,0-.26.01-.31.08-.63.06-.95.04-.04,0-.09.06-.14.1,0,0,0,0,0,0-.15-.15-.34-.21-.55-.22-.58-.01-1.16-.04-1.74.04-.43.06-.86.1-1.29.03-.05-.09,0-.23-.16-.26-.34-.05-.69,0-1.03-.13-.29-.12-.62-.09-.94-.18-.47-.13-.97-.19-1.45-.24-.31-.03-.45-.22-.59-.45-.01-.02-.02-.05-.02-.08-.09-.48-.34-.86-.7-1.18-.04-.04-.07-.09-.1-.14.02-.32.34-.45.46-.71.04-.28-.05-.51-.23-.72-.1-.11-.2-.21-.29-.32-.05-.07-.07-.16-.02-.24.17-.23.33-.47.67-.48.16,0,.24-.11.29-.27.02-.08.19-.11.29-.16.16-.08.31-.16.24-.39-.02-.08.02-.17.02-.26,0-.14-.13-.29,0-.41.11-.09.25-.16.38-.19.76-.2,1.53-.32,2.32-.19.69.11,1.38.2,2.07.28,1.3.15,2.59.31,3.88.52,1.09.18,2.18.35,3.27.48.75.09,1.48.3,2.21.47.87.21,1.73.48,2.6.7.25.06.52.09.77.09.32,0,.63.07.95.13.49.1.85.36,1.07.8.08.15.13.32.23.46.35.49.38,1.01.23,1.57-.02.08-.02.16-.02.24.07,0,.13.01.18.02.07,0,.13.06.1.12-.19.35-.4.7-.59,1.03-.23.16-.47.03-.69.1.07,0,.08.01.03.03,0-.02,0-.04,0-.06Z"/>
  <path class="cls-1" d="M40.35,50.24c.18-.13.32-.23.44-.32-.02-.62-.14-.74.55-.59.03,0,.06,0,.11,0,.05-.05.1-.12.16-.18.1-.11.23-.17.38-.17.4-.02.8.1,1.2.03.07-.01.17.03.24.07.32.21.63.42.93.63.09.07.17.16.25.24.26.27.51.56.79.8.65.54,1.18,1.19,1.75,1.81.35.39.69.78,1.04,1.17.19.22.37.45.56.67.11.13.23.26.35.39.11.13.23.26.33.4.6.78,1.2,1.57,1.79,2.35.1.14.2.29.3.43.39.57.78,1.15,1.26,1.66.08.08.16.17.22.27.33.44.66.88.97,1.34.26.38.51.77.7,1.2.23.52.56,1,.77,1.54.18.44.28.87.3,1.34.01.25.06.5.08.76.01.14.09.27.15.42-.12.19-.24.38-.36.57-.06.1-.16.12-.31.08-.08-.02-.16-.06-.24-.08-.08-.02-.13.07-.09.17,0,.03.03.05.04.08.04.14-.03.26-.14.23-.14-.03-.28-.07-.42-.1-.27-.06-.52-.08-.68.21-.02.03-.11.06-.15.04-.19-.06-.37-.16-.57-.21-.16-.05-.34-.08-.51-.09-.07,0-.18.03-.23.09-.11.13-.22.18-.37.12-.11-.05-.21-.12-.32-.14-.47-.1-.75-.41-.98-.8-.15-.25-.27-.51-.4-.77-.25-.52-.53-1.03-.86-1.51-.51-.74-.99-1.5-1.42-2.29-.88-1.64-1.98-3.14-3.23-4.51-.08-.09-.16-.17-.22-.27-.45-.79-1.08-1.43-1.73-2.05-.19-.18-.39-.35-.57-.53-.23-.23-.42-.48-.66-.69-.22-.19-.47-.33-.71-.49-.2-.13-.34-.3-.43-.53-.08-.21-.2-.42-.33-.61-.2-.3-.14-.61-.04-.92.27-.21.22-.51.25-.79.01-.14.04-.29.06-.47Z"/>
  <path class="cls-1" d="M103.01,81.69c.06.06.11.15.18.17.27.09.55.16.86.25.09.14.2.31.31.47-.08.19-.2.36-.1.57.04.08.05.17.06.25.01.12-.04.23-.14.3-.09.06-.24.06-.25.2,0,.11.04.22.07.34-.11.23-.44.27-.53.54-.25.07-.3.34-.46.49-.18.16-.36.29-.61.27-.17-.01-.35-.01-.52-.01-.26,0-.52.03-.75.19-.2.14-.44.15-.67.11-.84-.16-1.67-.12-2.52-.06-.75.05-1.5.1-2.25.13-.75.03-1.51.05-2.26.06-.78.01-1.57,0-2.35,0-.23,0-.46.01-.69.04-.41.05-.81.04-1.22,0-.37-.04-.75-.08-1.13-.1-.84-.03-1.68-.04-2.52-.06-.38-.01-.76.05-1.12-.08-.43.07-.86-.06-1.29-.04-.23,0-.46,0-.69-.02-.54-.06-.94-.28-.99-.89,0-.06-.03-.11-.04-.17,0-.03-.03-.05-.07-.11-.12-.06-.26-.15-.42-.22-.18-.08-.28-.22-.29-.4-.02-.23-.06-.46-.12-.68-.09-.34,0-.63.34-.79.02-.01.05-.03.06-.06.02-.08.05-.17.05-.25,0-.03-.09-.06-.14-.09-.04-.03-.1-.06-.12-.1-.03-.05.06-.18.13-.19.06-.01.11-.01.17-.02.06,0,.13,0,.17-.02.39-.27.83-.24,1.25-.17.57.1,1.14.2,1.73.14.17-.02.35.03.52.05.87.11,1.74.12,2.61.13.2,0,.41.02.61.02.14,0,.3.02.43-.03.65-.25,1.32-.16,1.98-.18.38,0,.75.01,1.13.02.35,0,.7,0,1.01-.17.31.02.53-.18.75-.36.22-.17.46-.23.73-.19.2.03.41.04.6.08.6.13,1.2.19,1.81.2.87.02,1.74.05,2.61.03.55-.01,1.09-.12,1.64-.18.37-.04.75-.07,1.12-.11.32-.03.63.04.94.13.21.06.34.21.42.41l.03-.02c-.08-.03-.15-.06-.23-.08-.06-.01-.1.03-.1.1,0,.03,0,.07.02.07.1.04.2.07.3.11l-.03-.02Z"/>
  <path class="cls-1" d="M47.34,109.51c-.13.2-.31.34-.5.47-.19.12-.39.12-.55-.05-.1-.11-.21-.2-.35-.22-.14-.02-.29-.04-.43-.07-.08-.02-.17-.04-.24-.09-.41-.32-.8-.68-.98-1.18-.05-.13-.06-.29-.04-.42.03-.2.12-.39.17-.58.09-.32.08-.36-.19-.69.1-.33.11-.69.37-.96.07-.31.15-.61.22-.93.03-.12.08-.21.18-.28.11-.08.02-.23.08-.32.21-.35.39-.71.65-1.01.39-.45.63-.97.87-1.5.44-1.01.87-2.02,1.32-3.02.14-.32.26-.65.47-.93.08-.11.15-.25.19-.39.19-.58.5-1.11.79-1.64.72-1.36,1.36-2.76,1.96-4.17.22-.51.57-.94.93-1.35.18-.2.41-.32.68-.36.46.12.85.36,1.21.65.3.24.62.41.98.56,0,.07,0,.16,0,.24-.02.12,0,.23.08.32.09.11.18.22.27.33,0,.04,0,.07,0,.09-.1.21-.23.41-.29.63-.06.22-.05.45-.07.68-.01.15-.06.28-.15.4-.21.25-.32.54-.39.86-.05.22-.12.45-.21.66-.38.84-.72,1.71-1.14,2.53-.08.15-.14.32-.21.48-.3.69-.64,1.36-.99,2.03-.31.59-.59,1.19-.83,1.82-.59,1.51-1.15,3.04-1.95,4.46-.09.15-.17.3-.23.47-.23.63-.67,1.15-.97,1.74-.09.18-.26.31-.39.47,0-.02-.01-.04-.03-.06,0,0-.04,0-.04,0,0,.05.03.06.09.03-.14.08-.26.18-.32.33h.02Z"/>
  <path class="cls-1" d="M69.48,107.19c-.1.11-.2.23-.17.38.09.46-.01.92-.03,1.37-.01.41-.07.81-.07,1.22,0,.58-.21,1.14-.12,1.73-.21.41-.02.85-.11,1.27-.18.12-.37.25-.57.37-.13.08-.2.2-.25.34-.1.26-.3.39-.57.48-.24.08-.45.11-.66-.04-.24-.17-.5-.28-.81-.26-.28.02-.51-.09-.68-.32-.03-.04-.08-.1-.12-.11-.51-.18-.55-.62-.59-1.05-.01-.14.02-.29.04-.43.02-.14.06-.29.04-.43-.06-.55.06-1.09.08-1.64.02-.55.03-1.1.05-1.65.04-1.07.08-2.14.12-3.21,0-.14.02-.29.05-.43.05-.35.04-.69.02-1.04-.06-.92-.08-1.85-.12-2.78,0-.12.02-.24,0-.35-.18-.83-.02-1.68-.13-2.51-.02-.14,0-.29,0-.43.01-.33.12-.61.32-.88.3-.4.61-.77.99-1.08.22-.18.46-.24.72-.23.17,0,.25.1.28.27,0,.05.05.1.08.15.2.08.48,0,.59.29.02.05.07.1.12.12.56.16.82.6,1.05,1.08.04.08.09.15.13.2.08.24-.1.4-.11.6,0,.2,0,.41,0,.61,0,.06,0,.12-.02.17-.17.6-.12,1.2-.08,1.81.06.84.07,1.68.11,2.52.02.38,0,.76.08,1.13.18.83.21,1.66.17,2.5,0,.12.06.22.17.28h0Z"/>
  <path class="cls-1" d="M86.45,99.47c.22.12.4.29.52.51l.03-.02c0,.07,0,.14,0,.21,0,0-.01-.02-.01-.02l.19.2s-.02-.02-.02-.02c.07.07.13.13.2.2h0c.41.52.82,1.04,1.24,1.56.57.73,1.13,1.46,1.69,2.2.43.58.88,1.15,1.33,1.72.12.16.26.33.46.39.29.09.42.28.48.55.07.34.23.65.25,1.01.01.22.11.45.19.66.12.28.17.55.02.83-.05.1-.03.23-.05.33-.05.19-.2.27-.39.19-.14-.06-.26-.1-.39.03-.2.19-.46.24-.72.26-.2.02-.41-.02-.61.01-.32.06-.57-.02-.77-.27-.15-.19-.34-.32-.57-.37-.21-.04-.37-.15-.51-.31-.06-.07-.12-.13-.17-.19-.69-.89-1.41-1.77-2-2.73-.31-.5-.65-.96-1-1.41-.59-.75-1.23-1.46-1.83-2.2-.26-.31-.49-.65-.73-.97-.21-.27-.43-.55-.65-.81-.37-.45-.74-.89-1.12-1.33-.32-.37-.68-.71-1.11-.97-.27-.16-.41-.39-.45-.7-.03-.26-.1-.51-.1-.77,0-.26.02-.52.07-.77.05-.25.16-.5.25-.74.03-.08.08-.16.14-.22.36-.37.78-.63,1.3-.58.33.03.63-.03.9-.1.61.25.89.78,1.23,1.23.14.19.25.4.45.52.28.17.48.42.68.66.33.4.66.81.98,1.22.22.27.44.54.65.81h.02c-.06.06-.03.14,0,.21h-.02Z"/>
  <path class="cls-1" d="M74.39,86.83c-.03-.16-.13-.31-.08-.49.01-.04.06-.08.1-.11,0,0,.05.02.06.04.01.02.02.06,0,.08-.06.16-.14.3-.1.48,0,0,0,0,0,0Z"/>
  <path class="cls-1" d="M74.09,86.92c-.09.05-.18.1-.28.13-.08.03-.16,0-.18-.09-.02-.07-.03-.15-.04-.23,0,0-.02.03-.02.03.07,0,.13,0,.2,0,0,0-.03-.02-.03-.02.1.11.22.19.38.2h-.03Z"/>
  <path class="cls-1" d="M38.6,83.84s.05,0,.07,0c-.02,0-.05.02-.07.02-.03,0-.05-.02-.08-.03.02,0,.05,0,.07,0Z"/>
  <path class="cls-1" d="M69.16,55.84s-.03.1-.04.15c0-.03-.02-.05-.03-.08,0-.03,0-.06,0-.08,0-.02.03-.05.04-.07,0,.03.02.05.02.08Z"/>
  <path class="cls-1" d="M73.74,86.39c.12.12.23.24.35.36l.03-.02c-.13,0-.25,0-.38,0,0,0,.03.02.03.02,0-.13,0-.25,0-.38h-.03Z"/>
  <polygon class="cls-1" points="45.08 84.4 45.09 84.38 45.14 84.39 45.08 84.4"/>
  <path class="cls-1" d="M36.06,83.68c-.08,0-.15,0-.23,0-.03,0-.07.02-.07.01-.03-.06,0-.07.07-.05.08.02.15.02.23.03,0,0,0,0,0,0Z"/>
  <path class="cls-1" d="M39.34,83.83l.06.03s-.04.03-.06.03c-.02,0-.04-.02-.06-.03.02,0,.04-.02.06-.03Z"/>
  <polygon class="cls-1" points="70.47 88.19 70.52 88.22 70.46 88.24 70.47 88.19"/>
  <path class="cls-1" d="M68.26,40.99s-.03.1-.04.15c.01-.05.03-.1.04-.15,0,0,0,0,0,0Z"/>
  <path class="cls-1" d="M74.33,76.78s.01.05.02.07c0,0,0-.01,0-.02,0-.03,0-.05,0-.07,0,0-.03.02-.03.02Z"/>
  <path class="cls-1" d="M67.21,30.04s.05.02.05.02c0,.02-.01.06-.02.06-.06,0-.07-.03-.03-.09Z"/>
  <path class="cls-1" d="M67.22,28.6s-.02.07-.03.11c0-.02.03-.03.03-.05,0-.02,0-.04-.01-.06,0,0,.01,0,.01,0Z"/>
  <path class="cls-1" d="M103.02,81.53c.08-.01.16,0,.21.07-.07.03-.14.06-.21.08,0,0,.03.02.03.02,0-.07,0-.13,0-.2l-.03.02Z"/>
  <path class="cls-1" d="M69.48,107.19s-.03.09-.04.13c.01-.05.03-.09.04-.14,0,0,0,0,0,0Z"/>
  <polygon class="cls-1" points="64.34 86.34 64.3 86.33 64.33 86.36 64.34 86.34"/>
  <path class="cls-1" d="M64.33,86.36c-.01.13.04.22.17.26l.03.02c-.06-.1-.13-.19-.19-.29,0,0,0,.02,0,.02Z"/>
  <path class="cls-1" d="M74.08,76.64c.08.05.17.1.26.15,0,0,.03-.02.03-.02-.11,0-.21-.04-.26-.15,0,0-.02.02-.02.02Z"/>
  <path class="cls-1" d="M64.5,86.62s.04,0,.05,0c-.04-.05-.05-.04-.03.02,0,0-.03-.02-.03-.02Z"/>
  <path class="cls-1" d="M92.03,55.21s.04-.07.06-.11c0-.01-.02-.03-.04-.05v-.03c-.01.07-.01.14-.01.2h-.01Z"/>
  <path class="cls-1" d="M92.05,55.05c.06-.06.11-.12.17-.18,0,0-.01-.02-.01-.02,0,.07,0,.14,0,.2,0,0,.02-.03.02-.03-.07,0-.13,0-.2,0,0,0,.01.03.01.03Z"/>
  <path class="cls-1" d="M74.09,86.75c.1.03.2.05.3.08,0,0,0,0,0,0-.12-.05-.21.04-.3.09,0,0,.03.01.03.01,0-.07,0-.13,0-.2l-.03.02Z"/>
  <path class="cls-1" d="M92.22,54.87c.06-.07.13-.13.19-.2,0,0-.03-.01-.03-.01,0,.07,0,.14,0,.22,0,0,.02-.02.02-.02-.07,0-.14,0-.2,0v.02Z"/>
  <polygon class="cls-1" points="68.38 46.92 68.37 46.85 68.39 46.9 68.38 46.92"/>
  <path class="cls-1" d="M86.46,99.27c.06.14.06.2,0,.2,0,0,.02.01.02.01,0-.07,0-.14,0-.21h-.02Z"/>
  <path class="cls-1" d="M86.97,99.98c.06.06.12.12.18.18,0,0,.03-.01.03-.01-.07,0-.13,0-.2,0,0,0,.01.02.01.02,0-.07,0-.14,0-.21l-.03.02Z"/>
  <path class="cls-1" d="M87.16,100.16l.22.17h-.02c-.07,0-.13,0-.2,0,0,0,.02.02.02.02,0-.07,0-.14,0-.2h-.03Z"/>
  <path class="cls-1" d="M87.38,100.33s-.04.08-.05.12c0,.02,0,.05.02.07,0,0,0,0,0,0,0-.07,0-.14,0-.2h.02Z"/>
  <polygon class="cls-1" points="63.85 18.12 63.85 18.07 63.87 18.1 63.85 18.12"/>
  <path class="cls-1" d="M47.32,109.53s0,.04-.01.06c0-.02.02-.05.03-.07,0,0-.02.01-.02.01Z"/>
</svg>