<?xml version="1.0" encoding="UTF-8"?>
<svg id="Layer_1" data-name="Layer 1" xmlns="http://www.w3.org/2000/svg" viewBox="0 0 128 128">
  <defs>
    <style>
      .cls-1 {
        stroke-width: 0px;
      }
    </style>
  </defs>
  <path class="cls-1" d="M28.69,10.39c.11.03.22,0,.27-.1.13-.25.3-.42.59-.53.38-.15.72-.39,1.09-.58.72-.36,1.5-.51,2.28-.64,1.39-.24,2.78-.48,4.17-.71.58-.1,1.15-.2,1.73-.26,1.37-.14,2.74-.29,4.12-.24.51.02,1.03-.04,1.55-.07.38-.02.75-.09,1.13-.06.26.02.47-.22.78-.13.22.06.49.04.71-.02.29-.07.54.14.81.07.27-.07.54-.04.82-.01.65.06,1.31.05,1.96-.04.31-.05.61-.05.92.01.62.13,1.23.09,1.84-.05.31-.07.61-.1.92-.06.14.02.27.04.41.03.55-.02,1.08-.25,1.64-.08.55-.04,1.1-.08,1.65-.12,1.06-.08,2.13-.18,3.19-.15.35.01.68-.08,1.02-.1.86-.06,1.72-.08,2.57-.22.2-.03.41,0,.62-.01.24,0,.48-.02.72-.05.62-.05,1.23-.11,1.85-.17.45-.04.89-.02,1.34.06.51.09,1.02.07,1.54.05.96-.04,1.92-.1,2.88-.06.31.01.62.03.93,0,1.31-.13,2.62-.07,3.92-.08,2.24-.02,4.48-.03,6.72-.02,1.41,0,2.82.05,4.23.08.2,0,.41.06.61.1.17.03.33.1.5.11,1.22.07,2.36.47,3.51.81.66.19,1.29.49,1.92.75.6.25,1.21.51,1.8.79.43.21.85.45,1.26.7.14.09.28.22.34.37.09.2.22.35.41.44.21.1.3.29.37.47.15.36.14.74.09,1.12-.01.1-.08.19-.13.27-.07.12-.14.23-.22.37.28.78.54,1.56.71,2.37.01.07.04.13.07.19.62,1.4.9,2.88.99,4.41.01.24.06.48.09.72.03.31.09.61.09.92.05,1.86.18,3.72.14,5.58-.02.86-.08,1.72-.12,2.58-.04,1-.11,1.99-.23,2.98-.02.17-.03.34-.04.51,0,.13.12.27.25.28,1,.04,2,.04,2.99-.07.55-.06,1.1-.11,1.65-.11.9,0,1.79-.02,2.69.04.82.05,1.64.21,2.46.28.8.07,1.55.31,2.3.56.89.3,1.65.85,2.49,1.24.3.28.64.53.9.85.72.88,1.38,1.8,1.8,2.87.2.51.44,1.01.68,1.51.29.59.5,1.21.68,1.84.42,1.53.74,3.08.86,4.66.09,1.07.12,2.13.16,3.2.09,2.41.19,4.82.3,7.23.04.79.13,1.58.19,2.37.04.58.07,1.17.12,1.75.11,1.51.21,3.02.34,4.53.05.55.07,1.1,0,1.65-.07.58-.05,1.16.02,1.75.06.48.06.96.07,1.44.02.96.03,1.93.21,2.88.11.61.13,1.23.14,1.85.02,1.2.05,2.41.17,3.61.08.79.06,1.58.08,2.37.02.79.04,1.58.05,2.38,0,.48.03.96,0,1.45-.04.69-.06,1.37.11,2.05.05.2.09.43.04.61-.22.8-.12,1.64-.45,2.42-.36.86-.75,1.7-1.27,2.47-.06.09-.12.17-.19.24-.68.58-1.29,1.23-2,1.77-.53.4-1.11.68-1.7.95-.79.35-1.63.52-2.46.75-.79.01-1.56.26-2.36.19-.31-.03-.62,0-.93.03-.62.05-1.23.06-1.85-.09-.23-.05-.48-.03-.72-.05-.86-.07-1.71-.14-2.56-.29-.27-.05-.54-.09-.82-.04-.25.05-.36.13-.44.36-.15.42-.16.88-.34,1.29-.04.09-.05.2-.06.3-.07,1.17-.24,2.33-.17,3.5.05.68.01,1.37.02,2.06,0,.24,0,.48,0,.72.11,1.86.07,3.72.13,5.57.02.56-.01,1.11-.12,1.64-.2,1.05-.33,2.11-.56,3.15-.22.97-.52,1.92-.84,2.87-.02.06-.04.13-.08.19-.45.73-.93,1.43-1.58,2.02-.75.69-1.63,1.14-2.51,1.61-.24.13-.49.26-.74.37-.22.09-.45.17-.68.23-1.23.31-2.49.53-3.74.76-.03,0-.07.02-.1.02-2.29.29-4.56.69-6.87.86-.62.05-1.24.04-1.86.06-.31,0-.62,0-.93.04-1.17.15-2.34.13-3.51.14-.79,0-1.58.04-2.37.1-1.03.08-2.06.1-3.09.1-.96,0-1.92.07-2.88.12-.79.04-1.58.09-2.37.14-.72.04-1.44.08-2.16.12-.45.02-.89.05-1.34,0-.41-.04-.82.02-1.23,0-.69-.02-1.37,0-2.06-.1-.27-.04-.55,0-.83,0-.86.02-1.72.05-2.58.08-.14,0-.28.02-.41,0-1.37-.17-2.75-.17-4.13-.17-.97,0-1.93-.05-2.89-.1-.93-.05-1.86-.05-2.79.06-.79.09-1.58.03-2.37.01-.55-.01-1.1-.01-1.65,0-1.07.04-2.13.07-3.2.07-1.04,0-2.06-.17-3.08-.3-.34-.04-.68-.09-1.03-.12-.75-.07-1.51-.13-2.26-.22-.52-.06-1.01-.23-1.48-.45-.34-.16-.69-.31-1.01-.51-.29-.18-.67-.2-.91-.47-.23-.27-.57-.39-.83-.6-.29-.24-.55-.51-.74-.85v.03c-.06-.08-.14-.16-.22-.23l.03.02c-.09,0-.17,0-.26,0v-.03c-.75-.58-1.24-1.35-1.65-2.19-.52-1.06-.79-2.2-1.08-3.33-.23-.86-.49-1.72-.69-2.59-.29-1.23-.64-2.46-.66-3.75-.01-.93-.08-1.85-.31-2.76-.04-.16-.04-.34-.05-.51,0-.24-.01-.48,0-.72.06-1.35-.12-2.68-.23-4.02-.02-.24-.05-.49-.15-.7-.23-.48-.25-1-.29-1.51,0-.14-.01-.28-.03-.41-.05-.53-.34-.91-.85-1.04-.23-.06-.48-.13-.71-.11-.73.06-1.44-.08-2.16-.11-1.37-.07-2.75-.16-4.12-.26-.48-.03-.96-.12-1.43-.2-.95-.15-1.9-.3-2.86-.42-.68-.08-1.35-.26-2.01-.45-.81-.23-1.5-.67-2.07-1.31-.14-.15-.28-.3-.42-.46-.32-.36-.57-.77-.73-1.23-.28-.78-.54-1.56-.7-2.37-.09-.47-.15-.95-.23-1.42-.17-1.02-.34-2.03-.51-3.05.01-1.14-.19-2.26-.23-3.4-.02-.65-.08-1.3-.12-1.96,0-.14-.02-.27-.03-.41-.01-1.65.04-3.3.23-4.94.16-1.37.33-2.73.38-4.11.02-.52.09-1.03.11-1.54.04-.82.09-1.65.1-2.48,0-1.04.11-2.06.25-3.08.09-.65.12-1.3.18-1.95.06-.65.12-1.3.19-1.95.13-1.16.36-2.31.41-3.48.03-.62.12-1.23.22-1.84.17-1.06.23-2.12.32-3.18.04-.48.09-.96.14-1.44.01-.1.04-.2.04-.31.03-1.52.22-3.02.45-4.52.07-.44.08-.89.16-1.33.12-.71.26-1.42.4-2.13.01-.07.03-.14.07-.19.33-.48.46-1.08.96-1.45.1-.08.15-.23.24-.33.6-.69,1.32-1.19,2.19-1.48.26-.09.53-.16.79-.24.43-.14.86-.19,1.32-.07.54.14,1.09.09,1.62-.11.38-.14.78-.25,1.18-.37.53-.16,1.08-.17,1.62-.26.95-.15,1.92-.16,2.87-.32.81-.13,1.65-.12,2.47-.16.07,0,.14.02.21,0,.88-.16,1.77-.19,2.66-.26.08,0,.15-.12.22-.18-.11-.38-.18-.75-.31-1.11-.22-.62-.32-1.26-.26-1.93.04-.45.03-.9.06-1.34.05-.66-.02-1.31-.1-1.96-.06-.48-.13-.96-.15-1.44-.04-.86-.15-1.71-.3-2.56-.15-.85-.26-1.7-.24-2.56.03-1-.06-1.99-.18-2.99-.04-.34-.05-.69-.07-1.03-.03-.52-.03-1.04-.11-1.54-.2-1.26-.26-2.53-.24-3.81,0-.68.15-1.36.44-1.99.13-.29.26-.53.56-.7.22-.13.43-.33.51-.6,0,0,.04.02.04.02.12-.04.2-.12.24-.24v-.02ZM68.02,74.28h-.05s.08,0,.08,0c-.12.06-.24.15-.37.17-.24.02-.48.01-.72-.03-.15-.02.02-.16-.05-.26-.6-.01-1.21-.03-1.83-.04-.38,0-.76-.02-1.13.03-.55.07-1.1.08-1.65.08-.79,0-1.58.03-2.35-.24-.19-.07-.41-.05-.61-.06-.65-.03-1.31,0-1.96-.08-.99-.12-1.98-.15-2.98-.1-.61.03-1.23.06-1.83-.18-.29-.12-.61-.09-.92-.08-.34.02-.69.07-1.03.04-.35-.03-.68-.03-1.03.02-.17.03-.35.02-.51,0-.21-.04-.41-.04-.61-.01-.24.03-.49.09-.72.05-.75-.13-1.51.08-2.26-.08-1.31,0-2.61.01-3.92.02-.2,0-.41.05-.61.07-.14,0-.29.03-.41-.01-.44-.17-.89-.06-1.33-.04-.41.02-.82.01-1.23.02-.43,0-.89-.12-1.29.18-.07.05-.2.06-.3.05-.69-.04-1.37.07-2.06.1-.96.04-1.85-.12-2.56-.85-.05-.05-.1-.09-.15-.14-.11-.1-.24-.13-.38-.13-.1,0-.2.03-.31.04-.9.12-.85.42-.91,1.1-.01.13.03.27.04.41,0,.27.02.56-.03.82-.1.55-.05,1.1.02,1.64.08.68.15,1.37.21,2.05.02.17.01.35,0,.52-.09.69-.03,1.37.01,2.06.03.55.02,1.1.02,1.65-.23.92-.15,1.85-.06,2.77.1,1,.09,1.99-.02,2.99-.06.55-.08,1.09.02,1.64.1.58.09,1.17.01,1.75-.05.35-.05.68.08,1.01.28.69.29,1.42.11,2.13-.11.41-.11.82-.11,1.23,0,.21.03.41.01.62-.08.69.01,1.37.09,2.06.06.51.12,1.03.14,1.54.05,1.2.17,2.4.27,3.6.03.41.06.82.08,1.23.04.58.06,1.17.21,1.74.12.47.16.95.19,1.43.08,1.14.29,2.25.71,3.32.17.45.31.91.42,1.38.26,1.22.32,1.35.92,2.28.38.58.81,1.12,1.43,1.46.66.37,1.33.73,2.05.97.65.22,1.29.44,2.01.37.4-.04.82.07,1.23.11.82.08,1.64.2,2.46.24,1.2.05,2.41.08,3.61.02,1-.05,2-.1,2.99,0,.24.02.48.01.72,0,1.93-.07,3.86,0,5.78.01.96,0,1.93,0,2.89.03.37.01.76.05,1.12.16.44.14.87.16,1.32.06.3-.06.62-.08.92-.07.79,0,1.58,0,2.36-.11.23-.04.48,0,.72.03.17.03.34.03.51.04.45.04.9-.06,1.34,0,.42.05.82.02,1.23,0,.89-.06,1.77-.24,2.66-.09.13.02.27-.03.41-.04.14,0,.28-.03.41,0,.31.09.61.12.89-.06.72.06,1.43-.23,2.15-.08.13.03.28,0,.4-.05.28-.09.54-.08.8.05.08.04.25.03.28-.02.12-.23.33-.24.53-.22.38.03.75.02,1.13-.03.2-.03.41-.03.62,0,.41.04.81.11,1.2-.12.08-.05.2-.04.3-.02.44.08.88-.03,1.33.02.44.06.89,0,1.34-.05.45-.05.89-.07,1.34-.05.79.03,1.58.01,2.36-.13.24-.04.48-.08.72-.05.73.1,1.44-.02,2.14-.13,1.12-.19,2.25-.26,3.37-.48,1.24-.03,2.45-.3,3.67-.51.71-.12,1.4-.35,2.1-.55.2-.06.39-.14.57-.25.42-.24.79-.54.98-1.01.05-.13.12-.25.19-.36.37-.55.57-1.17.68-1.82.15-.88.29-1.77.46-2.64.12-.61.17-1.23.18-1.84,0-1.24,0-2.48-.01-3.72,0-1.31-.02-2.62.01-3.92.03-1.48.11-2.95.16-4.43.02-.58.04-1.17.04-1.75,0-.13-.07-.26-.14-.37-.07-.11-.18-.2-.29-.29-.35-.31-.51-.71-.6-1.17-.09-.49,0-.96.02-1.44,0-.24.1-.49.05-.71-.1-.45-.04-.89-.03-1.33,0-.65-.07-1.3-.15-1.94-.12-1.02-.37-2.03-.3-3.07,0-.14,0-.28,0-.41.02-1.1.01-2.2-.22-3.29-.08-.37-.07-.75-.07-1.13,0-.95-.28-1.83-.71-2.66-.16-.3-.39-.47-.73-.49-.52-.03-1.03-.08-1.55-.08-.83,0-1.65-.13-2.46-.29-.81-.16-1.62-.32-2.44-.37-.21-.01-.41-.05-.61-.09-1.69-.32-3.4-.55-5.12-.61-.86-.03-1.72-.1-2.58-.15-.58-.03-1.17-.08-1.75-.1-1.51-.05-3.03-.1-4.54-.15-.65-.02-1.31-.08-1.96-.08-1.27,0-2.55-.02-3.82-.1-.41-.02-.81-.04-1.23,0-.48.05-.96.01-1.45.02-.28,0-.54-.08-.8-.19ZM71.33,68.91v.03c1.34,0,2.69,0,4.03,0,1.62.01,3.24.03,4.86.07,1.24.03,2.48.09,3.72.14.48.02.96.05,1.44.08.58.04,1.17.09,1.75.13,1.06.09,2.13.14,3.19.27,1.06.13,2.11.33,3.16.5.37.06.76.06,1.13.13.95.17,1.9.3,2.87.33.17,0,.34.02.51.04.58.09,1.15.21,1.73.29.58.07,1.15.19,1.74.16.16,0,.33.07.49.13.12.05.23.15.35.22.68.44,1,.92,1.22,1.7.11.41.14.81.14,1.22,0,.45.07.89-.07,1.33-.04.13,0,.27,0,.41,0,.62.07,1.24.19,1.85.13.68.17,1.37.23,2.05.03.34.05.69.09,1.03.1.82.25,1.63.27,2.46,0,.31.05.62.09.92.06.65.12,1.29.25,1.94.13.67.13,1.37.19,2.05-.14.51-.01,1.03-.08,1.54-.04.3,0,.62.04.93,0,.09.09.2.17.23.15.07.32.12.49.15.81.16,1.62.29,2.43.46.58.12,1.16.16,1.74.22.65.07,1.29.14,1.94.15.1,0,.21,0,.3.05.3.14.6.11.91.06.31-.05.62-.06.93-.08,1.22-.06,1.2-.1,2.26-.59.8-.37,1.22-1.08,1.78-1.67.52-.94.98-1.9.92-3.01,0-.17.01-.34,0-.52-.01-.83-.02-1.65-.05-2.48-.02-.62,0-1.24-.08-1.85-.09-.66.07-1.3.02-1.95-.07-.93-.14-1.85-.25-2.78-.11-.92-.27-1.83-.19-2.77.03-.41-.05-.82-.08-1.23-.01-.17-.05-.34-.06-.51-.05-.79.02-1.58-.15-2.36-.04-1.37-.13-2.75-.12-4.12,0-1.14-.14-2.27-.2-3.4-.04-.82-.18-1.64-.18-2.47,0-.14,0-.28-.04-.41-.14-.47-.12-.95-.14-1.44-.03-.76-.03-1.52-.1-2.27-.07-.72-.13-1.44-.12-2.16.02-1.38-.16-2.75-.22-4.12,0-.21-.05-.41-.08-.61-.11-.85-.28-1.7-.3-2.56,0-.24-.06-.48-.1-.71-.04-.27-.12-.54-.13-.82-.02-.81-.39-1.53-.51-2.31-.31-.69-.58-1.4-1-2.03-.27-.4-.54-.8-.86-1.16-.34-.38-.74-.72-1.11-1.07-.05-.05-.11-.09-.17-.12-.58-.28-1.08-.74-1.78-.75-.1,0-.19-.06-.29-.1-1.16-.39-2.35-.51-3.56-.38-.9.1-1.79.07-2.68.07-.52,0-1.03.03-1.54.11-.41.07-.81.13-1.23.09-.21-.02-.41,0-.61.08-.16.06-.33.08-.5.11-.58.11-1.12.31-1.55.74-.22.22-.48.39-.73.57-.08.06-.18.11-.27.14-1.22.44-1.72.53-3.11.59-.17,0-.34,0-.51-.03-.85-.13-1.71-.2-2.57-.14-.82.05-1.65.02-2.46.22-1.03,0-2.06.1-3.1.03-.34-.02-.69-.03-1.03-.03-.93,0-1.85,0-2.78-.02-1.2-.03-2.4-.09-3.61-.09-.65,0-1.31-.04-1.96.06-.27.04-.55.02-.82,0-.89-.06-1.79.06-2.68-.06-.23-.03-.48.01-.72.06-.41.08-.82.07-1.24.06-.34,0-.69-.02-1.03-.02-1.52.02-3.03.04-4.55.06-.38,0-.76.04-1.13.06-.72.04-1.44.11-2.16.12-1.14.02-2.27.05-3.41.07-1,.02-1.99.08-2.99.09-.45,0-.89.04-1.34.05-.83,0-1.65-.03-2.48,0-2.31.1-4.62-.04-6.92.08-.21.01-.41,0-.62-.01-1.34,0-2.69-.1-4.02.08-.14.02-.28,0-.41,0-1.62.03-3.23.14-4.85.08-.21,0-.41,0-.62,0-.96.04-1.92.11-2.89.02-.1,0-.21,0-.31,0-1.89.06-3.78.14-5.68.13-.41,0-.83.02-1.24.07-1.78.18-3.56.36-5.34.58-1.13.13-2.25.32-3.37.49-.57.09-.92.42-1.03,1-.04.24-.13.47-.14.7-.03.62-.14,1.23-.26,1.83-.05.27-.08.54-.11.82-.05.55-.03,1.11-.15,1.64-.15.64-.16,1.29-.22,1.94-.01.14-.02.28-.05.41-.22,1.12-.17,2.26-.42,3.38.04.94-.31,1.83-.34,2.76-.24.76-.27,1.56-.37,2.34-.08.61-.11,1.23-.21,1.84-.18,1.19-.33,2.38-.42,3.58-.06.79-.11,1.58-.16,2.37-.04.58-.09,1.17-.12,1.75-.03.51-.05,1.03-.05,1.55,0,.65,0,1.31-.06,1.96-.07.75-.21,1.5-.19,2.26,0,.3-.08.61-.15.91-.2.91-.27,1.84-.31,2.76-.02.45-.05.89-.03,1.34.01.48.09.96.11,1.44.02.48.13.96-.02,1.43-.03.09,0,.2,0,.31.04.86.1,1.72.12,2.57,0,.38.05.75.09,1.13.09.86.23,1.7.49,2.52.03.1.04.2.06.3.08.37.15.74.26,1.1.11.38.36.66.76.77.66.19,1.34.32,2.02.43.31.05.6.14.91.18.42.06.77.3,1.18.37.4.07.82.06,1.23.08.07,0,.14,0,.2.03.23.1.47.08.71.07.21,0,.41.01.62.02.41.02.82.08,1.24.07,1.04-.01,2.06.13,3.08.27.55.08,1.1.08,1.64.03.15-.01.27-.13.26-.26,0-.34,0-.69-.04-1.03-.08-.62-.07-1.22.02-1.84.12-.88.2-1.78.17-2.68-.02-.76.01-1.52.1-2.27.08-.75.08-1.51.05-2.26-.03-.65-.04-1.31-.04-1.96,0-.83-.03-1.65-.14-2.47-.08-.61-.12-1.23.02-1.85.04-.2.05-.41.07-.62.03-.28.02-.55-.13-.8-.26-.43-.27-.92-.36-1.39-.03-.16.02-.34.07-.5.16-.45.32-.9.51-1.35.17-.39.45-.68.87-.83.65-.23,1.31-.39,1.98-.55.74-.17,1.5-.21,2.26-.21.47,0,.88-.11,1.24-.41.41-.33.89-.52,1.36-.72.29-.12.6-.19.91-.17.62.05,1.24.02,1.86-.03.2-.02.41-.01.62.02.82.11,1.65.08,2.48.03.38-.02.76-.04,1.13-.04.62,0,1.24.03,1.86.03.65,0,1.31,0,1.96.07.27.03.55.02.83.02,1.65,0,3.31.02,4.96,0,1.65-.02,3.3.16,4.95.21,1.34.04,2.68.16,4.02.23.72.04,1.45.04,2.17.1,1.2.1,2.41.05,3.61.1.72.03,1.45.04,2.17.07.58.02,1.17.06,1.75.07.69.01,1.38,0,2.07,0ZM97.41,33.54c.09-.28.2-.51.22-.74.12-1.37.36-2.73.38-4.1,0-.14,0-.28.02-.41.21-1.99.14-3.99-.01-5.98-.04-.51-.08-1.03-.09-1.55-.02-1.49-.33-2.94-.65-4.38-.3-1.31-.83-2.55-1.22-3.83-.14-.45-.42-.77-.86-.97-.75-.34-1.52-.64-2.33-.83-1.27-.3-2.56-.56-3.87-.61-.72-.03-1.44-.1-2.16-.03-.24.02-.48-.02-.72-.02-.41,0-.83-.07-1.23,0-.93.14-1.85.12-2.78.13-1.48,0-2.96.03-4.44.04-.48,0-.97,0-1.44.06-.76.09-1.51.1-2.27.03-.82-.07-1.65.1-2.47-.07-.03,0-.07,0-.1,0-.62.08-1.23.08-1.86.06-.55-.02-1.1.02-1.65.06-1.03.07-2.05.21-3.08.25-.03,0-.07,0-.1.01-.75.12-1.51.16-2.26.16-.69,0-1.38,0-2.06,0-.41,0-.83.01-1.24.04-.45.03-.89.08-1.34.11-.79.06-1.58.1-2.37.16-.82.06-1.65.14-2.47.21-.17.01-.34-.01-.51-.01-.89,0-1.79-.06-2.68-.01-.86.05-1.72.1-2.58.05-.9-.05-1.79.08-2.68.07-.55,0-1.1,0-1.65,0-1.28-.03-2.55.09-3.81.27-1.57.23-3.12.51-4.68.8-.33.06-.67.18-.96.35-.33.19-.66.34-1.02.47-.54.2-.93.58-.99,1.2-.02.24-.05.48-.06.72-.02.76,0,1.52.09,2.27.16,1.23.16,2.47.25,3.71.05.58.07,1.17.1,1.75.04.72.16,1.43.13,2.16.23,1.81.36,3.63.54,5.44.1,1.04.04,2.06-.14,3.09-.1.58-.26,1.14-.29,1.73-.01.26-.13.53-.44.65-.11.04-.09.17,0,.22.18.11.37.17.59.15.38-.03.76-.09,1.13-.07,1.03.07,2.06.05,3.09.01.89-.03,1.78-.14,2.68-.1.14,0,.27-.03.41-.04.17,0,.34-.03.51,0,.58.08,1.17.05,1.75.03,1.1-.04,2.2-.05,3.3-.08.17,0,.34.02.51.02.55,0,1.1.02,1.65-.03.68-.06,1.36-.16,2.05-.11.24.02.48-.03.72-.04.14,0,.28-.04.41-.02.82.13,1.65.09,2.47,0,.14-.01.28-.01.41,0,1.17.02,2.34,0,3.51-.05.79-.04,1.58-.08,2.37-.11.69-.02,1.38,0,2.06-.04.65-.03,1.31-.03,1.96,0,.62.02,1.24.02,1.85-.08.37-.06.75-.07,1.13-.08,1.38-.02,2.75-.05,4.13-.09,1.72-.05,3.43-.21,5.16-.16.14,0,.27-.02.41-.03.58-.03,1.17-.08,1.75-.09.62-.01,1.24,0,1.86,0,1.17,0,2.34-.03,3.51-.04.79,0,1.58-.02,2.37-.08.62-.04,1.24-.07,1.86-.07,1.72-.01,3.44-.01,5.16-.02.66,0,1.3-.15,1.93-.31.55-.35,1.25-.37,1.75-.83.09-.09.25-.11.38-.15.3-.08.6-.14.99-.23ZM61.25,74.12c.09,0,.13-.04.12-.11,0-.02-.05-.04-.08-.05-.16-.02-.28.04-.22.09.04.04.12.05.18.07Z"/>
  <path class="cls-1" d="M25.57,35.93c.42,0,.83,0,1.23,0,.13,0,.25,0,.38.06-.51,0-1.01.02-1.52.02-.02,0-.05-.04-.09-.08Z"/>
  <path class="cls-1" d="M22.13,36.41c-.19,0-.35,0-.52,0-.03,0-.06-.02-.09-.03.01-.01.03-.04.04-.04.17,0,.34,0,.5,0,.02,0,.03.03.06.06Z"/>
  <path class="cls-1" d="M23.45,36.14h.62c-.25.12-.41.1-.62,0Z"/>
  <path class="cls-1" d="M19.48,36.57c.18-.1.36-.04.54.02-.18,0-.37.17-.54-.02Z"/>
  <path class="cls-1" d="M18.45,36.83s-.08,0-.09-.02c-.03-.06.01-.09.11-.07.03,0,.05.04.07.05-.03.01-.06.02-.09.03Z"/>
  <path class="cls-1" d="M28.43,10.63q.15-.11.06-.26l-.02.04c0,.08,0,.16,0,.24l-.04-.02Z"/>
  <path class="cls-1" d="M31.36,120.81c-.07-.07-.14-.15-.21-.22,0,0-.01.03-.01.03.09,0,.17,0,.26,0,0,0-.03-.02-.03-.02,0,.08,0,.16,0,.24v-.03Z"/>
  <path class="cls-1" d="M31.58,120.8c-.07.1-.14.05-.22,0,0,0,0,.03,0,.03.08,0,.16,0,.24,0,0,0-.01-.03-.01-.03Z"/>
  <path class="cls-1" d="M28.49,10.37c.06.14.13.09.21.02,0,0,.01.02.01.02-.08,0-.16,0-.24,0l.02-.04Z"/>
  <path class="cls-1" d="M29.74,48.06c.13.05.25.13.38.14.31.03.62.02.93.04.58.03,1.17,0,1.75.11.4.07.82.05,1.24.07.52.02,1.03.04,1.55.07.38.03.74.12,1.06.34.31.21.66.36,1,.54.12.06.18.22.14.35-.01.03-.03.06-.04.1-.03.1-.06.2-.09.28,0,.26.24.34.33.52.07.12.12.25.03.38-.09.14-.19.28-.28.43l.02-.03c-.13.07-.23.17-.23.31-.02.53-.32.89-.69,1.21-.13.11-.28.21-.43.27-1.04.38-2.11.62-3.22.61-.79,0-1.58.04-2.37.11-.95.08-1.91.19-2.87.1-.58-.06-1.17,0-1.75,0-.38,0-.76,0-1.13-.04-.27-.04-.54-.08-.82-.02-.25.05-.48-.03-.69-.15-.57-.32-.92-.8-1.08-1.44-.19-.78-.13-1.57-.15-2.36,0-.07,0-.14.03-.2.2-.49.44-.97.93-1.2.55-.26,1.1-.56,1.67-.78.59-.23,1.15-.19,1.7.02.2.08.38.12.59.1.41-.02.82-.02,1.24-.02.28,0,.54.08.78.24-.39-.1-.79-.18-1.24-.03.44.18.84,0,1.24.03.01-.03.02-.06.04-.1v-.02q.22.17.45,0v.02Z"/>
  <path class="cls-1" d="M47.36,52.74c-.31.18-.6.22-.98.11-.46-.13-.92-.24-1.35-.48-.28-.16-.48-.38-.62-.67-.21-.44-.29-.91-.34-1.39-.02-.17,0-.34,0-.53.78-1.24.61-1.01,1.84-1.45.37-.13.74-.07,1.12-.02.65.08,1.06.44,1.39.95.4.64.56,1.32.36,2.06-.06.23-.07.47-.09.71-.02.24-.17.39-.36.46-.32.11-.66.18-1,.27-.06-.03-.11-.06-.17-.08,0,0-.05.05-.05.06.08.11.16.06.24,0Z"/>
  <path class="cls-1" d="M56.8,53.03c-.08.26-.16.32-.31.27-.16-.06-.32-.11-.48-.18-.09-.04-.19-.1-.24-.18-.12-.16-.2-.35-.34-.5-.11-.12-.28-.14-.38-.31-.24-.42-.66-.55-1.12-.57l.02.03c-.08-.07-.15-.14-.23-.2-.1-.06-.15-.14-.1-.25.07-.16.1-.34.02-.5-.14-.25-.03-.45.07-.67.14-.29.36-.49.6-.69.05-.04.12-.07.17-.11.64-.49,1.37-.59,2.14-.46.7.12,1.17.49,1.44,1.16.22.55.09,1.08-.09,1.59-.09.25-.25.49-.28.76-.05.38-.29.6-.63.73-.1.04-.19.07-.29.1-.02-.1-.03-.2-.07-.28-.05-.09-.14-.13-.25-.09-.02,0-.05.06-.04.07.03.06.06.13.11.16.08.05.18.07.28.11Z"/>
  <path class="cls-1" d="M37.73,51.43c.08-.07.16-.11.23.01,0,0-.05.06-.05.06-.05-.03-.1-.07-.15-.1,0,0-.02.03-.02.03Z"/>
  <path class="cls-1" d="M29.29,48.06c.15,0,.3,0,.45,0,0,0,0-.02,0-.02-.15,0-.3,0-.46,0v.02Z"/>
  <polygon class="cls-1" points="53.93 51.56 53.89 51.59 53.96 51.59 53.93 51.56"/>
  <path class="cls-1" d="M87.08,84.96c-.26.35-.64.6-1.03.82-.18.1-.33.23-.46.39-.44.53-1.03.81-1.69.89-1.06.13-2.12.26-3.19.25-.86-.01-1.73-.04-2.58.04-2.65.25-5.3.14-7.94.16-1.2.01-2.41,0-3.61.06-.96.04-1.92.11-2.89.12-1.38.01-2.75,0-4.13,0-1.62,0-3.24-.04-4.85.07-1.85.14-3.71.16-5.57.19-1.52.02-3.03-.07-4.54-.05-.34,0-.59-.12-.8-.38-.15-.18-.33-.35-.5-.52-.21-.23-.39-.48-.45-.79.25-.29.49-.57.74-.86-.05-.25-.09-.48-.13-.71-.15-.11-.28-.21-.42-.31-.08-.24-.06-.46.09-.69.11-.17.13-.37.36-.47.22-.09.4-.27.6-.39.12-.08.2-.17.26-.31.05-.13.12-.25.2-.36.18-.24.43-.36.72-.3.82.15,1.64.12,2.47.12,1,.01,2,0,2.99.01.76,0,1.51-.11,2.27-.01.13.02.27-.02.41-.03.41-.03.83-.11,1.23-.07.38.04.75-.04,1.13,0,.47.05.96-.02,1.44-.06.86-.07,1.72-.03,2.58.05,1.1.1,2.2.12,3.3.13,1.45,0,2.89-.03,4.34-.02,1.2.01,2.41-.06,3.61-.1.14,0,.28-.03.41,0,1.27.21,2.54.11,3.81.13.31,0,.62.02.93.02.41,0,.83,0,1.24,0,1.38,0,2.75-.03,4.13-.02.93,0,1.86.03,2.78-.08.52-.06,1.03.06,1.53.16.06.01.14.06.17.11.03.05.01.13,0,.19,0,.03-.04.08-.02.09.04.05.08.11.14.14.15.09.31.15.44.25.12.1-.01.29.16.42.26.19.19.23.34.79.08.32.18.64,0,.89Z"/>
  <path class="cls-1" d="M46.98,92.18c-.09-.08-.17-.14-.25-.2-.25-.19-.28-.46-.22-.74.02-.09.08-.2.15-.26.26-.23.51-.47.79-.65.27-.18.46-.4.6-.68.04-.09.13-.16.2-.23.1-.1.22-.18.36-.18.83.01,1.65.03,2.48.05.42.17.87.07,1.31.16.39.08.82,0,1.23-.01.55,0,1.1-.01,1.65-.02.69,0,1.38-.03,2.06-.13.24-.03.48-.04.72-.04,1-.02,1.99-.05,2.99-.17.27-.03.55-.03.82-.04,1.86-.05,3.72-.02,5.58-.01,1.59,0,3.16.14,4.74.26.75.06,1.51.11,2.25.27.2.04.41.04.62.06.48.05.96.1,1.44.15.24.02.48.08.72.07,1.42,0,2.8.27,4.2.44.34.04.68.12.99.27.12.06.27.09.37.17.05.04-.04.22,0,.27.15.18.32.35.5.51.17.14.28.29.22.53-.02.08.04.19.1.28.08.13.09.29.01.39-.18.23-.2.48-.25.75-.05.31-.24.57-.56.69-.06.02-.15.03-.19.08-.39.4-.92.59-1.35.91-.21.15-.41.25-.65.25-1.17.02-2.34.04-3.51.06-1.62.02-3.23-.13-4.84-.3-1.3-.13-2.61-.19-3.91-.24-1.1-.04-2.2-.02-3.3-.02-.28,0-.55.01-.83,0-1-.06-1.99,0-2.99.08-1.37.11-2.75.15-4.12.29-1.3.13-2.61.18-3.91.24-.72.03-1.44.05-2.17.07-.89.03-1.79-.04-2.68.09-.1.01-.21,0-.31,0-.4,0-.74-.13-.99-.46-.12-.17-.26-.32-.39-.48-.5-.12-.41-.56-.49-.9-.04-.15.02-.3.13-.37.43-.3.58-.74.67-1.22Z"/>
  <path class="cls-1" d="M66.91,98.3c.04.06.08.11.11.18.07.23.47.38.15.69-.02.19.13.31.2.45.12.24.15.48-.03.67-.22.24-.28.54-.39.83-.09.23-.26.43-.52.46-.51.06-.78.38-.96.81-.03.06-.08.11-.14.19-.9.1-1.82.16-2.75.12-.45-.02-.89-.03-1.34-.05-.72-.04-1.44-.11-2.16-.14-1.27-.05-2.55-.08-3.82-.11-.17,0-.35.01-.51-.01-1.68-.24-3.37-.14-5.05.02-.48.05-.96.1-1.44.16-.28.04-.47-.09-.61-.3-.11-.17-.19-.36-.3-.54-.05-.09-.1-.21-.18-.24-.43-.14-.37-.53-.46-.84-.02-.08.01-.24.07-.28.45-.32.65-.78.84-1.24,0-.2-.17-.22-.27-.29-.15-.11-.2-.27-.23-.44-.02-.15-.01-.29.12-.36.47-.24.73-.72,1.18-.98.1-.06.15-.22.22-.34.07-.11.14-.23.24-.33.15-.15.34-.24.56-.2.24.04.47.1.71.14.28.05.55.03.81-.08.16-.06.34-.17.48-.14.38.07.76-.1,1.13.02.63.21,1.3.15,1.94.24.24.03.48.03.72.04,1.51.09,3.02.17,4.53.28.96.07,1.92.19,2.88.28.62.06,1.23.13,1.85.14.9.02,1.66.33,2.36.87.02.02.03.06.04.09h.03c0,.07,0,.16,0,.24h-.03Z"/>
  <path class="cls-1" d="M65.22,108.36c-.2.05-.42.05-.59.14-.26.15-.49.37-.73.56-.06.35-.36.37-.62.45-.8.24-1.62.36-2.44.37-1.65.03-3.3.03-4.95.03-2.2,0-4.4.02-6.59.29-.58.07-1.16.09-1.73.26-.32.1-.68.05-1.02.05-.22,0-.4-.1-.49-.31-.04-.09-.1-.18-.14-.27-.12-.26-.28-.47-.56-.57-.06-.02-.12-.09-.13-.15-.04-.3-.1-.61.01-.91.03-.09.12-.18.2-.22.35-.18.62-.43.77-.79.11-.26.1-.33-.13-.51-.08-.06-.17-.12-.23-.19-.04-.04-.04-.12-.04-.18,0-.07.03-.13.06-.2.15-.36.54-.52.71-.87.05-.1.22-.15.33-.22.17-.11.4-.19.49-.35.22-.38.53-.45.94-.49.79-.07,1.57-.14,2.36-.22,2.34-.23,4.67-.17,7.01-.1.34,0,.69,0,1.03,0,.48,0,.96,0,1.44.1.23.05.48.05.72.05.72,0,1.44,0,2.17-.03.53-.02,1.03,0,1.46.36.08.06.19.08.29.11.25.08.42.24.43.51,0,.18.09.33.13.49.03.12-.03.26-.03.39,0,.06.05.13.08.18.04.05.1.09.15.14.46.43.47.63.11,1.11-.06.08-.13.16-.17.24-.06.12-.1.25-.15.38-.05.13-.09.25-.15.4Z"/>
  <path class="cls-1" d="M59.55,74.22c-.1,0-.2,0-.3,0-.03,0-.08,0-.09-.02-.01-.05.04-.07.13-.06.1.01.19.02.29.03-.01.02-.02.04-.03.06Z"/>
  <path class="cls-1" d="M56.35,73.94s0,.06-.01.07c-.02.01-.06.02-.08.01-.08-.04-.07-.08.02-.11.02,0,.05.02.08.03Z"/>
  <path class="cls-1" d="M66.91,98.07c.02.05.04.11.05.16,0,.02-.03.05-.05.07,0,0,.03.01.03.01,0-.08,0-.17,0-.25h-.03Z"/>
</svg>