<?xml version="1.0" encoding="UTF-8"?>
<svg id="Layer_1" data-name="Layer 1" xmlns="http://www.w3.org/2000/svg" viewBox="0 0 128 128">
  <defs>
    <style>
      .cls-1 {
        stroke-width: 0px;
      }
    </style>
  </defs>
  <path class="cls-1" d="M64.81,81.1c-1.14.06-2.25-.13-3.36-.31-.85-.13-1.7-.3-2.48-.7-1.14-.29-2.12-.95-3.22-1.33-.21-.07-.41-.2-.59-.32-.59-.41-1.16-.82-1.74-1.24-.21-.15-.41-.32-.64-.45-.28-.16-.49-.45-.77-.64-.19-.13-.37-.25-.48-.45-.07-.13-.18-.24-.28-.35-.37-.42-.77-.8-.98-1.35-.1-.27-.32-.51-.53-.72-.35-.36-.56-.78-.79-1.22-.4-.77-.72-1.57-.97-2.4-.03-.11-.09-.21-.11-.32-.24-1.59-.62-3.17-.53-4.8.04-.71.08-1.42.22-2.12.15-.73.25-1.48.3-2.23.05-.83.34-1.61.63-2.39.39-1.02.9-1.97,1.43-2.91.09-.16.22-.3.34-.44.1-.11.23-.2.3-.33.31-.58.79-.99,1.28-1.41.09-.07.2-.13.26-.22.47-.72,1.24-1.07,1.93-1.51.69-.45,1.41-.85,2.22-1.06.54-.15,1.07-.35,1.61-.52.07-.02.14-.04.22-.06,2.08-.43,4.16-.66,6.26-.23,2.14.43,4.25.95,6.27,1.79,1.56.65,3.06,1.43,4.4,2.48.35.28.74.51,1.03.86.53.64.95,1.34,1.21,2.14.26.82.59,1.62.94,2.41.5,1.11.82,2.25.92,3.46.1,1.27.27,2.54.45,3.8.11.78.17,1.59.04,2.36-.18,1.03-.41,2.06-.91,3-.11.2-.23.39-.31.6-.55,1.42-1.39,2.66-2.34,3.82-.21.26-.43.53-.64.79-.75.9-1.55,1.73-2.61,2.28-.27.14-.51.31-.77.48-1.39.89-2.91,1.37-4.53,1.6-.9.13-1.79.22-2.69.16ZM73.36,64.4c.04-.41.08-.82.1-1.23.01-.19,0-.38-.02-.56-.05-.37-.14-.74-.18-1.11-.07-.58-.3-1.08-.67-1.52-.17-.2-.28-.44-.45-.65-.38-.46-.69-.98-1.14-1.39-.39-.36-.88-.58-1.21-1-.68-.25-1.18-.8-1.81-1.13-.4-.21-.81-.39-1.26-.46-.3-.05-.57-.15-.85-.28-.37-.17-.76-.35-1.16-.41-.93-.14-1.84-.39-2.75-.58-.22-.05-.45-.07-.67-.07-.41.01-.81.07-1.23.06-.54-.01-1.01.2-1.34.69-.31.47-.66.91-.98,1.37-.22.31-.45.6-.77.81-.12.08-.25.19-.31.32-.14.28-.36.48-.6.66-.27.21-.48.48-.65.77-.28.49-.61.95-.76,1.5-.05.18-.14.35-.25.5-.21.28-.33.6-.33.94,0,.53-.1,1.04-.22,1.56-.13.6-.1,1.19.03,1.78.33,1.43.79,2.82,1.5,4.11.25.46.47.95.77,1.37.33.45.58.96,1.02,1.34.31.27.61.55.92.82.39.35.74.74,1.15,1.06.56.44,1.18.79,1.85,1.05.56.22,1.13.39,1.7.58.84.28,1.71.32,2.56.15,1.36-.28,2.7-.63,3.97-1.22.81-.38,1.45-.94,1.96-1.64.47-.64.79-1.35.96-2.13.05-.22.11-.44.18-.65.57-1.76.87-3.56.93-5.41Z"/>
  <path class="cls-1" d="M23.08,96.41c-.55.02-.98-.13-1.41-.26-.64-.45-1.33-.85-1.6-1.66-.19-.57-.43-1.12-.62-1.69-.49-1.54-1.17-3-1.89-4.45-.37-.74-.69-1.5-1.03-2.25-.12-.27-.22-.56-.36-.83-.27-.54-.49-1.09-.7-1.66-.15-.42-.34-.84-.51-1.25-.17-.42-.32-.84-.44-1.27-.28-.97-.61-1.93-.9-2.9-.28-.94-.53-1.88-.79-2.82-.07-.25-.13-.51-.22-.76-.28-.78-.51-1.56-.66-2.38-.15-.81-.35-1.61-.58-2.4-.14-.47-.23-.94-.3-1.43-.11-.78-.21-1.56-.41-2.32-.25-.96-.26-1.93-.29-2.91-.03-1.01-.04-2.02-.02-3.04.02-1.35.02-2.71.03-4.06,0-.08,0-.15,0-.23.21-1.82.14-3.68.63-5.48.16-.58.21-1.18.35-1.76.26-1.06.59-2.09.95-3.12.02-.07.07-.14.08-.21.1-.83.5-1.57.8-2.33.16-.42.33-.83.41-1.28.04-.22.15-.42.23-.63.14-.39.3-.77.43-1.16.29-.9.72-1.72,1.14-2.56.44-.87,1.04-1.65,1.47-2.52.13-.27.32-.51.5-.75.56-.75,1.1-1.52,1.7-2.23.67-.8,1.26-1.68,2.01-2.42.68-.99,1.61-1.77,2.32-2.74.04-.06.09-.12.15-.17,1.15-.9,2.14-1.99,3.42-2.73.42-.24.8-.56,1.17-.88.5-.44,1.11-.63,1.72-.8.17-.05.38-.05.56-.01.89.18,1.6.63,2.05,1.43.32.58.44,1.2.2,1.84-.12.32-.24.63-.37.94-.18.43-.55.71-.87,1.02-.29.28-.67.49-1,.72-.06.04-.14.06-.2.1-.16.1-.34.18-.47.31-.53.53-1.24.83-1.78,1.36-.08.08-.16.16-.23.25-.4.6-.94,1.07-1.4,1.61-.41.48-.84.95-1.21,1.47-.13.18-.27.36-.43.52-.31.33-.57.68-.78,1.09-.21.43-.54.81-.85,1.19-.72.88-1.34,1.81-1.88,2.81-.31.56-.61,1.12-.91,1.69-.65,1.23-1.2,2.5-1.65,3.82-.31.93-.69,1.83-1.02,2.74-.19.53-.36,1.07-.52,1.61-.19.69-.29,1.4-.62,2.05-.05.1-.08.22-.08.33-.03.76-.31,1.47-.45,2.2-.05.26-.15.51-.16.77-.05,1.35-.28,2.68-.3,4.04-.02,1.46.09,2.93-.02,4.39-.01.19.02.38.03.56.13,1.5.32,2.99.56,4.47.28,1.74.75,3.44,1.19,5.15.3,1.16.64,2.32.92,3.49.12.52.29,1.01.52,1.49.22.44.39.89.45,1.38.03.22.1.44.17.65.32,1,.75,1.96,1.1,2.95.36.99.77,1.95,1.21,2.91.22.48.47.94.74,1.39.25.42.39.9.79,1.23.05.05.09.12.12.19.52,1.21,1.32,2.27,1.86,3.46.22.47.36.98.51,1.49.05.17.03.38,0,.55-.08.37-.21.72-.29,1.09-.06.32-.24.53-.52.69-.29.17-.59.34-.84.56-.3.28-.63.4-.94.37Z"/>
  <path class="cls-1" d="M103.57,28.74c.1.11.21.21.29.33.2.29.63.27.78.61.13.3.44.4.64.62.13.14.28.25.39.4.88,1.17,1.92,2.2,2.87,3.31.3.34.53.72.78,1.09.66,1,1.24,2.06,1.84,3.1.51.88,1.02,1.75,1.48,2.65.31.6.55,1.24.79,1.87.88,2.24,1.63,4.52,2.35,6.81.45,1.44.77,2.9,1.12,4.36.13.55.3,1.09.42,1.64.17.85.32,1.7.47,2.55.07.41.1.82.15,1.23.1.93.18,1.87.31,2.8.18,1.27.19,2.54.22,3.82.02.75.05,1.5.06,2.25,0,.41-.03.83-.04,1.24-.03,1.32-.12,2.63-.3,3.93-.15,1.08-.25,2.16-.58,3.21-.18.57-.31,1.16-.48,1.74-.27.9-.58,1.78-1.02,2.62-.47.9-.84,1.84-1.26,2.77-.28.62-.55,1.24-.84,1.85-.18.37-.38.74-.61,1.07-.85,1.2-1.55,2.48-2.39,3.68-.32.75-.93,1.25-1.51,1.79-.62.59-1.31,1.12-1.76,1.88-.11.19-.3.34-.46.49-.25.23-.51.44-.75.68-.21.22-.47.37-.73.53-.41.24-.85.31-1.31.23-.74-.14-1.47-.31-2.2-.48-.23-.05-.39-.21-.5-.42-.16-.3-.28-.61-.28-.96,0-.19.02-.38,0-.56-.12-.83.35-1.34.96-1.77.18-.13.4-.22.59-.33.16-.1.33-.19.46-.32.49-.52,1.06-.95,1.52-1.51.33-.41.72-.77,1.06-1.17.67-.77,1.11-1.7,1.66-2.55.24-.38.46-.78.72-1.14.56-.76,1-1.59,1.31-2.49.36-1.07.87-2.08,1.38-3.08.24-.47.42-.96.56-1.47.34-1.19.59-2.41.81-3.63.03-.15.05-.3.06-.45.09-1.46.32-2.91.23-4.38,0-.15.02-.3.02-.45.02-.79.06-1.57,0-2.36-.05-.71-.05-1.43-.04-2.14.03-1.47-.14-2.92-.41-4.37-.22-1.14-.39-2.3-.58-3.44-.24-1.48-.66-2.93-1.1-4.36-.31-1-.61-2.01-.88-3.03-.34-1.27-.72-2.52-1.3-3.71-.44-.91-.83-1.85-1.32-2.74-.36-.66-.66-1.35-1.03-1.99-.33-.58-.64-1.19-1.14-1.66-.35-.34-.55-.79-.92-1.13-.36-.33-.63-.75-.86-1.18-.09-.16-.22-.31-.35-.44-.75-.73-1.4-1.57-2.23-2.23-.41-.33-.76-.72-1.18-1.03-.2-.15-.31-.45-.52-.57-.31-.17-.53-.41-.79-.62-.59-.49-.66-.59-.99-1.31-.14-.31-.29-.61-.45-.91-.19-.36-.18-.73,0-1.09.21-.44.53-.82.63-1.31.27-.31.54-.62,1.01-.64.45-.02.89-.04,1.34-.15.44-.11.9.04,1.33.16.29.08.56.2.83.34.16.08.31.22.44.35.42.42.84.86,1.26,1.29h-.02q-.16.12,0,.27h0Z"/>
  <path class="cls-1" d="M105.64,68.3c-.08,1.36,0,2.72-.19,4.06-.12.89-.12,1.8-.18,2.7-.03.49-.13.96-.26,1.43-.27.98-.5,1.97-.7,2.96-.16.81-.46,1.58-.67,2.38-.05.18-.1.36-.16.54-.27.82-.57,1.63-1.06,2.35-.15.22-.31.44-.38.69-.24.95-.91,1.61-1.52,2.32-.41.48-.78,1.01-1.16,1.52-.13.18-.27.36-.39.55-.46.75-1.2,1.13-1.98,1.4-.31.11-.68.15-1,.1-.45-.07-.9-.09-1.34-.13-.66-.06-1.1-.44-1.4-1-.07-.13-.09-.29-.08-.44,0-.26.09-.52.07-.78-.03-.58.25-1,.65-1.38.96-.9,1.76-1.95,2.65-2.92.32-.55.7-1.07.96-1.65.55-1.27,1.05-2.57,1.33-3.93.03-.15.09-.29.14-.43.24-.64.41-1.29.43-1.97,0-.22.03-.45.09-.67.11-.44.19-.88.21-1.33.02-.3.12-.59.16-.89.06-.41.12-.82.15-1.23.03-.41,0-.83.05-1.24.16-1.35.09-2.7,0-4.05-.06-.94-.06-1.88-.13-2.82-.07-.9-.18-1.8-.32-2.68-.19-1.19-.43-2.36-.65-3.55-.11-.59-.19-1.18-.3-1.77-.06-.33-.14-.66-.24-.98-.16-.54-.32-1.08-.5-1.61-.37-1.14-.67-2.31-1.1-3.43-.09-.25-.18-.5-.3-.73-.5-.89-.84-1.85-1.22-2.79-.25-.63-.54-1.24-.89-1.82-.83-1.38-1.64-2.78-2.61-4.07-.2-.27-.44-.51-.69-.74-.7-.63-1.41-1.23-2.12-1.85-.11-.1-.22-.21-.32-.31-.17-.16-.28-.35-.32-.58-.08-.44-.2-.88-.34-1.3-.2-.61,0-1.12.46-1.52.42-.37.87-.71,1.31-1.06.09-.07.19-.12.3-.15.44-.12.88-.16,1.33-.02.39.13.79.24,1.18.38.36.13.66.35.9.65.19.23.37.48.56.71.12.14.23.3.38.41.41.34.74.75,1.05,1.17.99,1.33,1.94,2.68,2.85,4.06.25.38.48.77.69,1.16.57,1.06,1.12,2.13,1.68,3.19.05.1.11.2.15.3.39,1.06.79,2.11,1.16,3.17.21.6.4,1.21.6,1.82.47,1.39.86,2.8,1.2,4.23.16.66.33,1.31.53,1.96.18.61.29,1.24.38,1.87.05.37.12.74.19,1.11.27,1.44.43,2.9.56,4.36.13,1.43.1,2.85.2,4.27Z"/>
  <path class="cls-1" d="M36.23,87.96c-.34.36-.67.68-1.09.95-.3.19-.59.29-.93.32-.37.03-.75-.12-1.12.04-.03.01-.08.01-.11,0-.73-.29-1.5-.5-1.93-1.25-.64-1.11-1.42-2.12-2.13-3.18-.42-.62-.77-1.29-1.18-1.92-.5-.75-.83-1.6-1.39-2.31-.28-.36-.51-.75-.68-1.16-.29-.69-.59-1.37-.75-2.11-.02-.11-.05-.22-.08-.33-.33-1.03-.95-3.42-1.1-4.36-.09-.55-.14-1.12-.21-1.67-.07-.52-.21-1.03-.15-1.57,0-.04.01-.08,0-.11-.3-1.11-.11-2.24-.24-3.36-.02-.15-.04-.3-.02-.45.1-.64-.05-1.26-.03-1.9.01-.56-.06-1.13-.08-1.69-.04-1.05-.04-2.1.33-3.12.09-.24.09-.52.11-.78.1-.93.16-1.87.43-2.78.12-.39.15-.81.18-1.22.12-1.4.51-2.73,1.03-4.02.62-1.53,1.29-3.04,1.97-4.54.29-.65.65-1.27,1.03-1.87.69-1.11,1.37-2.24,2.01-3.38.28-.49.6-.95.98-1.38.33-.36.64-.74.91-1.14.3-.44.62-.86.99-1.22.79-.77,1.43-1.64,2.01-2.56.38-.61.9-.99,1.51-1.3.35-.17.72-.21,1.1-.14.18.03.37.08.55.13.82.24,1.2.55,1.62,1.29.05.1.09.21.12.31.16.63.13,1.27-.03,1.89-.04.14-.11.28-.18.41-.13.27-.3.52-.4.81-.12.33-.32.59-.55.84-.61.66-1.12,1.41-1.65,2.13-.16.21-.3.44-.47.63-.36.39-.62.85-.97,1.24-.32.37-.61.76-.94,1.12-.25.28-.45.6-.61.94-.25.5-.57.97-.88,1.43-.52.78-.98,1.6-1.45,2.41-.11.19-.18.42-.3.6-.34.51-.53,1.07-.66,1.67-.07.33-.15.66-.39.92-.07.08-.13.19-.17.29-.51,1.33-1.04,2.65-1.17,4.09-.05.59-.16,1.19-.25,1.78-.18,1.19-.23,2.39-.27,3.6-.02.41-.08.82-.14,1.23-.14.9-.19,1.8-.07,2.69.12.93.11,1.87.19,2.81.05.52.04,1.05.12,1.57.13.89.26,1.78.53,2.65.26.82.46,1.66.65,2.5.07.33.21.65.26.98.05.31.16.57.34.82.3.44.5.92.67,1.42.19.56.37,1.13.81,1.59.22.24.36.57.5.88.5,1.1,1.13,2.11,1.9,3.04.12.14.23.29.35.44.9,1.18,1.21,1.82,1.54,3.22.03.14.04.3.04.45,0,.22,0,.45,0,.67Z"/>
  <path class="cls-1" d="M92.46,68.29c-.04.68-.11,1.35-.12,2.03,0,.68-.15,1.34-.2,2.01-.04.63-.23,1.25-.34,1.88-.14.81-.29,1.63-.58,2.41-.12.31-.17.65-.25.98-.38,1.47-1.06,2.81-1.77,4.13-.44.83-.93,1.63-1.45,2.41-.27.4-.62.75-.95,1.11-.18.2-.45.29-.71.32-.34.04-.65.15-.95.32-.26.15-.56.17-.87.12-.56-.1-1.1-.23-1.57-.58-.18-.14-.33-.3-.39-.53-.08-.33-.17-.66-.25-.98-.19-.78-.06-1.49.47-2.11.27-.31.54-.62.81-.94.28-.35.56-.7.83-1.07.11-.15.22-.32.26-.49.24-.95.74-1.8.99-2.74.03-.11.1-.21.12-.32.27-1.47.67-2.92.84-4.41.02-.19.02-.38.07-.56.27-.88.26-1.78.23-2.68-.03-.83-.02-1.65-.07-2.48-.04-.75-.14-1.49-.22-2.24-.06-.6-.12-1.19-.2-1.79-.02-.18-.09-.36-.13-.54-.04-.18-.11-.37-.11-.55,0-.42-.14-.82-.24-1.21-.55-2.07-1.3-4.07-2.23-6.01-.32-.68-.7-1.32-1-2.02-.25-.58-.69-1.07-1.11-1.54-.33-.37-.6-.76-.82-1.2-.24-.47-.51-.91-.96-1.23-.22-.15-.35-.37-.41-.65-.04-.22-.17-.42-.24-.63-.32-.97-.19-1.93.12-2.87.02-.07.05-.15.1-.2.34-.42.53-.89.66-1.41.07-.29.57-.63.89-.56.48.11.97-.02,1.45.09.33.08.65.16.95.32.6.33,1.08.81,1.54,1.31.1.11.16.25.24.38.14.22.28.44.43.66.4.54.82,1.08,1.21,1.63.13.18.24.39.31.6.2.61.49,1.18.78,1.74.94,1.84,1.76,3.73,2.57,5.63.24.55.43,1.12.6,1.7.29.93.56,1.87.9,2.78.03.07.06.14.06.22.14,1.65.45,3.27.49,4.93.02.68.07,1.35.13,2.02.09.93.06,1.88.09,2.82h-.03Z"/>
  <path class="cls-1" d="M45.4,83.54c-.6-.07-1.03.34-1.56.35-.32-.11-.63-.23-.95-.33-.76-.23-1.29-.76-1.68-1.41-.21-.35-.36-.74-.5-1.13-.26-.7-.5-1.42-.76-2.12-.64-1.68-1.3-3.36-1.92-5.05-.18-.49-.38-.98-.55-1.48-.39-1.14-.66-2.31-.89-3.48-.05-.26-.08-.52-.16-.77-.07-.22-.07-.44-.07-.66,0-.34.03-.7-.08-1-.2-.52-.14-1.03-.15-1.55-.02-.71.02-1.43-.09-2.13-.17-1.1.11-2.16.1-3.24.16-.47.2-.95.17-1.44,0-.15.01-.3.05-.45.39-1.48.66-3,1.24-4.43.13-.31.27-.62.32-.96.02-.18.13-.35.22-.51.18-.33.37-.65.55-.98.4-.72.75-1.47.91-2.29.07-.38.27-.7.49-1.01.41-.58.88-1.12,1.2-1.77.06-.13.2-.22.29-.34.28-.35.6-.69.81-1.07.36-.64.88-1.12,1.38-1.62.4-.4.9-.67,1.44-.85.44-.15.88-.19,1.33-.12.41.07.82.13,1.2.27.39.15.62.53.92.82.05.05.1.11.14.15.41.82.23,1.64-.03,2.42-.16.49-.41.98-.79,1.35-.38.37-.67.79-.99,1.2-.32.41-.68.8-.98,1.23-.32.46-.59.96-.87,1.44-.09.16-.15.35-.26.49-.6.74-.91,1.63-1.29,2.48-.04.1-.04.23-.1.32-.5.77-.66,1.66-.9,2.53-.15.54-.32,1.08-.43,1.62-.1.48-.14.96-.19,1.45-.06.56-.11,1.12-.18,1.68-.14,1.12-.06,2.25.04,3.37.03.34.07.67.08,1.01.03.94.1,1.87.36,2.78.07.25.1.52.1.78.01.72.17,1.41.39,2.1.26.82.54,1.64.77,2.47.22.79.49,1.58.7,2.37.22.8.63,1.52,1.02,2.25.3.56.68,1.08.86,1.69.28.35.31.75.23,1.17-.02.11-.01.22-.02.34-.05.61-.22,1.18-.6,1.67-.09.12-.18.24-.32.43Z"/>
  <path class="cls-1" d="M103.6,28.48c-.02.06-.04.11-.05.17,0,.03.01.06.02.09,0,0,0,0,0,0,0-.09,0-.18,0-.28h.02Z"/>
</svg>