<?xml version="1.0" encoding="UTF-8"?>
<svg id="Layer_1" data-name="Layer 1" xmlns="http://www.w3.org/2000/svg" viewBox="0 0 128 128">
  <defs>
    <style>
      .cls-1 {
        stroke-width: 0px;
      }
    </style>
  </defs>
  <path class="cls-1" d="M114.16,48.08c.02.09.05.21.09.31.19.42.24.86.12,1.31-.03.11-.05.24-.04.35.08.78-.01,1.55-.02,2.33,0,.09,0,.18,0,.27.07,1.17.16,2.33.2,3.5.04,1.05.11,2.09-.05,3.14-.06.35-.02.72-.08,1.07-.17.98-.13,1.97-.21,2.95-.12,1.49-.21,2.99-.33,4.48-.07.92-.19,1.85-.27,2.77-.04.45-.09.9-.08,1.34,0,.63-.11,1.25-.16,1.88-.02.27-.1.53-.16.79-.02.08-.07.16-.13.23-.13.16-.27.31-.44.5-.82.13-1.68.26-2.53.4-.35.06-.66-.04-.94-.23-.42-.29-.81-.59-1.13-1.01-.68-.87-1.42-1.7-2.17-2.51-.37-.4-.74-.79-1.09-1.2-.45-.53-.95-.99-1.48-1.43-.18-.14-.31-.16-.49-.05-.52.31-1,.66-1.42,1.09-.8.81-1.59,1.63-2.4,2.43-.59.59-1.3.85-2.13.63-.26-.07-.52-.15-.78-.22-.29-.07-.58-.15-.87-.2-.25-.04-.45-.15-.64-.3-.59-.44-.98-1.05-1.38-1.64-.61-.89-1.18-1.8-1.79-2.69-.25-.37-.54-.72-.82-1.07-.07-.09-.18-.16-.27-.23-.08-.06-.28-.06-.34,0-.23.23-.49.44-.68.71-.7.97-1.46,1.9-2.09,2.92-.12.2-.27.4-.42.58-.3.37-.6.74-.85,1.16-.15.25-.34.5-.56.7-.22.2-.49.33-.74.49-.39.03-.77.13-1.16.05-.23-.05-.45-.16-.65-.28-.18-.12-.35-.22-.57-.22-.91-.02-1.51-.53-1.94-1.26-.22-.38-.42-.79-.57-1.21-.24-.67-.54-1.33-.87-1.97-.55-1.06-1.18-2.08-1.66-3.18-.07-.16-.18-.31-.29-.45-.15-.21-.42-.26-.64-.12-.12.08-.24.18-.34.29-.49.57-.92,1.18-1.31,1.82-.34.56-.66,1.14-1,1.7-.65,1.04-1.36,2.03-2.23,2.91-.42.42-.88.81-1.25,1.29-.21.12-.42.22-.62.36-.19.13-.38.14-.59.14-.34,0-.65-.06-.97-.17-.08-.03-.19-.05-.24-.11-.25-.28-.6-.38-.91-.55-.05-.03-.12-.05-.15-.1-.31-.44-.76-.78-.91-1.32-.43-1.54-1.21-2.92-1.98-4.31-.3-.55-.61-1.1-.93-1.64-.17-.28-.35-.56-.54-.83-.05-.07-.13-.12-.2-.18-.09-.07-.26-.07-.33,0-.5.56-.92,1.18-1.32,1.81-.35.56-.66,1.14-.96,1.72-.47.9-.97,1.79-1.49,2.66-.43.72-.96,1.37-1.63,1.89-.17.13-.35.21-.56.25-.49.08-.95-.06-1.41-.19-.08-.02-.17-.07-.22-.14-.31-.39-.75-.57-1.2-.74-.03-.01-.06,0-.09-.02-.24-.13-.51-.22-.7-.39-.24-.22-.43-.5-.63-.76-.07-.09-.11-.22-.13-.33-.07-.51-.26-.98-.44-1.46-.43-1.15-.86-2.29-1.31-3.43-.29-.72-.57-1.45-.97-2.12-.03-.05-.06-.1-.09-.15-.17-.27-.34-.27-.55.02-.07.1-.14.2-.2.3-.25.44-.51.88-.76,1.32-.74,1.33-1.46,2.68-2.13,4.05-.34.7-.77,1.35-1.22,1.98-.51.72-.56.7-.5,1.66.01.24-.01.48-.02.72,0,.09-.02.18-.02.27,0,.39.02.78-.01,1.17-.03.35-.19.7-.19,1.06,0,.48-.12.94-.16,1.42-.02.22-.09.4-.18.59-.22.47-.57.84-.91,1.22-.08.09-.18.15-.29.21-.8.48-1.62.88-2.53,1.12-.37.1-.74.22-1.09.39-.4.19-.84.31-1.3.31-.42,0-.83.08-1.24.17-.91.19-1.83.3-2.75.33-.39.01-.77.07-1.16.11-.39.04-.77.1-1.16.1-1.08,0-2.15.02-3.23-.01-.9-.02-1.79-.05-2.69-.08-1.07-.04-2.15.04-3.22.2-.33.05-.65.09-.97.16-.36.08-.7.14-1.06,0-.08-.03-.18-.04-.26-.01-.44.14-.89-.01-1.34.03-.12.01-.24-.02-.35-.05-.37-.09-.73-.27-1.13-.26-.11,0-.23-.06-.34-.12-.53-.28-1.06-.56-1.58-.86-.39-.23-.73-.52-.99-.9-.17-.25-.4-.45-.54-.71-.14-.26-.17-.57-.31-.84-.2-.41-.24-.86-.36-1.29-.13-.49-.1-1.01-.26-1.5-.15-.46-.03-.95-.11-1.43,0-.03-.01-.06,0-.09.12-.59-.01-1.19.03-1.79.03-.46-.02-.9-.14-1.33-.09-.32-.1-.64-.12-.97-.04-.75,0-1.5-.12-2.24-.04-.23-.03-.48,0-.72.05-.45.03-.89,0-1.34-.05-.84-.08-1.67-.12-2.51-.03-.6-.07-1.19-.1-1.79-.05-.96-.14-1.91-.24-2.86-.03-.29,0-.6,0-.89,0-.96-.04-1.91-.1-2.86-.05-.81-.03-1.62-.1-2.42-.04-.48-.09-.95-.13-1.43-.03-.36-.03-.72-.04-1.07,0-.27.05-.54-.1-.79-.03-.05-.04-.11-.04-.17-.02-.63-.05-1.25-.13-1.88.12-.39-.02-.77-.02-1.16,0-.06,0-.12-.01-.18-.2-.7-.15-1.43-.23-2.14-.07-.56-.09-1.13-.15-1.69-.06-.57-.08-1.14-.22-1.69-.13-.5-.08-1.01-.18-1.51-.07-.33-.03-.66.03-.98.09-.5.27-.98.44-1.46.04-.11.09-.22.17-.32.52-.66,1.02-1.33,1.7-1.84.12-.09.24-.17.38-.24.58-.31,1.17-.6,1.79-.82.54-.19,1.07-.34,1.64-.39.56-.05,1.12-.18,1.69-.25.39-.05.78-.07,1.16-.07,1.29,0,2.57,0,3.86.1.89.07,1.79.07,2.69.1.24,0,.48.01.72.04.6.07,1.19.13,1.79.1.18,0,.36,0,.54.03.85.21,1.73.14,2.59.17.36.01.71.04,1.06.13.46.11.94.15,1.42.21.33.04.66.03.97.15.14.05.3.07.44.06.49-.02.95.09,1.41.25.17.06.34.11.52.13.51.06.97.26,1.44.47.31.14.58.3.78.57.28.38.61.73.84,1.16.07.13.13.27.09.42-.04.15-.02.29.04.44.11.28.22.55.26.86.04.33.2.61.43.87.17.2.35.43.43.67.12.38.37.68.51,1.05.05.12.17.18.29.17.6,0,1.19-.03,1.79-.04.36,0,.72-.01,1.08,0,1.02.05,2.03.11,3.05.15.3.01.59.05.89.09.59.09,1.19.15,1.78.19,1.31.09,2.62.21,3.94.31.63.05,1.26.08,1.88.16.74.1,1.49.08,2.22.27.26.07.54.1.8.09.63-.04,1.25.1,1.87.14.65.05,1.31.1,1.96.17.83.08,1.67.18,2.5.26.39.04.78.05,1.16.08,1.31.09,2.63.14,3.94.27.81.08,1.61.09,2.42.12.15,0,.3,0,.45.02,1.16.18,2.33.11,3.5.18.69.04,1.37.09,2.06.12.93.04,1.85.09,2.78.17.69.06,1.37.15,2.05.2.66.04,1.31.11,1.97.17.92.09,1.85.12,2.77.23,1.42.18,2.87.19,4.29.43.74.13,1.49.16,2.23.25.89.11,1.78.23,2.67.33,1.13.13,2.25.34,3.38.44.59.05,1.18.17,1.77.26.12.02.24.03.36.04,1.34.13,2.68.26,4.02.4.65.07,1.3.19,1.95.29.5.08,1.01.15,1.51.23.62.1,1.24.2,1.86.3.24.04.44.16.62.34.27.28.58.52.73.9.1.26.38.27.56.47ZM111.19,58.3c-.02-1.09,0-2.11-.16-3.12-.03-.18-.03-.36-.03-.54.02-1.32-.17-2.63-.14-3.95,0-.06-.02-.12-.04-.17-.03-.05-.07-.1-.12-.12-.11-.04-.23-.06-.35-.07-.95-.11-1.9-.18-2.85-.35-.47-.08-.95-.1-1.43-.11-.21,0-.42.01-.63-.02-1.19-.15-2.38-.26-3.58-.32-2.04-.3-4.1-.49-6.14-.78-1.1-.16-2.21-.17-3.3-.38-.09-.02-.18,0-.27-.02-.69-.06-1.38-.07-2.05-.19-.89-.16-1.79-.12-2.68-.3-.35-.07-.72-.02-1.07-.08-.98-.16-1.97-.18-2.95-.27-1.31-.13-2.62-.26-3.94-.3-.12,0-.24-.02-.36-.02-1.23-.06-2.45-.13-3.68-.18-.9-.04-1.8-.04-2.69-.07-1.41-.06-2.81-.17-4.21-.27-1.46-.11-2.93-.2-4.39-.31-.3-.02-.6-.06-.89-.09-.51-.05-1.01-.14-1.52-.16-1.35-.04-2.69-.21-4.03-.3-.15,0-.3-.02-.45-.04-.98-.14-1.96-.23-2.94-.31-.24-.02-.48.02-.72-.01-.92-.15-1.85-.12-2.77-.25-.86-.11-1.73-.1-2.59-.18-.74-.06-1.5-.03-2.24-.03-.45,0-.9,0-1.35.04-.36.03-.71.06-1.07.06-.36,0-.71.07-1.07.08-.19,0-.34.06-.51.14-.31.14-.47.35-.42.7.03.24.02.48.07.71.08.39.08.77.08,1.16,0,.87-.01,1.74-.08,2.6-.04.54-.03,1.08.01,1.61.06.63.11,1.25.14,1.88.03.6,0,1.2.02,1.8.02.81,0,1.62.07,2.42.06.8.01,1.62.25,2.4-.01.51.13,1.01.23,1.51.07.36.12.71.12,1.07,0,.45.02.9.03,1.35,0,.15.03.3.06.44,0,.03.09.06.14.07.02,0,.07-.02.08-.04.39-.74.78-1.48,1.18-2.21.63-1.12,1.28-2.23,1.91-3.36.33-.59.76-1.06,1.29-1.47.3-.23.61-.34.96-.45.52-.16,1-.07,1.49.1.08.03.17.08.23.14.25.26.54.49.73.79.57.91,1.12,1.84,1.63,2.79.43.79.83,1.59,1.14,2.44.34.9.68,1.79,1.03,2.68.12.31.25.61.4.9.05.1.14.19.21.28.05.06.19.08.25.03.11-.1.24-.19.32-.3.24-.34.48-.69.69-1.05.58-.98,1.14-1.96,1.72-2.95.03-.05.06-.11.09-.15.57-.8,1.14-1.6,1.72-2.41.05-.07.09-.16.16-.21.28-.17.52-.4.81-.56.5-.28,1.05-.44,1.59-.6.72-.22,1.36-.02,1.84.58.15.19.27.4.38.61.28.53.58,1.04.91,1.54.66,1,1.26,2.04,1.85,3.08.46.81.87,1.64,1.26,2.48.09.19.19.37.29.56.06.11.26.17.4.14.24-.06.44-.2.6-.38.24-.27.46-.55.67-.84.68-.95,1.2-2,1.9-2.94.37-.77.94-1.38,1.47-2.03.36-.44.79-.83,1.32-1.06.3-.13.62-.2.93-.33.3-.12.59-.29.89-.42.19-.08.4-.13.6-.18.27-.07.53-.05.78.08.18.1.37.19.55.3.1.06.2.14.27.23.25.3.47.62.59,1,.28.86.66,1.67,1.07,2.46.75,1.46,1.59,2.88,2.22,4.4.05.11.11.21.18.31.05.07.12.15.19.18.07.03.19.06.25.02.12-.08.23-.18.33-.3.58-.65,1.07-1.36,1.59-2.06.51-.7,1.02-1.41,1.56-2.09.5-.63,1.07-1.21,1.79-1.62.24-.14.42-.33.6-.53.08-.09.18-.16.29-.2.22-.08.46-.14.69-.19.46-.09.91,0,1.28.27.26.19.51.43.7.69.56.74,1.1,1.49,1.63,2.25.65.94,1.27,1.89,1.9,2.83.2.3.41.59.7.81.1.08.22.11.33.08.14-.04.29-.08.42-.16.23-.15.45-.31.65-.48.99-.87,1.96-1.75,2.95-2.63.25-.22.51-.42.78-.61.2-.13.41-.27.63-.33.91-.27,1.77-.08,2.61.3.11.05.2.14.28.22.36.36.75.7,1.06,1.1.54.68,1.08,1.36,1.76,1.91.05.04.08.09.12.13.43.5.86,1,1.29,1.49.08.09.17.16.27.23.06.04.13.01.15-.05.04-.11.08-.23.09-.34.07-.59.15-1.19.2-1.78.17-1.73.24-3.46.47-5.19.09-.68.11-1.37.19-2.05.1-.9.12-1.79.13-2.62ZM38.95,75.27c.12-.49.19-1.02.14-1.57-.02-.18-.02-.36-.01-.54,0-.63.01-1.25.03-1.88,0-.42-.08-.84,0-1.25-.12-.31-.1-.65-.13-.97-.06-.66-.12-1.31-.17-1.97-.01-.18-.05-.36-.02-.54.07-.57-.01-1.13-.1-1.69-.03-.18-.06-.35-.06-.53-.01-.42-.05-.83-.08-1.25-.03-.41.04-.83.06-1.25,0-.09.01-.18,0-.27-.11-.92.04-1.86-.17-2.77-.01-.06-.02-.12-.01-.18.04-.36-.02-.72-.09-1.07-.03-.18-.06-.36-.04-.53.06-.63,0-1.26-.02-1.88-.02-.93.04-1.85-.07-2.78-.04-.32-.02-.66-.03-.99-.01-.36.03-.71.04-1.07.01-.57.04-1.14.03-1.71,0-.59-.12-1.19-.03-1.79.03-.2-.04-.41-.06-.62-.01-.24-.04-.47-.05-.71-.01-.75-.07-1.49-.13-2.24-.04-.51-.11-1.01-.18-1.51-.04-.27-.11-.53-.17-.79-.27-.35-.25-.79-.39-1.18-.09-.25-.11-.53-.07-.8.03-.24.07-.47.1-.71.04-.28-.02-.52-.26-.72-.38-.33-.79-.53-1.3-.53-.42,0-.84-.05-1.25-.15-.35-.09-.71-.12-1.07-.14-.63-.03-1.25-.06-1.88-.13-.15-.02-.3-.02-.45,0-.42.04-.83.09-1.25,0-.33.12-.65-.07-.97-.06-.36.01-.71-.06-1.06-.14-.55-.13-1.12-.21-1.69-.18-.36.02-.72,0-1.07-.04-.57-.07-1.13-.08-1.7-.06-.18,0-.36,0-.53-.04-.68-.15-1.37-.17-2.05-.15-1.11.04-2.21.07-3.32.07-.91,0-1.76.26-2.57.67-.38.2-.68.47-.92.83-.21.31-.31.64-.28,1.01,0,.12.04.24.02.35-.13.71-.08,1.43-.08,2.15,0,.63-.03,1.26.11,1.88.04.17.02.36.03.54.03.57.04,1.14.11,1.7.07.51.1,1.01.1,1.52,0,.69.03,1.38.07,2.06.04.78.1,1.55.14,2.33.02.27-.02.54.03.81.14.83.14,1.67.19,2.51.07,1.28.11,2.57.16,3.86.04,1.08.15,2.15.23,3.22.03.39.07.78.08,1.16.03,1.26.12,2.51.27,3.76.03.24.08.48.04.71-.05.37.04.71.11,1.06.04.17.07.35.09.53.05.32.08.65.14.97.04.21.05.41.03.62-.02.15-.04.3-.02.45.07.45.06.89.07,1.34,0,.54.11,1.07.13,1.6.03.64.14,1.25.32,1.85.14.47.43.84.87,1.08.26.14.54.24.84.31.56.13,1.12.2,1.69.17,1.07-.06,2.15-.04,3.22-.18.41-.05.83-.08,1.25-.07.96,0,1.91-.01,2.87-.08.24-.02.48-.02.71.03.56.13,1.13.13,1.7.1.78-.03,1.55-.04,2.33-.02.54.02,1.08.01,1.61-.03,1.67-.13,3.31-.47,4.92-.95.35-.1.66-.26.94-.56Z"/>
  <path class="cls-1" d="M34.03,42.68c.14.4.26.83.25,1.29,0,.3.06.59.07.89.04.93.04,1.85-.06,2.78-.04.32,0,.65-.02.98-.03.51-.06,1.01-.15,1.51-.03.15-.08.31-.05.44.16.66-.03,1.31-.02,1.96.01.66-.07,1.31-.1,1.97-.03.57-.09,1.13-.16,1.69-.06.5-.11,1.01-.19,1.51-.03.21-.06.42-.03.63.05.42-.04.83-.12,1.24-.09.5-.27.98-.18,1.5.01.08-.02.18-.04.26-.14.7-.28,1.41-.42,2.11-.08.41-.07.83-.1,1.25-.02.26.02.52-.11.79-.11.23.07.53-.06.78.07.3-.02.59-.06.89-.01.09-.04.18-.04.27,0,.55-.13,1.05-.33,1.56-.13.33-.16.69-.23,1.05-.12.62-.41,1.18-.68,1.75-.26.54-.64,1.01-1.15,1.35-.37.25-.71.55-1.1.77-.29.16-.58.31-.88.43-.36.14-.71.32-1.05.51-.24.13-.48.24-.74.31-.23.06-.46.13-.69.21-.37.13-.75.17-1.14.2-.59.04-1.19-.02-1.78.12-.19.05-.42-.02-.62-.04-.51-.05-.99-.22-1.47-.37-.4-.13-.75-.37-1.03-.7-.1-.11-.2-.23-.31-.32-.56-.47-.95-1.06-1.18-1.76-.02-.06-.03-.12-.06-.17-.32-.47-.35-1.01-.41-1.54-.07-.71-.13-1.43-.13-2.14,0-.15.02-.3.02-.45,0-.24.03-.48-.01-.71-.16-.8-.12-1.61-.1-2.42.01-.48,0-.96-.11-1.43-.03-.14-.06-.3-.05-.44.04-.69-.07-1.37-.17-2.05-.08-.57-.05-1.13-.09-1.7-.02-.27,0-.54-.05-.8-.1-.5-.08-1.01-.09-1.52-.02-.81-.02-1.61-.03-2.42,0-.06.01-.12,0-.18-.22-.83-.09-1.66-.09-2.5,0-.24,0-.48-.03-.72-.05-.39.04-.77.06-1.16.02-.35-.1-.71-.08-1.07.03-.54,0-1.07-.11-1.6-.09-.44-.14-.89-.19-1.33-.03-.27-.06-.53-.14-.79-.04-.14-.08-.29-.07-.44.03-.46-.09-.89-.16-1.33-.06-.35-.15-.7-.14-1.06.04-1,.46-1.84,1.06-2.6.18-.23.42-.41.68-.57.82-.51,1.71-.85,2.64-1.09.31-.08.65-.1.98-.11.39-.01.78,0,1.17.01,1.19.02,1.52.06,3.01.37.14.03.3.02.44.04.7.13,1.4.28,2.07.55.58.23,1.18.43,1.8.52.3.04.58.14.84.3.21.12.42.24.65.31.39.12.67.38.95.65.1.1.1.18,0,.31-.06.07-.13.13-.18.2-.02.04-.03.13,0,.16.09.11.21.21.3.32.07.08.16.08.24.05.08-.03.16-.09.24-.12.34-.11.62-.01.7.34.08.34.37.36.59.54ZM21.93,70.75c.21.16.44.23.68.25.39.04.77.12,1.15.14.66.04,1.31-.02,1.91-.37.15-.09.31-.18.48-.23.48-.15.82-.49,1.12-.86.44-.53.78-1.12.88-1.83.07-.5.21-.99.32-1.49.05-.2.09-.41.17-.6.13-.31.18-.63.23-.96.07-.47.14-.95.26-1.41.09-.32.11-.65.11-.97,0-.21-.05-.43,0-.62.1-.38.03-.77.16-1.15.13-.4.17-.82.25-1.23.09-.44.21-.87.25-1.32.1-1.19.16-2.38.24-3.58,0-.06.01-.12.01-.18-.01-.48-.03-.95.06-1.43.03-.14.05-.3.01-.44-.1-.42-.04-.84.05-1.25.14-.65.18-1.3.23-1.95.02-.33.11-.65.12-.98.02-.75.23-1.47.28-2.22.2-.64.12-1.3.11-1.96,0-.13-.09-.23-.22-.24-.27-.02-.54,0-.79-.13-.69-.36-1.44-.59-2.14-.91-.31-.14-.62-.22-.95-.26-.42-.05-.84-.08-1.24-.17-.41-.09-.81-.18-1.22-.27-.56-.12-1.12-.2-1.69-.24-.63-.05-1.25.04-1.86.21-.2.06-.39.15-.57.26-.24.15-.41.33-.44.63-.04.35-.18.69-.13,1.06.07.5.07,1.01.15,1.51.09.5.21.99.18,1.51.12.41.08.83.09,1.25.01.42.05.84.07,1.25.01.27.04.54,0,.8-.05.39.13.77,0,1.16-.03.08,0,.18.02.27.08.68.1,1.37.1,2.06,0,.66,0,1.32.07,1.97,0,.09.03.18.03.26-.07.75.06,1.49.09,2.24.01.36.11.71.13,1.07.04.57.21,1.12.18,1.69-.03.48-.01.96.03,1.43.09,1.01.07,2.03.19,3.04.09.71.06,1.43.16,2.14.09.62.14,1.25.22,1.87.02.17.08.35.15.51.09.22.2.43.3.63Z"/>
</svg>